<svg width="24" height="24" viewBox="0 0 24 24" fill="none" xmlns="http://www.w3.org/2000/svg">
<path fill-rule="evenodd" clip-rule="evenodd" d="M2.25 12.0078C2.25 6.62304 6.61522 2.25781 12 2.25781C17.3848 2.25781 21.75 6.62304 21.75 12.0078C21.75 17.3926 17.3848 21.7578 12 21.7578C6.61522 21.7578 2.25 17.3926 2.25 12.0078ZM15.6103 10.1937C15.8511 9.85668 15.773 9.38827 15.4359 9.14751C15.0989 8.90676 14.6305 8.98482 14.3897 9.32188L11.1543 13.8514L9.53033 12.2275C9.23744 11.9346 8.76256 11.9346 8.46967 12.2275C8.17678 12.5204 8.17678 12.9952 8.46967 13.2881L10.7197 15.5381C10.8756 15.694 11.0921 15.7734 11.3119 15.7553C11.5316 15.7371 11.7322 15.6231 11.8603 15.4437L15.6103 10.1937Z" fill="#10B981"/>
</svg>
