<svg width="23" height="25" viewBox="0 0 23 25" fill="none" xmlns="http://www.w3.org/2000/svg">
<path d="M0.215334 22.6357C5.52712 25.3932 12.079 23.9745 16.3066 19.7731C20.0345 16.0681 21.6307 10.4105 20.5262 5.34716C20.8341 5.56325 21.152 5.76491 21.4839 5.91313C21.8059 6.05674 22.2197 6.0497 22.4772 5.76327C22.739 5.47245 22.7674 5.11199 22.6093 4.76773C22.3505 4.20559 21.9512 3.67368 21.5594 3.19834C21.2331 2.80208 20.9069 2.40668 20.5807 2.01042C20.4329 1.80578 20.2873 1.59463 20.1158 1.41414C19.7854 1.06641 19.2841 0.858842 18.8028 0.867771C18.0212 0.882058 17.3399 1.42192 17.0355 2.12663C16.8537 2.5478 16.6836 2.97442 16.51 3.3985C16.2492 4.03375 16.0485 4.66768 16.0783 5.36047C16.1011 5.88677 16.3963 6.34234 16.8916 6.53615C17.3734 6.72454 17.9106 6.6066 18.2878 6.24179C18.3508 6.18113 18.4051 6.11454 18.4625 6.05007C19.5363 10.4042 18.2755 15.3237 15.0235 18.5123C11.3131 22.1499 5.38326 23.1577 0.527241 21.8616C0.0728724 21.7408 -0.207303 22.4166 0.215334 22.6357Z" fill="#6466F1" style="fill:#6466F1;fill:color(display-p3 0.3922 0.4000 0.9451);fill-opacity:1;"/>
</svg>
