<svg xmlns="http://www.w3.org/2000/svg" fill="none" viewBox="0 0 24 24">
	<path fill="#4f46e5" fill-rule="evenodd"
		d="M4.8 21.64a6.7 6.7 0 0 0 4.78-.92Q10.75 21 12 21c5.32 0 9.75-3.97 9.75-9S17.32 3 12 3s-9.75 3.97-9.75 9c0 2.4 1.02 4.59 2.67 6.2.24.22.28.42.26.53a4 4 0 0 1-.82 1.7.75.75 0 0 0 .44 1.21m3.45-10.76a1.13 1.13 0 1 0 0 2.25 1.13 1.13 0 0 0 0-2.26M10.88 12a1.13 1.13 0 1 1 2.25 0 1.13 1.13 0 0 1-2.26 0m4.87-1.12a1.13 1.13 0 1 0 0 2.25 1.13 1.13 0 0 0 0-2.26"
		clip-rule="evenodd" />
</svg>
