<svg width="20" height="20" viewBox="0 0 20 20" fill="none" xmlns="http://www.w3.org/2000/svg">
<g clip-path="url(#clip0_7582_9112)">
<path d="M7.12854 0.504264C7.73865 -0.105622 8.72738 -0.105554 9.33753 0.504264L19.5026 10.6693C20.1127 11.2795 20.1127 12.2691 19.5026 12.8793L17.7194 14.6625C17.5616 14.8201 17.3313 14.8811 17.1158 14.8236C16.4886 14.6562 15.7944 14.8198 15.3043 15.3099C14.8143 15.8001 14.6515 16.4942 14.819 17.1215C14.8765 17.337 14.8146 17.5672 14.6569 17.725L12.8737 19.5082C12.2635 20.1183 11.2739 20.1183 10.6637 19.5082L0.499638 9.34313C-0.110556 8.73294 -0.110557 7.74337 0.499638 7.13317L2.28284 5.34997C2.44056 5.19249 2.67002 5.13137 2.88538 5.18883C3.51273 5.35637 4.20769 5.19269 4.69788 4.70251C5.18779 4.21237 5.35068 3.51817 5.18323 2.89098C5.12567 2.67543 5.18758 2.44523 5.34534 2.28747L7.12854 0.504264ZM8.57386 11.9281C8.36699 11.9283 8.19897 12.0962 8.19886 12.3031V13.8939C8.19886 14.1009 8.36692 14.2687 8.57386 14.2689C8.78096 14.2689 8.94886 14.101 8.94886 13.8939V13.2084L9.36976 13.6293C10.5412 14.8007 12.4404 14.8005 13.6119 13.6293C13.8014 13.4398 13.961 13.2304 14.0895 13.0082C14.1929 12.829 14.1318 12.6002 13.9528 12.4965C13.7735 12.3928 13.5437 12.4539 13.4401 12.6332C13.344 12.7993 13.2244 12.9562 13.0817 13.099C12.203 13.9774 10.7786 13.9775 9.90003 13.099L9.47913 12.6781H10.1657C10.3726 12.6779 10.5407 12.5101 10.5407 12.3031C10.5405 12.0962 10.3725 11.9283 10.1657 11.9281H8.57386ZM4.69788 10.0062C4.45385 9.76219 4.05818 9.7623 3.81409 10.0062L3.37171 10.4476C3.12763 10.6917 3.12763 11.0883 3.37171 11.3324C3.6157 11.5762 4.01145 11.5761 4.2555 11.3324L4.69788 10.89C4.94175 10.646 4.94174 10.2503 4.69788 10.0062ZM13.6119 9.3861C12.4404 8.215 10.5412 8.21487 9.36976 9.3861C9.18023 9.57562 9.02074 9.78489 8.89222 10.0072C8.78861 10.1864 8.84986 10.4162 9.02893 10.5199C9.20812 10.6235 9.43788 10.5622 9.54163 10.3832C9.63772 10.217 9.75714 10.0593 9.90003 9.91637C10.7786 9.03804 12.203 9.03817 13.0817 9.91637L13.5026 10.3373H12.817C12.6099 10.3373 12.442 10.5052 12.442 10.7123C12.442 10.9194 12.6099 11.0873 12.817 11.0873H14.4078C14.6149 11.0873 14.7828 10.9194 14.7828 10.7123V9.12145C14.7828 8.91434 14.6149 8.74645 14.4078 8.74645C14.2007 8.74646 14.0328 8.91435 14.0328 9.12145V9.807L13.6119 9.3861ZM6.90686 7.79626C6.66276 7.5525 6.26705 7.55229 6.02308 7.79626L5.58167 8.23864C5.33762 8.48272 5.3376 8.87836 5.58167 9.12243C5.82575 9.36633 6.22143 9.36642 6.46546 9.12243L6.90686 8.68005C7.15094 8.43597 7.15094 8.04033 6.90686 7.79626ZM9.11683 5.5863C8.87278 5.3426 8.47702 5.3425 8.23304 5.5863L7.79163 6.02868C7.54755 6.27276 7.54755 6.66839 7.79163 6.91247C8.03572 7.15638 8.4314 7.15649 8.67542 6.91247L9.11683 6.47106C9.3609 6.22698 9.3609 5.83037 9.11683 5.5863ZM11.3268 3.37731C11.0827 3.13323 10.6871 3.13323 10.443 3.37731L10.0006 3.81872C9.75666 4.06269 9.75687 4.45841 10.0006 4.70251C10.2447 4.94658 10.6403 4.94657 10.8844 4.70251L11.3268 4.2611C11.5708 4.01708 11.5707 3.6214 11.3268 3.37731Z" fill="#4F46E5"/>
</g>
<defs>
<clipPath id="clip0_7582_9112">
<rect width="20" height="20" fill="#4F46E5" transform="translate(0 0.0078125)"/>
</clipPath>
</defs>
</svg>
