<svg width="10" height="10" viewBox="0 0 10 10" fill="none" xmlns="http://www.w3.org/2000/svg">
<path fill-rule="evenodd" clip-rule="evenodd" d="M9.33525 6.85225C9.55492 7.07192 9.55492 7.42808 9.33525 7.64775L7.64775 9.33525C7.42808 9.55492 7.07192 9.55492 6.85225 9.33525L5.16475 7.64775C4.94508 7.42808 4.94508 7.07192 5.16475 6.85225C5.38442 6.63258 5.74058 6.63258 5.96025 6.85225L6.6875 7.5795V3.3125C6.6875 3.00184 6.93934 2.75 7.25 2.75C7.56066 2.75 7.8125 3.00184 7.8125 3.3125V7.5795L8.53975 6.85225C8.75942 6.63258 9.11558 6.63258 9.33525 6.85225Z" fill="#F97316"/>
<path fill-rule="evenodd" clip-rule="evenodd" d="M0.664752 3.14775C0.445082 2.92808 0.445083 2.57192 0.664752 2.35225L2.35225 0.664752C2.57192 0.445082 2.92808 0.445083 3.14775 0.664753L4.83525 2.35225C5.05492 2.57192 5.05492 2.92808 4.83525 3.14775C4.61558 3.36742 4.25942 3.36742 4.03975 3.14775L3.3125 2.4205L3.3125 6.6875C3.3125 6.99816 3.06066 7.25 2.75 7.25C2.43934 7.25 2.1875 6.99816 2.1875 6.6875L2.1875 2.4205L1.46025 3.14775C1.24058 3.36742 0.884422 3.36742 0.664752 3.14775Z" fill="#F97316"/>
</svg>
