<svg width="30" height="26" viewBox="0 0 30 26" fill="none" xmlns="http://www.w3.org/2000/svg">
<path d="M5.7638 2.16252C6.18588 1.65157 6.11384 0.895193 5.60288 0.473112C5.09193 0.05103 4.33556 0.123075 3.91347 0.634029C2.47463 2.37583 1.43658 4.46351 0.943157 6.75486C0.803639 7.40275 1.21576 8.04107 1.86365 8.18059C2.51154 8.32011 3.14986 7.90799 3.28937 7.2601C3.6998 5.35418 4.56353 3.61551 5.7638 2.16252Z" fill="#F97316"/>
<path d="M26.1274 0.634029C25.7053 0.123075 24.9489 0.05103 24.4379 0.473112C23.927 0.895193 23.8549 1.65157 24.277 2.16252C25.4773 3.61551 26.341 5.35418 26.7515 7.2601C26.891 7.90799 27.5293 8.32011 28.1772 8.18059C28.8251 8.04107 29.2372 7.40275 29.0977 6.75486C28.6043 4.46351 27.5662 2.37583 26.1274 0.634029Z" fill="#F97316"/>
<path fill-rule="evenodd" clip-rule="evenodd" d="M15.0206 0.199609C9.71871 0.199609 5.42065 4.49768 5.42065 9.79961C5.42065 12.8182 4.69468 15.6638 3.40887 18.1745C3.23816 18.5078 3.23286 18.9018 3.39454 19.2396C3.55621 19.5774 3.86633 19.8203 4.233 19.8964C5.9413 20.2511 7.67961 20.5232 9.44352 20.7085C9.70061 23.5628 12.0994 25.7996 15.0207 25.7996C17.942 25.7996 20.3408 23.5628 20.5979 20.7085C22.3618 20.5232 24.1 20.2511 25.8083 19.8964C26.175 19.8203 26.4851 19.5774 26.6468 19.2396C26.8084 18.9018 26.8031 18.5078 26.6324 18.1745C25.3466 15.6638 24.6206 12.8182 24.6206 9.79961C24.6206 4.49768 20.3226 0.199609 15.0206 0.199609ZM15.0207 23.3996C13.4971 23.3996 12.2223 22.3349 11.8996 20.9089C12.9323 20.9691 13.973 20.9996 15.0206 20.9996C16.0684 20.9996 17.109 20.9691 18.1418 20.9089C17.8192 22.3349 16.5443 23.3996 15.0207 23.3996Z" fill="#F97316"/>
</svg>
