<svg xmlns="http://www.w3.org/2000/svg" fill="none" viewBox="0 0 12 12"><path fill="color(display-p3 .149 .2078 .3137)" d="M6 10.38c-.27 0-.43 0-.59-.08a.85.85 0 0 1-.47-.47c-.06-.16-.06-.31-.06-.58v-6.5c0-.27 0-.43.06-.59a.88.88 0 0 1 .48-.47c.16-.06.32-.06.58-.06.27 0 .43 0 .59.06a.9.9 0 0 1 .47.47c.07.16.07.32.07.59v6.5c0 .27 0 .42-.07.58a.88.88 0 0 1-.47.48c-.16.06-.32.06-.59.06Zm0-8h-.3a.1.1 0 0 0-.07.07v7.1a.1.1 0 0 0 .07.06 3 3 0 0 0 .6 0 .1.1 0 0 0 .06-.07l.01-.3v-6.8a.1.1 0 0 0-.07-.06L6 2.37Z"/><path fill="color(display-p3 .149 .2078 .3137)" d="M2.5 3.63c.27 0 .42 0 .58.06.22.09.39.26.48.48.06.16.06.32.06.58v4.5c0 .27 0 .42-.06.58a.88.88 0 0 1-.48.48 1.5 1.5 0 0 1-.58.06c-.27 0-.42 0-.58-.06a.87.87 0 0 1-.48-.48 1.5 1.5 0 0 1-.06-.58v-4.5c0-.26 0-.42.06-.58a.88.88 0 0 1 .48-.48c.16-.06.31-.06.58-.06Zm7 1.5c.27 0 .42 0 .59.06.21.09.38.26.47.48.06.16.06.32.06.58v3c0 .27 0 .42-.06.58a.88.88 0 0 1-.47.48 1.5 1.5 0 0 1-.59.06c-.27 0-.42 0-.58-.06a.87.87 0 0 1-.48-.48 1.5 1.5 0 0 1-.06-.58v-3c0-.26 0-.42.06-.58a.88.88 0 0 1 .48-.48c.16-.06.31-.07.58-.07Zm-7-.75h-.3a.1.1 0 0 0-.07.07v5.1a.1.1 0 0 0 .07.06 3 3 0 0 0 .6 0 .1.1 0 0 0 .07-.07V4.45a.1.1 0 0 0-.07-.07h-.3Zm7 1.5h-.3a.1.1 0 0 0-.07.07v3.6a.1.1 0 0 0 .07.06 3 3 0 0 0 .6 0 .1.1 0 0 0 .07-.07V5.95a.1.1 0 0 0-.07-.07h-.3Z" opacity=".4"/></svg>