<svg xmlns="http://www.w3.org/2000/svg" fill="none" viewBox="0 0 12 12"><path fill="color(display-p3 .149 .2078 .3137)" fill-rule="evenodd" d="M1.5 1.13c.2 0 .38.16.38.37V7c0 .84 0 1.42.06 1.87.05.44.16.68.34.85.17.18.41.29.85.34.45.06 1.03.06 1.87.06h5.5a.38.38 0 0 1 0 .76H4.97c-.8 0-1.44 0-1.94-.07a2.1 2.1 0 0 1-1.28-.56 2.1 2.1 0 0 1-.56-1.28 13.9 13.9 0 0 1-.06-1.94V1.5c0-.2.16-.38.37-.38Z" clip-rule="evenodd"/><path fill="color(display-p3 .149 .2078 .3137)" fill-rule="evenodd" d="M3.13 3c0-.2.16-.38.37-.38.92 0 2.37.2 3.59 1a4.9 4.9 0 0 1 2.13 4.1l.52-.5a.38.38 0 1 1 .52.52l-.96.95a.62.62 0 0 1-.88 0l-.94-.95a.37.37 0 1 1 .53-.53l.46.46c-.1-1.78-.88-2.81-1.8-3.42a5.91 5.91 0 0 0-3.17-.88.38.38 0 0 1-.38-.37Z" clip-rule="evenodd" opacity=".4"/></svg>