<svg xmlns="http://www.w3.org/2000/svg" fill="none" viewBox="0 0 12 12"><path fill="color(display-p3 .149 .2078 .3137)" d="M2 7.13c.2 0 .38.16.38.37v2a.37.37 0 1 1-.75 0v-2c0-.2.16-.38.37-.38Zm4-3c.2 0 .38.16.38.37v5a.37.37 0 1 1-.75 0v-5c0-.2.16-.38.37-.38Zm4 2c.2 0 .38.16.38.37v3a.38.38 0 0 1-.76 0v-3c0-.2.17-.38.38-.38Z" opacity=".4"/><path fill="color(display-p3 .149 .2078 .3137)" d="M11 10.63a.38.38 0 0 1 0 .74H1a.38.38 0 0 1 0-.74h10Zm-5-10a1.38 1.38 0 0 1 1.35 1.63l1.63.81a1.37 1.37 0 1 1-.33.67l-1.63-.81a1.37 1.37 0 0 1-1.85.16L3.28 4.51a1.37 1.37 0 1 1-.45-.6l1.89-1.42A1.37 1.37 0 0 1 6 .62ZM2 4.38a.62.62 0 1 0 0 1.24.62.62 0 0 0 0-1.25Zm8-1a.63.63 0 1 0 0 1.25.63.63 0 0 0 0-1.25Zm-4-2a.62.62 0 1 0 0 1.24.62.62 0 0 0 0-1.25Z"/></svg>