<svg xmlns="http://www.w3.org/2000/svg" fill="none" viewBox="0 0 12 12"><path fill="color(display-p3 .149 .2078 .3137)" d="M6 5.87c.26 0 .43 0 .58.07.22.09.39.25.48.47.06.16.07.32.07.59v2.75c0 .26 0 .42-.07.58a.88.88 0 0 1-.48.48 1.5 1.5 0 0 1-.58.06c-.26 0-.43 0-.58-.06a.87.87 0 0 1-.48-.48c-.07-.16-.07-.32-.07-.58V7c0-.27 0-.43.07-.59a.89.89 0 0 1 .48-.47c.15-.07.32-.07.58-.07Zm0 .75-.3.01a.1.1 0 0 0-.07.07v3.34a.1.1 0 0 0 .07.07 3 3 0 0 0 .6 0 .1.1 0 0 0 .06-.07 2 2 0 0 0 .01-.29V6.7a.1.1 0 0 0-.07-.07H6ZM1.73 1.23a.38.38 0 0 1 .53 0 12.05 12.05 0 0 0 6.66 3.59l-.47-.58a.37.37 0 0 1 .06-.53c.17-.13.4-.1.53.06l1 1.25c.13.16.1.4-.06.53l-1.25 1a.37.37 0 0 1-.24.08.39.39 0 0 1-.29-.15.37.37 0 0 1 .06-.52l.5-.4a12.8 12.8 0 0 1-7.03-3.8.38.38 0 0 1 0-.53Z"/><path fill="color(display-p3 .149 .2078 .3137)" d="M2.5 4.13c.26 0 .42 0 .58.06.22.09.39.25.48.47.06.16.06.33.06.59v4.5c0 .26 0 .43-.06.59a.88.88 0 0 1-.48.47 1.5 1.5 0 0 1-.58.06c-.26 0-.42 0-.58-.06a.87.87 0 0 1-.48-.47 1.5 1.5 0 0 1-.06-.59v-4.5c0-.26 0-.43.06-.59a.88.88 0 0 1 .48-.47c.16-.07.32-.07.58-.07Zm7 3c.26 0 .42 0 .59.06.21.09.38.25.47.47.06.16.06.33.06.59v1.5c0 .26 0 .43-.06.59a.88.88 0 0 1-.47.47 1.5 1.5 0 0 1-.59.06c-.26 0-.42 0-.58-.06a.87.87 0 0 1-.48-.47 1.5 1.5 0 0 1-.06-.59v-1.5c0-.26 0-.43.06-.59a.88.88 0 0 1 .48-.47c.16-.07.32-.07.58-.07Zm-7-2.25h-.3a.1.1 0 0 0-.07.07v5.1a.1.1 0 0 0 .07.06 3 3 0 0 0 .6 0 .1.1 0 0 0 .07-.07V4.95a.1.1 0 0 0-.07-.07h-.3Zm7 3h-.3a.1.1 0 0 0-.07.07v2.1a.1.1 0 0 0 .07.06 3 3 0 0 0 .6 0 .1.1 0 0 0 .07-.07V7.95a.1.1 0 0 0-.07-.07h-.3Z" opacity=".4"/></svg>