<svg xmlns="http://www.w3.org/2000/svg" fill="none" viewBox="0 0 24 24">
	<path fill="#fff"
		d="M12 3c5.32 0 9.75 3.97 9.75 9s-4.43 9-9.75 9q-1.25 0-2.42-.28a6.7 6.7 0 0 1-4.78.92.75.75 0 0 1-.44-1.22c.4-.48.7-1.05.82-1.68.02-.12-.02-.32-.26-.55A8.6 8.6 0 0 1 2.25 12c0-5.03 4.43-9 9.75-9m2.14 10.43q-.24.01-.34.24l-.18.56a.7.7 0 0 1-.46.45l-.56.2a.36.36 0 0 0 0 .67l.56.19q.34.12.46.45l.18.56a.36.36 0 0 0 .68 0l.19-.56a.7.7 0 0 1 .45-.45l.56-.19a.36.36 0 0 0 0-.68l-.56-.19a.7.7 0 0 1-.45-.45l-.19-.56a.4.4 0 0 0-.34-.24m-3.57-5c-.16 0-.3.1-.34.25l-.39 1.36c-.17.6-.63 1.06-1.23 1.23l-1.35.38a.36.36 0 0 0 0 .7l1.35.38c.6.17 1.06.63 1.23 1.22l.39 1.36a.36.36 0 0 0 .68 0l.4-1.36c.16-.59.63-1.05 1.22-1.22l1.35-.39a.36.36 0 0 0 0-.69l-1.35-.38a1.8 1.8 0 0 1-1.23-1.23l-.39-1.36a.4.4 0 0 0-.34-.25M14.86 7q-.26 0-.35.27l-.12.5c-.11.44-.46.79-.91.9l-.5.12a.36.36 0 0 0 0 .7l.5.12c.45.11.8.46.9.91l.13.5a.36.36 0 0 0 .7 0l.12-.5c.1-.45.46-.8.9-.91l.5-.12a.36.36 0 0 0 0-.7l-.5-.12c-.44-.11-.8-.46-.9-.9l-.13-.5a.4.4 0 0 0-.34-.27" />
</svg>
