<svg width="24" height="24" viewBox="0 0 24 24" fill="none" xmlns="http://www.w3.org/2000/svg">
<path d="M7.9205 6.3295C7.48116 5.89017 6.76884 5.89017 6.3295 6.3295C5.89017 6.76884 5.89017 7.48116 6.3295 7.9205L10.409 12L6.3295 16.0795C5.89017 16.5188 5.89017 17.2312 6.3295 17.6705C6.76884 18.1098 7.48116 18.1098 7.9205 17.6705L12 13.591L16.0795 17.6705C16.5188 18.1098 17.2312 18.1098 17.6705 17.6705C18.1098 17.2312 18.1098 16.5188 17.6705 16.0795L13.591 12L17.6705 7.9205C18.1098 7.48116 18.1098 6.76884 17.6705 6.3295C17.2312 5.89017 16.5188 5.89017 16.0795 6.3295L12 10.409L7.9205 6.3295Z" fill="#94A3B8"/>
</svg>
