<svg width="16" height="16" viewBox="0 0 16 16" fill="none" xmlns="http://www.w3.org/2000/svg">
<path fill-rule="evenodd" clip-rule="evenodd" d="M8.00004 0C8.41426 0 8.75004 0.335786 8.75004 0.75V1.00836C10.231 1.0414 11.6882 1.17204 13.1154 1.39419C13.8922 1.51509 14.66 1.6631 15.418 1.83721C15.8217 1.92994 16.0737 2.33239 15.981 2.73608C15.8883 3.13978 15.4858 3.39187 15.0821 3.29913C14.7168 3.21521 14.3491 3.13764 13.979 3.06655L15.6814 10.6123C15.7565 10.9452 15.5975 11.2868 15.2944 11.4435C14.6064 11.7994 13.8256 12 13 12C12.1745 12 11.3937 11.7994 10.7057 11.4435C10.4026 11.2868 10.2436 10.9452 10.3187 10.6123L12.0896 2.76296C10.9933 2.62087 9.87913 2.53512 8.75004 2.50875V14.0138C10.0446 14.0616 11.3083 14.2324 12.5296 14.5153C12.9331 14.6087 13.1845 15.0116 13.091 15.4151C12.9976 15.8187 12.5947 16.07 12.1912 15.9766C10.8452 15.6649 9.44236 15.5 8.00004 15.5C6.55772 15.5 5.15486 15.6649 3.80893 15.9766C3.40539 16.07 3.00251 15.8187 2.90906 15.4151C2.81561 15.0116 3.06699 14.6087 3.47052 14.5153C4.69183 14.2324 5.95553 14.0616 7.25004 14.0138V2.50875C6.12096 2.53512 5.00679 2.62087 3.91051 2.76296L5.68142 10.6123C5.75652 10.9452 5.59746 11.2868 5.29437 11.4435C4.6064 11.7994 3.82556 12 3.00004 12C2.17453 12 1.39369 11.7994 0.705718 11.4435C0.402629 11.2868 0.243565 10.9452 0.318663 10.6123L2.02108 3.06655C1.65102 3.13764 1.28327 3.21521 0.917959 3.29913C0.51426 3.39187 0.111819 3.13978 0.0190822 2.73608C-0.073655 2.33239 0.178429 1.92994 0.582128 1.83721C1.34006 1.6631 2.10791 1.51509 2.8847 1.39419C4.31192 1.17204 5.76912 1.0414 7.25004 1.00836V0.75C7.25004 0.335786 7.58583 0 8.00004 0ZM3.00004 5.54309L1.91997 10.3304C2.25962 10.4404 2.62241 10.5 3.00004 10.5C3.37768 10.5 3.74047 10.4404 4.08012 10.3304L3.00004 5.54309ZM13 5.5431L11.92 10.3304C12.2596 10.4404 12.6224 10.5 13 10.5C13.3777 10.5 13.7405 10.4404 14.0801 10.3304L13 5.5431Z" fill="#C7D2FE"/>
</svg>
