<svg xmlns="http://www.w3.org/2000/svg" fill="none" viewBox="0 0 16 16">
	<path fill="#4f46e5" fill-rule="evenodd"
		d="M8 0c.41 0 .75.34.75.75v.26a33 33 0 0 1 6.67.83.75.75 0 0 1-.34 1.46l-1.1-.23 1.7 7.54a.75.75 0 0 1-.39.83 5 5 0 0 1-4.58 0 .75.75 0 0 1-.4-.83l1.78-7.85q-1.65-.2-3.34-.25V14q1.95.08 3.78.5a.75.75 0 1 1-.34 1.47 18.6 18.6 0 0 0-8.38 0 .75.75 0 0 1-.34-1.46q1.84-.44 3.78-.5V2.5q-1.7.04-3.34.25l1.77 7.85a.75.75 0 0 1-.39.83 5 5 0 0 1-4.58 0 .75.75 0 0 1-.4-.83l1.71-7.54-1.1.23a.75.75 0 0 1-.34-1.46A33 33 0 0 1 7.25 1V.75C7.25.34 7.59 0 8 0M3 5.54l-1.08 4.79a3.5 3.5 0 0 0 2.16 0zm10 0-1.08 4.79a3.5 3.5 0 0 0 2.16 0z"
		clip-rule="evenodd" />
</svg>
