<svg xmlns="http://www.w3.org/2000/svg" fill="none" viewBox="0 0 24 24">
	<path stroke="currentColor" stroke-linecap="round" stroke-linejoin="round" stroke-width="2"
		d="M15.75 17.25v3.38c0 .62-.5 1.12-1.13 1.12H4.88a1.13 1.13 0 0 1-1.13-1.12V7.88c0-.62.5-1.13 1.13-1.13h1.87a9.06 9.06 0 0 1 1.5.13m7.5 10.37h3.38c.62 0 1.12-.5 1.12-1.12v-4.88a9 9 0 0 0-7.5-8.87 9.06 9.06 0 0 0-1.5-.13H9.37c-.62 0-1.12.5-1.12 1.13v3.5m7.5 10.37H9.37a1.13 1.13 0 0 1-1.12-1.12V6.88m12 6.62v-1.87a3.38 3.38 0 0 0-3.38-3.38h-1.5a1.13 1.13 0 0 1-1.12-1.12v-1.5a3.38 3.38 0 0 0-3.38-3.38H9.75" />
</svg>
