<svg width="20" height="20" viewBox="0 0 20 20" fill="none" xmlns="http://www.w3.org/2000/svg">
<path fill-rule="evenodd" clip-rule="evenodd" d="M10 0.257812C4.61522 0.257812 0.25 4.62304 0.25 10.0078C0.25 15.3926 4.61522 19.7578 10 19.7578C15.3848 19.7578 19.75 15.3926 19.75 10.0078C19.75 4.62304 15.3848 0.257812 10 0.257812ZM8.28033 7.22748C7.98744 6.93459 7.51256 6.93459 7.21967 7.22748C6.92678 7.52038 6.92678 7.99525 7.21967 8.28814L8.93934 10.0078L7.21967 11.7275C6.92678 12.0204 6.92678 12.4952 7.21967 12.7881C7.51256 13.081 7.98744 13.081 8.28033 12.7881L10 11.0685L11.7197 12.7881C12.0126 13.081 12.4874 13.081 12.7803 12.7881C13.0732 12.4952 13.0732 12.0204 12.7803 11.7275L11.0607 10.0078L12.7803 8.28814C13.0732 7.99525 13.0732 7.52038 12.7803 7.22748C12.4874 6.93459 12.0126 6.93459 11.7197 7.22748L10 8.94715L8.28033 7.22748Z" fill="#94A3B8"/>
</svg>
