<svg width="20" height="20" viewBox="0 0 20 20" fill="none" xmlns="http://www.w3.org/2000/svg">
<path fill-rule="evenodd" clip-rule="evenodd" d="M0.498165 12.8773C-0.11203 12.2671 -0.112029 11.2778 0.498165 10.6676L10.6628 0.502947C11.273 -0.107248 12.2623 -0.107247 12.8725 0.502947L14.6558 2.28624C14.8136 2.444 14.8753 2.67389 14.8177 2.88944C14.6502 3.51679 14.813 4.21121 15.3032 4.70139C15.7934 5.19158 16.4878 5.35442 17.1152 5.18688C17.3307 5.12932 17.5606 5.19102 17.7184 5.34878L19.5017 7.13207C20.1119 7.74227 20.1119 8.73159 19.5017 9.34178L9.337 19.5064C8.7268 20.1166 7.73748 20.1166 7.12729 19.5064L5.344 17.7231C5.18624 17.5654 5.12454 17.3355 5.1821 17.12C5.34964 16.4926 5.1868 15.7982 4.69661 15.308C4.20642 14.8178 3.51201 14.655 2.88465 14.8225C2.6691 14.8801 2.43921 14.8184 2.28146 14.6606L0.498165 12.8773ZM8.67409 3.37557C8.91816 3.13149 9.31389 3.13149 9.55797 3.37557L9.99991 3.81751C10.244 4.06159 10.244 4.45732 9.99991 4.70139C9.75583 4.94547 9.36011 4.94547 9.11603 4.70139L8.67409 4.25945C8.43001 4.01537 8.43001 3.61965 8.67409 3.37557ZM11.7677 5.58528C11.5236 5.3412 11.1279 5.3412 10.8838 5.58528C10.6397 5.82935 10.6397 6.22508 10.8838 6.46916L11.3257 6.9111C11.5698 7.15518 11.9655 7.15518 12.2096 6.9111C12.4537 6.66702 12.4537 6.2713 12.2096 6.02722L11.7677 5.58528ZM13.0935 7.79499C13.3376 7.55091 13.7333 7.55091 13.9774 7.79499L14.4193 8.23693C14.6634 8.481 14.6634 8.87673 14.4193 9.12081C14.1753 9.36489 13.7795 9.36489 13.5354 9.12081L13.0935 8.67887C12.8494 8.43479 12.8494 8.03906 13.0935 7.79499ZM16.1871 10.0047C15.943 9.76062 15.5473 9.76062 15.3032 10.0047C15.0591 10.2488 15.0591 10.6445 15.3032 10.8886L15.7452 11.3305C15.9892 11.5746 16.385 11.5746 16.629 11.3305C16.8731 11.0864 16.8731 10.6907 16.629 10.4466L16.1871 10.0047ZM6.46438 13.5402C6.2203 13.2962 6.2203 12.9004 6.46438 12.6563L9.55797 9.56275C9.80205 9.31867 10.1978 9.31867 10.4419 9.56275C10.6859 9.80683 10.6859 10.2026 10.4419 10.4466L7.34826 13.5402C7.10418 13.7843 6.70846 13.7843 6.46438 13.5402ZM8.23215 14.4241C7.98807 14.6682 7.98807 15.0639 8.23215 15.308C8.47622 15.5521 8.87195 15.5521 9.11603 15.308L10.8838 13.5402C11.1279 13.2962 11.1279 12.9004 10.8838 12.6563C10.6397 12.4123 10.244 12.4123 9.99991 12.6563L8.23215 14.4241Z" fill="#4F46E5"/>
</svg>
