<svg width="12" height="14" viewBox="0 0 12 14" fill="none" xmlns="http://www.w3.org/2000/svg">
<path d="M7.82692 5.00391L7.59615 11.0039M4.40385 11.0039L4.17308 5.00391M10.8184 2.86429C11.0464 2.89872 11.2736 2.93555 11.5 2.97477M10.8184 2.86429L10.1065 12.119C10.0464 12.9004 9.39476 13.5039 8.61095 13.5039H3.38905C2.60524 13.5039 1.95358 12.9004 1.89346 12.119L1.18157 2.86429M10.8184 2.86429C10.0542 2.74886 9.281 2.66047 8.5 2.60012M0.5 2.97477C0.726383 2.93555 0.953581 2.89872 1.18157 2.86429M1.18157 2.86429C1.94585 2.74886 2.719 2.66047 3.5 2.60012M8.5 2.60012V1.98936C8.5 1.20312 7.8929 0.546727 7.10706 0.521589C6.73948 0.50983 6.37043 0.503906 6 0.503906C5.62957 0.503906 5.26052 0.50983 4.89294 0.521589C4.1071 0.546727 3.5 1.20312 3.5 1.98936V2.60012M8.5 2.60012C7.67504 2.53637 6.84131 2.50391 6 2.50391C5.15869 2.50391 4.32496 2.53637 3.5 2.60012" stroke="#475569" stroke-linecap="round" stroke-linejoin="round"/>
</svg>
