<svg width="16" height="16" viewBox="0 0 16 16" fill="none" xmlns="http://www.w3.org/2000/svg">
<path d="M10.6797 2.18359V3.89453L13.0264 3.89453L15.1807 7.37305L15.1807 12.4971H13.3945C13.0794 13.2759 12.3342 13.834 11.4453 13.834C10.5582 13.8339 9.81323 13.2785 9.49707 12.502L6.9502 12.502C6.63407 13.2785 5.88898 13.8338 5.00195 13.834C4.11051 13.834 3.36337 13.2727 3.0498 12.4902H1.33301L1.33301 8.54785H2.33301L2.33301 11.4902H2.89941C2.98702 10.3901 3.88001 9.50098 5.00195 9.50098C6.12769 9.5012 7.02234 10.3965 7.10449 11.502L9.34277 11.502C9.37047 11.1294 9.48939 10.781 9.67969 10.4824L9.67969 3.18164L1.34766 3.16797L1.34961 2.16797L10.6797 2.18359ZM5.00195 10.501C4.40431 10.501 3.89062 11.0075 3.89062 11.668C3.89079 12.3283 4.40441 12.834 5.00195 12.834C5.59932 12.8338 6.11214 12.3282 6.1123 11.668C6.1123 11.0076 5.59942 10.5012 5.00195 10.501ZM11.4453 10.501C10.8478 10.5011 10.335 11.0076 10.335 11.668C10.3351 12.3282 10.8479 12.8338 11.4453 12.834C12.0429 12.834 12.5565 12.3283 12.5566 11.668C12.5566 11.0075 12.0429 10.501 11.4453 10.501ZM10.6797 9.64941C10.9163 9.55486 11.1738 9.50101 11.4453 9.50098C12.5696 9.50098 13.4634 10.3938 13.5479 11.4971H14.1807L14.1807 7.6582L12.4687 4.89453H10.6797L10.6797 9.64941ZM4.85742 7.16797L1.28027 7.16797L1.28027 6.16797L4.85742 6.16797V7.16797ZM6.14648 5.16797L1.28027 5.16797L1.28027 4.16797L6.14648 4.16797V5.16797Z" fill="#64748B"/>
</svg>
