<svg width="53" height="50" viewBox="0 0 53 50" fill="none" xmlns="http://www.w3.org/2000/svg">
<path fill-rule="evenodd" clip-rule="evenodd" d="M20.3501 10.0004C21.4979 10.0004 22.517 10.7349 22.8799 11.8238L26.7916 23.5589L38.5267 27.4706C39.6156 27.8335 40.3501 28.8526 40.3501 30.0004C40.3501 31.1482 39.6156 32.1672 38.5267 32.5302L26.7916 36.4419L22.8799 48.177C22.517 49.2659 21.4979 50.0004 20.3501 50.0004C19.2023 50.0004 18.1832 49.2659 17.8203 48.177L13.9086 36.4419L2.17349 32.5302C1.08458 32.1672 0.350098 31.1482 0.350098 30.0004C0.350098 28.8526 1.08458 27.8335 2.17349 27.4706L13.9086 23.5589L17.8203 11.8238C18.1832 10.7349 19.2023 10.0004 20.3501 10.0004Z" fill="#E2E8F0"/>
<path fill-rule="evenodd" clip-rule="evenodd" d="M41.6834 0.400391C42.3721 0.400391 42.9835 0.841079 43.2013 1.49443L45.2817 7.73548L51.5227 9.81583C52.1761 10.0336 52.6168 10.645 52.6168 11.3337C52.6168 12.0224 52.1761 12.6338 51.5227 12.8516L45.2817 14.932L43.2013 21.173C42.9835 21.8264 42.3721 22.2671 41.6834 22.2671C40.9947 22.2671 40.3833 21.8264 40.1655 21.173L38.0852 14.932L31.8441 12.8516C31.1908 12.6338 30.7501 12.0224 30.7501 11.3337C30.7501 10.645 31.1908 10.0336 31.8441 9.81583L38.0852 7.73548L40.1655 1.49443C40.3833 0.841079 40.9947 0.400391 41.6834 0.400391Z" fill="#E2E8F0"/>
</svg>
