<svg width="14" height="14" viewBox="0 0 14 14" fill="none" xmlns="http://www.w3.org/2000/svg">
<path d="M3.99873 8.16895H1.91485C1.23042 8.16895 0.6178 7.70628 0.545339 7.0257C0.51537 6.74422 0.5 6.45838 0.5 6.16894C0.5 4.27053 1.16125 2.52656 2.266 1.1548C2.5244 0.833936 2.92387 0.668945 3.33585 0.668945L6.01317 0.668946C6.33561 0.668946 6.65595 0.720929 6.96185 0.822896L9.03815 1.515C9.34405 1.61696 9.66439 1.66895 9.98683 1.66895L10.8497 1.66895M3.99873 8.16895C4.41092 8.16895 4.6593 8.65158 4.48225 9.02381C4.17304 9.67386 4 10.4012 4 11.1689C4 11.9974 4.67157 12.6689 5.5 12.6689C5.77614 12.6689 6 12.4451 6 12.1689V11.7467C6 11.365 6.07283 10.9869 6.21457 10.6325C6.41714 10.1261 6.83488 9.74519 7.31631 9.4888C8.05887 9.09335 8.70849 8.54639 9.22393 7.88917C9.55568 7.46617 10.0407 7.16895 10.5783 7.16895H10.8341M3.99873 8.16895H5.46667M10.8497 1.66895C10.8567 1.70228 10.868 1.73536 10.8838 1.76748C11.2783 2.567 11.5 3.46709 11.5 4.41895C11.5 5.41011 11.2597 6.34514 10.8341 7.16895M10.8497 1.66895C10.7983 1.42584 10.9717 1.16895 11.2329 1.16895H11.8381C12.4306 1.16895 12.9801 1.51429 13.153 2.08097C13.3786 2.82053 13.5 3.60556 13.5 4.41895C13.5 5.45392 13.3035 6.44299 12.9457 7.35087C12.7423 7.86692 12.2218 8.16895 11.6671 8.16895H10.9653C10.6506 8.16895 10.4685 7.79834 10.6318 7.52944C10.7032 7.41187 10.7707 7.29164 10.8341 7.16895" stroke="#EF4444" stroke-linecap="round" stroke-linejoin="round"/>
</svg>
