<svg xmlns="http://www.w3.org/2000/svg" fill="none" viewBox="0 0 20 20"><path fill="#4F46E5" fill-rule="evenodd" d="M3.28 2.22a.75.75 0 0 0-1.06 1.06l14.5 14.5a.75.75 0 1 0 1.06-1.06l-1.74-1.74a10.03 10.03 0 0 0 3.3-4.38c.14-.38.14-.8 0-1.19A10 10 0 0 0 5.25 4.2L3.28 2.22ZM7.75 6.7l1.1 1.1a2.5 2.5 0 0 1 3.37 3.37l1.09 1.09A4 4 0 0 0 7.75 6.7Z" clip-rule="evenodd"/><path fill="#4F46E5" d="m10.75 13.93 2.52 2.52A9.98 9.98 0 0 1 .67 10.6a1.6 1.6 0 0 1 0-1.18 10 10 0 0 1 2.17-3.39l3.23 3.23A4.02 4.02 0 0 0 10 14c.26 0 .5-.02.75-.07Z"/></svg>