<svg xmlns="http://www.w3.org/2000/svg" xmlns:xlink="http://www.w3.org/1999/xlink" class="bn-svg" viewBox="0 0 24 24">
	<g fill-rule="evenodd" clip-path="url(#a)" clip-rule="evenodd">
		<path fill="#4285f4"
			d="M19.68 12.18q0-.85-.15-1.63H12v3.09h4.3a3.6 3.6 0 0 1-1.6 2.41v2.01h2.6a7.8 7.8 0 0 0 2.38-5.88" />
		<path fill="#34a853"
			d="M12 20c2.16 0 3.97-.72 5.3-1.94l-2.6-2a4.8 4.8 0 0 1-7.18-2.54H4.85v2.07A8 8 0 0 0 12 20" />
		<path fill="#fbbc05" d="M7.52 13.52a4.8 4.8 0 0 1 0-3.04V8.41H4.85a8 8 0 0 0 0 7.18z" />
		<path fill="#ea4335"
			d="M12 7.18c1.17 0 2.23.4 3.06 1.2l2.3-2.3A8 8 0 0 0 4.85 8.4l2.66 2.08c.63-1.9 2.4-3.3 4.48-3.3" />
	</g>
	<defs>
		<clipPath id="a">
			<path fill="none" d="M4 4h16v16H4z" />
		</clipPath>
	</defs>
</svg>
