<svg xmlns="http://www.w3.org/2000/svg" fill="none" viewBox="0 0 12 12"><path fill="color(display-p3 .149 .2078 .3137)" d="M6 5.88c.26 0 .43 0 .58.06.22.09.39.26.48.48.06.16.07.32.07.58v2.75c0 .27 0 .43-.07.59a.88.88 0 0 1-.48.47 1.5 1.5 0 0 1-.58.06c-.26 0-.42 0-.58-.06a.87.87 0 0 1-.48-.47c-.07-.16-.07-.33-.07-.59V7c0-.26 0-.42.07-.58a.88.88 0 0 1 .48-.48c.16-.06.32-.07.58-.07Zm0 .75h-.3a.1.1 0 0 0-.07.07v3.35a.1.1 0 0 0 .07.06 3 3 0 0 0 .6 0 .1.1 0 0 0 .06-.07 2 2 0 0 0 .01-.29V6.7a.1.1 0 0 0-.07-.07H6Zm-3.75-.25Zm7.5-5.25c.2 0 .38.17.38.37V3c0 .2-.18.37-.38.38A.38.38 0 0 1 9.37 3v-.57c-.83.81-2.97 2.58-7 3.93a.37.37 0 0 1-.24-.71c3.9-1.3 5.97-3.03 6.73-3.78h-.61a.38.38 0 0 1-.38-.37c0-.2.17-.38.38-.38h1.5Z"/><path fill="color(display-p3 .149 .2078 .3137)" d="M2.5 7.13c.27 0 .42 0 .58.06.22.09.39.26.48.48.06.16.06.32.06.58v1.5c0 .27 0 .43-.06.59a.88.88 0 0 1-.48.47 1.5 1.5 0 0 1-.58.06c-.27 0-.42 0-.58-.06a.87.87 0 0 1-.48-.47 1.5 1.5 0 0 1-.06-.59v-1.5c0-.26 0-.42.06-.58a.88.88 0 0 1 .48-.48c.16-.06.31-.07.58-.07Zm7-3c.27 0 .42 0 .59.06.21.09.38.26.47.48.06.16.06.32.06.58v4.5c0 .27 0 .43-.06.59a.88.88 0 0 1-.47.47 1.5 1.5 0 0 1-.59.06c-.27 0-.42 0-.58-.06a.87.87 0 0 1-.48-.47 1.5 1.5 0 0 1-.06-.59v-4.5c0-.26 0-.42.06-.58a.88.88 0 0 1 .48-.48c.16-.06.31-.07.58-.07Zm-7 3.75h-.3a.1.1 0 0 0-.07.07v2.1a.1.1 0 0 0 .07.06 3 3 0 0 0 .6 0 .1.1 0 0 0 .07-.07V7.95a.1.1 0 0 0-.07-.07h-.3Zm7-3h-.3a.1.1 0 0 0-.07.07v5.1a.1.1 0 0 0 .07.06 3 3 0 0 0 .6 0 .1.1 0 0 0 .07-.07V4.95a.1.1 0 0 0-.07-.07h-.3Z" opacity=".4"/></svg>