<svg xmlns="http://www.w3.org/2000/svg" fill="none" viewBox="0 0 12 12"><path fill="color(display-p3 .149 .2078 .3137)" d="M6 6.13c.27 0 .43 0 .59.06.21.09.38.26.47.48.07.16.07.32.07.58v2.5c0 .27 0 .43-.07.59a.88.88 0 0 1-.47.47 1.5 1.5 0 0 1-.59.06c-.27 0-.43 0-.59-.07a.85.85 0 0 1-.47-.46 1.5 1.5 0 0 1-.06-.59v-2.5c0-.26 0-.42.06-.58a.88.88 0 0 1 .48-.48c.16-.06.32-.07.58-.07Zm0 .75h-.3a.1.1 0 0 0-.07.07v3.1a.1.1 0 0 0 .07.06 3 3 0 0 0 .6 0 .1.1 0 0 0 .06-.07l.01-.3v-2.8a.1.1 0 0 0-.07-.06L6 6.87Zm0-3.75a1.13 1.13 0 1 1 0 2.25 1.13 1.13 0 0 1 0-2.25Zm0 .75c-.2 0-.38.17-.38.37 0 .2.17.38.38.38.2 0 .38-.17.38-.38 0-.2-.17-.38-.38-.38ZM2.5 2.13a1.13 1.13 0 1 1 0 2.25 1.13 1.13 0 0 1 0-2.25Zm0 .75c-.2 0-.38.17-.38.37 0 .2.17.38.38.38.2 0 .38-.17.38-.38 0-.2-.17-.38-.38-.38Zm7-1.75a1.13 1.13 0 1 1 0 2.25 1.13 1.13 0 0 1 0-2.25Zm0 .75c-.2 0-.38.17-.38.37 0 .2.18.38.38.38s.38-.17.38-.38a.4.4 0 0 0-.38-.38Z"/><path fill="color(display-p3 .149 .2078 .3137)" d="M2.75 5.13c.27 0 .42 0 .58.06.22.09.39.26.48.48.06.16.06.32.06.58v3.5c0 .27 0 .43-.06.59a.88.88 0 0 1-.48.47 1.5 1.5 0 0 1-.58.06c-.27 0-.42 0-.58-.06a.87.87 0 0 1-.48-.47 1.5 1.5 0 0 1-.06-.59v-3.5c0-.26 0-.42.06-.58a.88.88 0 0 1 .48-.48c.16-.06.31-.07.58-.07Zm6.75-1c.27 0 .42 0 .59.06.21.09.38.26.47.48.06.16.06.32.06.58v4.5c0 .27 0 .43-.06.59a.88.88 0 0 1-.47.47 1.5 1.5 0 0 1-.59.06c-.27 0-.42 0-.58-.06a.87.87 0 0 1-.48-.47 1.5 1.5 0 0 1-.06-.59v-4.5c0-.26 0-.42.06-.58a.88.88 0 0 1 .48-.48c.16-.06.31-.07.58-.07ZM2.75 5.88h-.3a.1.1 0 0 0-.07.07v4.1a.1.1 0 0 0 .07.06 3 3 0 0 0 .6 0 .1.1 0 0 0 .07-.07V5.95a.1.1 0 0 0-.07-.07h-.3Zm6.75-1h-.3a.1.1 0 0 0-.07.07v5.1a.1.1 0 0 0 .07.06 3 3 0 0 0 .6 0 .1.1 0 0 0 .07-.07V4.95a.1.1 0 0 0-.07-.07h-.3Zm-4.12-1.2-.2.73-2.06-.6.2-.72 2.06.6Zm3.66-.73-2.2 1.26-.37-.66 2.2-1.25.37.65Z" opacity=".4"/></svg>