<svg width="24" height="24" viewBox="0 0 24 24" fill="none" xmlns="http://www.w3.org/2000/svg">
<path fill-rule="evenodd" clip-rule="evenodd" d="M24 5.3176V18.6824C24 21.6173 21.6172 24 18.6825 24H5.31754C2.38277 24 0 21.6173 0 18.6824V5.3176C0 2.38272 2.38277 0 5.31754 0H18.6825C21.6172 0 24 2.38272 24 5.3176Z" fill="#4F46E5"/>
<path fill-rule="evenodd" clip-rule="evenodd" d="M24 5.3176V18.6824C24 21.6173 21.6172 24 18.6825 24H5.31754C2.38277 24 0 21.6173 0 18.6824V5.3176C0 2.38272 2.38277 0 5.31754 0H18.6825C21.6172 0 24 2.38272 24 5.3176Z" fill="#4F46E5"/>
<mask id="mask0_2366_104333" style="mask-type:alpha" maskUnits="userSpaceOnUse" x="0" y="0" width="24" height="24">
<path fill-rule="evenodd" clip-rule="evenodd" d="M24 5.3176V18.6824C24 21.6173 21.6172 24 18.6825 24H5.31754C2.38277 24 0 21.6173 0 18.6824V5.3176C0 2.38272 2.38277 0 5.31754 0H18.6825C21.6172 0 24 2.38272 24 5.3176Z" fill="#4F46E5"/>
</mask>
<g mask="url(#mask0_2366_104333)">
<path fill-rule="evenodd" clip-rule="evenodd" d="M7.82107 11.1667H11.2247L10.0913 17.5892C12.0574 15.859 14.6992 15.3613 16.7624 16.5525C19.4724 18.1172 20.1582 22.003 18.294 25.2318C16.4299 28.4606 12.7218 29.8097 10.0118 28.245C9.38456 27.8829 8.86577 27.3964 8.46193 26.8225L8.16144 28.5253H4.75781L7.82107 11.1667ZM10.1153 24.8125C11.2596 25.9568 13.2925 25.7792 14.6558 24.4159C16.0191 23.0525 16.1967 21.0197 15.0524 19.8754C13.9081 18.7311 11.8753 18.9087 10.5119 20.272C9.14862 21.6353 8.97105 23.6682 10.1153 24.8125Z" fill="white"/>
</g>
<path fill-rule="evenodd" clip-rule="evenodd" d="M1.60547 3.30576C2.04905 1.97042 3.30892 1.00635 4.79232 1.00635H19.0601C20.5435 1.00635 21.8034 1.97042 22.247 3.30576H1.60547Z" fill="#3730A3"/>
<path d="M16.0332 4.21826C16.3886 4.21826 16.6814 4.50772 16.6318 4.85972C16.4935 5.84168 16.0398 6.75907 15.3306 7.46845C14.4684 8.33041 13.2994 8.81463 12.0804 8.81463C10.8613 8.81463 9.69229 8.33041 8.83018 7.46845C8.12094 6.75907 7.66727 5.84168 7.52894 4.85972C7.47934 4.50772 7.77214 4.21826 8.12748 4.21826C8.48283 4.21826 8.76472 4.50903 8.83338 4.85768C8.95934 5.49739 9.2725 6.0907 9.74029 6.55834C10.3609 7.17899 11.2027 7.52765 12.0804 7.52765C12.958 7.52765 13.7998 7.17899 14.4204 6.55834C14.8882 6.0907 15.2014 5.49739 15.3274 4.85768C15.3962 4.50903 15.6779 4.21826 16.0332 4.21826Z" fill="#FACC15"/>
</svg>
