<svg width="111" height="24" viewBox="0 0 111 24" fill="none" xmlns="http://www.w3.org/2000/svg">
<path fill-rule="evenodd" clip-rule="evenodd" d="M24 5.3176V18.6824C24 21.6173 21.6172 24 18.6825 24H5.31754C2.38277 24 0 21.6173 0 18.6824V5.3176C0 2.38272 2.38277 0 5.31754 0H18.6825C21.6172 0 24 2.38272 24 5.3176Z" fill="#4F46E5"/>
<path fill-rule="evenodd" clip-rule="evenodd" d="M24 5.3176V18.6824C24 21.6173 21.6172 24 18.6825 24H5.31754C2.38277 24 0 21.6173 0 18.6824V5.3176C0 2.38272 2.38277 0 5.31754 0H18.6825C21.6172 0 24 2.38272 24 5.3176Z" fill="#4F46E5"/>
<mask id="mask0_2386_7249" style="mask-type:alpha" maskUnits="userSpaceOnUse" x="0" y="0" width="24" height="24">
<path fill-rule="evenodd" clip-rule="evenodd" d="M24 5.3176V18.6824C24 21.6173 21.6172 24 18.6825 24H5.31754C2.38277 24 0 21.6173 0 18.6824V5.3176C0 2.38272 2.38277 0 5.31754 0H18.6825C21.6172 0 24 2.38272 24 5.3176Z" fill="#4F46E5"/>
</mask>
<g mask="url(#mask0_2386_7249)">
<path fill-rule="evenodd" clip-rule="evenodd" d="M7.82205 11.1667H11.2257L10.0935 17.5825C12.0588 15.8577 14.6964 15.3628 16.7569 16.5525C19.467 18.1172 20.1527 22.003 18.2886 25.2318C16.4244 28.4606 12.7163 29.8097 10.0063 28.245C9.38175 27.8844 8.86471 27.4006 8.46161 26.8299L8.16241 28.5253H4.75879L7.82205 11.1667ZM10.1135 24.8129C11.2577 25.9572 13.2906 25.7796 14.6539 24.4163C16.0172 23.0529 16.1948 21.0201 15.0505 19.8758C13.9062 18.7315 11.8734 18.9091 10.5101 20.2724C9.14672 21.6357 8.96916 23.6686 10.1135 24.8129Z" fill="white"/>
</g>
<path fill-rule="evenodd" clip-rule="evenodd" d="M1.60742 3.3054C2.051 1.97005 3.31087 1.00598 4.79428 1.00598H19.0621C20.5455 1.00598 21.8054 1.97005 22.249 3.3054H1.60742Z" fill="#3730A3"/>
<path d="M16.0381 4.21814C16.3935 4.21814 16.6863 4.50759 16.6367 4.8596C16.4983 5.84156 16.0447 6.75894 15.3354 7.46833C14.4733 8.33029 13.3043 8.81451 12.0852 8.81451C10.8662 8.81451 9.69717 8.33029 8.83506 7.46833C8.12582 6.75894 7.67215 5.84156 7.53382 4.8596C7.48422 4.50759 7.77702 4.21814 8.13237 4.21814C8.48771 4.21814 8.7696 4.5089 8.83826 4.85756C8.96422 5.49727 9.27739 6.09058 9.74517 6.55822C10.3658 7.17887 11.2076 7.52753 12.0852 7.52753C12.9629 7.52753 13.8047 7.17887 14.4253 6.55822C14.8931 6.09058 15.2063 5.49727 15.3322 4.85756C15.401 4.5089 15.6828 4.21814 16.0381 4.21814Z" fill="#FACC15"/>
<mask id="path-7-outside-1_2386_7249" maskUnits="userSpaceOnUse" x="29" y="3.8728" width="81" height="19" fill="black">
<rect fill="white" x="29" y="3.8728" width="81" height="19"/>
<path d="M34.439 18.0351C33.8258 18.0351 33.2306 17.9089 32.6534 17.6564C32.0762 17.4039 31.6373 17.0852 31.3367 16.7004V17.8728H29.5331V4.52585H31.3367V9.81052C31.6133 9.4017 32.0341 9.07103 32.5993 8.81852C33.1765 8.55399 33.7897 8.42172 34.439 8.42172C35.7256 8.42172 36.8018 8.87864 37.6675 9.79249C38.5333 10.6943 38.9661 11.8366 38.9661 13.2194C38.9661 14.6864 38.5333 15.8587 37.6675 16.7365C36.8138 17.6023 35.7376 18.0351 34.439 18.0351ZM31.3007 13.2194C31.3007 14.1092 31.5652 14.8607 32.0943 15.474C32.6354 16.0752 33.3448 16.3758 34.2226 16.3758C35.1003 16.3758 35.8038 16.0752 36.3328 15.474C36.8739 14.8607 37.1445 14.1092 37.1445 13.2194C37.1445 12.3416 36.8739 11.6021 36.3328 11.0009C35.8038 10.3997 35.1003 10.0991 34.2226 10.0991C33.3448 10.0991 32.6354 10.3997 32.0943 11.0009C31.5652 11.6021 31.3007 12.3416 31.3007 13.2194ZM44.6375 18.0351C43.5793 18.0351 42.7136 17.6985 42.0402 17.0251C41.3789 16.3397 41.0482 15.486 41.0482 14.4639V8.58405H42.8519V14.0671C42.8519 14.7645 43.0563 15.3176 43.4651 15.7265C43.8739 16.1353 44.391 16.3397 45.0162 16.3397C45.6535 16.3397 46.1766 16.1293 46.5854 15.7084C47.0063 15.2876 47.2167 14.7405 47.2167 14.0671V8.58405H49.0203V16.0151L49.6696 17.8728H47.7397L47.379 16.8988C47.1505 17.2115 46.7958 17.482 46.3149 17.7105C45.8459 17.9269 45.2868 18.0351 44.6375 18.0351ZM52.9461 22.0031L54.7497 17.8007L50.8178 8.58405H52.8378L55.7597 15.7084L58.5554 8.58405H60.6296L54.9661 22.0031H52.9461ZM62.5059 17.8728V4.52585H64.3096V9.73838C64.8867 8.86061 65.7885 8.42172 67.015 8.42172C68.0371 8.42172 68.8668 8.7584 69.504 9.43176C70.1534 10.1051 70.478 10.9468 70.478 11.9569V17.8728H68.6744V12.3897C68.6744 11.6923 68.47 11.1392 68.0611 10.7304C67.6523 10.3216 67.1293 10.1171 66.492 10.1171C65.8667 10.1171 65.3436 10.3276 64.9228 10.7484C64.514 11.1693 64.3096 11.7164 64.3096 12.3897V17.8728H62.5059ZM77.0895 18.0351C75.7788 18.0351 74.6906 17.6023 73.8249 16.7365C72.9712 15.8587 72.5443 14.6864 72.5443 13.2194C72.5443 11.8366 72.9772 10.6943 73.8429 9.79249C74.7087 8.87864 75.7909 8.42172 77.0895 8.42172C77.7268 8.42172 78.328 8.55399 78.8931 8.81852C79.4703 9.08306 79.8972 9.41372 80.1737 9.81052V8.58405H81.9774V17.8728H80.1737V16.7004C79.8851 17.0852 79.4523 17.4039 78.8751 17.6564C78.2979 17.9089 77.7027 18.0351 77.0895 18.0351ZM74.366 13.2194C74.366 14.1092 74.6305 14.8607 75.1596 15.474C75.7007 16.0752 76.4101 16.3758 77.2879 16.3758C78.1657 16.3758 78.8691 16.0752 79.3982 15.474C79.9392 14.8607 80.2098 14.1092 80.2098 13.2194C80.2098 12.3416 79.9392 11.6021 79.3982 11.0009C78.8691 10.3997 78.1657 10.0991 77.2879 10.0991C76.4101 10.0991 75.7007 10.3997 75.1596 11.0009C74.6305 11.6021 74.366 12.3416 74.366 13.2194ZM85.4709 17.8728V10.1713H83.8116V8.58405H85.525V6.1852H87.2746V8.58405H89.6734V10.1713H87.2746V16.1774H89.7095V17.8728H85.4709ZM92.0793 17.8728V4.52585H93.8829V11.7404H95.3619L97.7788 8.58405H99.9251L96.8229 12.6783L100.015 17.8728H97.9051L95.1635 13.4719H93.8829V17.8728H92.0793ZM105.222 18.0351C103.816 18.0351 102.679 17.5782 101.813 16.6644C100.948 15.7505 100.515 14.6082 100.515 13.2374C100.515 11.8547 100.948 10.7063 101.813 9.79249C102.679 8.87864 103.81 8.42172 105.204 8.42172C106.527 8.42172 107.597 8.87263 108.415 9.77445C109.232 10.6642 109.641 11.7464 109.641 13.021V13.8687H102.337C102.445 14.7104 102.757 15.3477 103.274 15.7806C103.803 16.2014 104.453 16.4119 105.222 16.4119C105.908 16.4119 106.491 16.2435 106.972 15.9068C107.465 15.5581 107.79 15.1553 107.946 14.6984L109.335 15.4379C109.082 16.0872 108.607 16.6824 107.91 17.2235C107.212 17.7646 106.317 18.0351 105.222 18.0351ZM102.391 12.3537H107.765C107.753 11.7404 107.507 11.1993 107.026 10.7304C106.557 10.2494 105.944 10.0089 105.186 10.0089C104.477 10.0089 103.87 10.2133 103.365 10.6222C102.86 11.031 102.535 11.6082 102.391 12.3537Z"/>
</mask>
<path d="M34.439 18.0351C33.8258 18.0351 33.2306 17.9089 32.6534 17.6564C32.0762 17.4039 31.6373 17.0852 31.3367 16.7004V17.8728H29.5331V4.52585H31.3367V9.81052C31.6133 9.4017 32.0341 9.07103 32.5993 8.81852C33.1765 8.55399 33.7897 8.42172 34.439 8.42172C35.7256 8.42172 36.8018 8.87864 37.6675 9.79249C38.5333 10.6943 38.9661 11.8366 38.9661 13.2194C38.9661 14.6864 38.5333 15.8587 37.6675 16.7365C36.8138 17.6023 35.7376 18.0351 34.439 18.0351ZM31.3007 13.2194C31.3007 14.1092 31.5652 14.8607 32.0943 15.474C32.6354 16.0752 33.3448 16.3758 34.2226 16.3758C35.1003 16.3758 35.8038 16.0752 36.3328 15.474C36.8739 14.8607 37.1445 14.1092 37.1445 13.2194C37.1445 12.3416 36.8739 11.6021 36.3328 11.0009C35.8038 10.3997 35.1003 10.0991 34.2226 10.0991C33.3448 10.0991 32.6354 10.3997 32.0943 11.0009C31.5652 11.6021 31.3007 12.3416 31.3007 13.2194ZM44.6375 18.0351C43.5793 18.0351 42.7136 17.6985 42.0402 17.0251C41.3789 16.3397 41.0482 15.486 41.0482 14.4639V8.58405H42.8519V14.0671C42.8519 14.7645 43.0563 15.3176 43.4651 15.7265C43.8739 16.1353 44.391 16.3397 45.0162 16.3397C45.6535 16.3397 46.1766 16.1293 46.5854 15.7084C47.0063 15.2876 47.2167 14.7405 47.2167 14.0671V8.58405H49.0203V16.0151L49.6696 17.8728H47.7397L47.379 16.8988C47.1505 17.2115 46.7958 17.482 46.3149 17.7105C45.8459 17.9269 45.2868 18.0351 44.6375 18.0351ZM52.9461 22.0031L54.7497 17.8007L50.8178 8.58405H52.8378L55.7597 15.7084L58.5554 8.58405H60.6296L54.9661 22.0031H52.9461ZM62.5059 17.8728V4.52585H64.3096V9.73838C64.8867 8.86061 65.7885 8.42172 67.015 8.42172C68.0371 8.42172 68.8668 8.7584 69.504 9.43176C70.1534 10.1051 70.478 10.9468 70.478 11.9569V17.8728H68.6744V12.3897C68.6744 11.6923 68.47 11.1392 68.0611 10.7304C67.6523 10.3216 67.1293 10.1171 66.492 10.1171C65.8667 10.1171 65.3436 10.3276 64.9228 10.7484C64.514 11.1693 64.3096 11.7164 64.3096 12.3897V17.8728H62.5059ZM77.0895 18.0351C75.7788 18.0351 74.6906 17.6023 73.8249 16.7365C72.9712 15.8587 72.5443 14.6864 72.5443 13.2194C72.5443 11.8366 72.9772 10.6943 73.8429 9.79249C74.7087 8.87864 75.7909 8.42172 77.0895 8.42172C77.7268 8.42172 78.328 8.55399 78.8931 8.81852C79.4703 9.08306 79.8972 9.41372 80.1737 9.81052V8.58405H81.9774V17.8728H80.1737V16.7004C79.8851 17.0852 79.4523 17.4039 78.8751 17.6564C78.2979 17.9089 77.7027 18.0351 77.0895 18.0351ZM74.366 13.2194C74.366 14.1092 74.6305 14.8607 75.1596 15.474C75.7007 16.0752 76.4101 16.3758 77.2879 16.3758C78.1657 16.3758 78.8691 16.0752 79.3982 15.474C79.9392 14.8607 80.2098 14.1092 80.2098 13.2194C80.2098 12.3416 79.9392 11.6021 79.3982 11.0009C78.8691 10.3997 78.1657 10.0991 77.2879 10.0991C76.4101 10.0991 75.7007 10.3997 75.1596 11.0009C74.6305 11.6021 74.366 12.3416 74.366 13.2194ZM85.4709 17.8728V10.1713H83.8116V8.58405H85.525V6.1852H87.2746V8.58405H89.6734V10.1713H87.2746V16.1774H89.7095V17.8728H85.4709ZM92.0793 17.8728V4.52585H93.8829V11.7404H95.3619L97.7788 8.58405H99.9251L96.8229 12.6783L100.015 17.8728H97.9051L95.1635 13.4719H93.8829V17.8728H92.0793ZM105.222 18.0351C103.816 18.0351 102.679 17.5782 101.813 16.6644C100.948 15.7505 100.515 14.6082 100.515 13.2374C100.515 11.8547 100.948 10.7063 101.813 9.79249C102.679 8.87864 103.81 8.42172 105.204 8.42172C106.527 8.42172 107.597 8.87263 108.415 9.77445C109.232 10.6642 109.641 11.7464 109.641 13.021V13.8687H102.337C102.445 14.7104 102.757 15.3477 103.274 15.7806C103.803 16.2014 104.453 16.4119 105.222 16.4119C105.908 16.4119 106.491 16.2435 106.972 15.9068C107.465 15.5581 107.79 15.1553 107.946 14.6984L109.335 15.4379C109.082 16.0872 108.607 16.6824 107.91 17.2235C107.212 17.7646 106.317 18.0351 105.222 18.0351ZM102.391 12.3537H107.765C107.753 11.7404 107.507 11.1993 107.026 10.7304C106.557 10.2494 105.944 10.0089 105.186 10.0089C104.477 10.0089 103.87 10.2133 103.365 10.6222C102.86 11.031 102.535 11.6082 102.391 12.3537Z" fill="#4F46E5"/>
<path d="M32.6534 17.6564L32.77 17.3898L32.6534 17.6564ZM31.3367 16.7004L31.566 16.5213L31.0458 15.8555V16.7004H31.3367ZM31.3367 17.8728V18.1637H31.6276V17.8728H31.3367ZM29.5331 17.8728H29.2422V18.1637H29.5331V17.8728ZM29.5331 4.52585V4.23494H29.2422V4.52585H29.5331ZM31.3367 4.52585H31.6276V4.23494H31.3367V4.52585ZM31.3367 9.81052H31.0458V10.7598L31.5777 9.97352L31.3367 9.81052ZM32.5993 8.81852L32.718 9.08414L32.7205 9.08298L32.5993 8.81852ZM37.6675 9.79249L37.4563 9.99256L37.4577 9.99395L37.6675 9.79249ZM37.6675 16.7365L37.4604 16.5322L37.4604 16.5322L37.6675 16.7365ZM32.0943 15.474L31.874 15.664L31.878 15.6686L32.0943 15.474ZM36.3328 15.474L36.1147 15.2815L36.1144 15.2818L36.3328 15.474ZM36.3328 11.0009L36.1144 11.1931L36.1166 11.1955L36.3328 11.0009ZM32.0943 11.0009L31.878 10.8063L31.8759 10.8087L32.0943 11.0009ZM34.439 17.7442C33.867 17.7442 33.3114 17.6267 32.77 17.3898L32.5368 17.9229C33.1497 18.191 33.7845 18.326 34.439 18.326V17.7442ZM32.77 17.3898C32.2246 17.1512 31.8295 16.8586 31.566 16.5213L31.1075 16.8795C31.4452 17.3118 31.9279 17.6565 32.5368 17.9229L32.77 17.3898ZM31.0458 16.7004V17.8728H31.6276V16.7004H31.0458ZM31.3367 17.5819H29.5331V18.1637H31.3367V17.5819ZM29.824 17.8728V4.52585H29.2422V17.8728H29.824ZM29.5331 4.81676H31.3367V4.23494H29.5331V4.81676ZM31.0458 4.52585V9.81052H31.6276V4.52585H31.0458ZM31.5777 9.97352C31.817 9.61977 32.1898 9.32009 32.718 9.08412L32.4806 8.55292C31.8784 8.82197 31.4096 9.18363 31.0958 9.64752L31.5777 9.97352ZM32.7205 9.08298C33.2588 8.83628 33.8305 8.71263 34.439 8.71263V8.13081C33.7488 8.13081 33.0942 8.2717 32.4781 8.55406L32.7205 9.08298ZM34.439 8.71263C35.6477 8.71263 36.6469 9.13813 37.4563 9.99256L37.8787 9.59242C36.9567 8.61915 35.8035 8.13081 34.439 8.13081V8.71263ZM37.4577 9.99395C38.2657 10.8356 38.6752 11.903 38.6752 13.2194H39.2571C39.2571 11.7702 38.8009 10.553 37.8774 9.59102L37.4577 9.99395ZM38.6752 13.2194C38.6752 14.6255 38.2625 15.719 37.4604 16.5322L37.8746 16.9408C38.8041 15.9984 39.2571 14.7473 39.2571 13.2194H38.6752ZM37.4604 16.5322C36.6653 17.3385 35.6656 17.7442 34.439 17.7442V18.326C35.8096 18.326 36.9623 17.866 37.8747 16.9408L37.4604 16.5322ZM31.0098 13.2194C31.0098 14.1716 31.2948 14.9926 31.874 15.664L32.3145 15.2839C31.8356 14.7289 31.5916 14.0468 31.5916 13.2194H31.0098ZM31.878 15.6686C32.4794 16.3367 33.2702 16.6667 34.2226 16.6667V16.0849C33.4194 16.0849 32.7914 15.8136 32.3105 15.2794L31.878 15.6686ZM34.2226 16.6667C35.1749 16.6667 35.9612 16.3366 36.5512 15.6661L36.1144 15.2818C35.6463 15.8138 35.0258 16.0849 34.2226 16.0849V16.6667ZM36.551 15.6664C37.1432 14.9952 37.4354 14.1733 37.4354 13.2194H36.8536C36.8536 14.0451 36.6046 14.7262 36.1147 15.2815L36.551 15.6664ZM37.4354 13.2194C37.4354 12.2764 37.1425 11.4657 36.5491 10.8063L36.1166 11.1955C36.6053 11.7386 36.8536 12.4069 36.8536 13.2194H37.4354ZM36.5512 10.8087C35.9612 10.1383 35.1749 9.8082 34.2226 9.8082V10.39C35.0258 10.39 35.6463 10.6611 36.1144 11.1931L36.5512 10.8087ZM34.2226 9.8082C33.2702 9.8082 32.4794 10.1382 31.878 10.8063L32.3105 11.1955C32.7914 10.6612 33.4194 10.39 34.2226 10.39V9.8082ZM31.8759 10.8087C31.2954 11.4683 31.0098 12.2782 31.0098 13.2194H31.5916C31.5916 12.4051 31.835 11.736 32.3127 11.1931L31.8759 10.8087ZM42.0402 17.0251L41.8308 17.2271L41.8345 17.2308L42.0402 17.0251ZM41.0482 8.58405V8.29314H40.7573V8.58405H41.0482ZM42.8519 8.58405H43.1428V8.29314H42.8519V8.58405ZM43.4651 15.7265L43.2594 15.9322L43.4651 15.7265ZM46.5854 15.7084L46.3797 15.5027L46.3767 15.5057L46.5854 15.7084ZM47.2167 8.58405V8.29314H46.9258V8.58405H47.2167ZM49.0203 8.58405H49.3112V8.29314H49.0203V8.58405ZM49.0203 16.0151H48.7294V16.0644L48.7457 16.111L49.0203 16.0151ZM49.6696 17.8728V18.1637H50.0795L49.9442 17.7768L49.6696 17.8728ZM47.7397 17.8728L47.4669 17.9738L47.5373 18.1637H47.7397V17.8728ZM47.379 16.8988L47.6518 16.7978L47.4637 16.2899L47.1441 16.7272L47.379 16.8988ZM46.3149 17.7105L46.4368 17.9746L46.4397 17.9732L46.3149 17.7105ZM44.6375 17.7442C43.6471 17.7442 42.8584 17.4319 42.2459 16.8194L41.8345 17.2308C42.5687 17.965 43.5116 18.326 44.6375 18.326V17.7442ZM42.2496 16.8231C41.6446 16.1961 41.3391 15.4167 41.3391 14.4639H40.7573C40.7573 15.5553 41.1132 16.4833 41.8309 17.2271L42.2496 16.8231ZM41.3391 14.4639V8.58405H40.7573V14.4639H41.3391ZM41.0482 8.87496H42.8519V8.29314H41.0482V8.87496ZM42.561 8.58405V14.0671H43.1428V8.58405H42.561ZM42.561 14.0671C42.561 14.8247 42.7851 15.4578 43.2594 15.9322L43.6708 15.5208C43.3275 15.1774 43.1428 14.7044 43.1428 14.0671H42.561ZM43.2594 15.9322C43.7275 16.4003 44.3208 16.6306 45.0162 16.6306V16.0488C44.4612 16.0488 44.0204 15.8703 43.6708 15.5208L43.2594 15.9322ZM45.0162 16.6306C45.7246 16.6306 46.3254 16.3935 46.7941 15.9111L46.3767 15.5057C46.0277 15.865 45.5824 16.0488 45.0162 16.0488V16.6306ZM46.7911 15.9141C47.2739 15.4314 47.5076 14.8066 47.5076 14.0671H46.9258C46.9258 14.6744 46.7386 15.1438 46.3797 15.5027L46.7911 15.9141ZM47.5076 14.0671V8.58405H46.9258V14.0671H47.5076ZM47.2167 8.87496H49.0203V8.29314H47.2167V8.87496ZM48.7294 8.58405V16.0151H49.3112V8.58405H48.7294ZM48.7457 16.111L49.395 17.9688L49.9442 17.7768L49.2949 15.9191L48.7457 16.111ZM49.6696 17.5819H47.7397V18.1637H49.6696V17.5819ZM48.0125 17.7718L47.6518 16.7978L47.1062 16.9999L47.4669 17.9738L48.0125 17.7718ZM47.1441 16.7272C46.9529 16.9889 46.6429 17.2326 46.19 17.4477L46.4397 17.9732C46.9487 17.7314 47.3482 17.4341 47.6139 17.0705L47.1441 16.7272ZM46.1929 17.4463C45.7707 17.6412 45.2552 17.7442 44.6375 17.7442V18.326C45.3184 18.326 45.9211 18.2126 46.4368 17.9746L46.1929 17.4463ZM52.9461 22.0031L52.6787 21.8884L52.5046 22.2941H52.9461V22.0031ZM54.7497 17.8007L55.017 17.9154L55.0661 17.801L55.0173 17.6865L54.7497 17.8007ZM50.8178 8.58405V8.29314H50.3774L50.5502 8.6982L50.8178 8.58405ZM52.8378 8.58405L53.107 8.47366L53.033 8.29314H52.8378V8.58405ZM55.7597 15.7084L55.4906 15.8188L55.7657 16.4896L56.0305 15.8147L55.7597 15.7084ZM58.5554 8.58405V8.29314H58.357L58.2846 8.47778L58.5554 8.58405ZM60.6296 8.58405L60.8976 8.69716L61.0681 8.29314H60.6296V8.58405ZM54.9661 22.0031V22.2941H55.1591L55.2342 22.1163L54.9661 22.0031ZM53.2134 22.1179L55.017 17.9154L54.4824 17.6859L52.6787 21.8884L53.2134 22.1179ZM55.0173 17.6865L51.0853 8.46989L50.5502 8.6982L54.4821 17.9148L55.0173 17.6865ZM50.8178 8.87496H52.8378V8.29314H50.8178V8.87496ZM52.5687 8.69443L55.4906 15.8188L56.0289 15.598L53.107 8.47366L52.5687 8.69443ZM56.0305 15.8147L58.8262 8.69031L58.2846 8.47778L55.4889 15.6022L56.0305 15.8147ZM58.5554 8.87496H60.6296V8.29314H58.5554V8.87496ZM60.3616 8.47093L54.6981 21.89L55.2342 22.1163L60.8976 8.69716L60.3616 8.47093ZM54.9661 21.7122H52.9461V22.2941H54.9661V21.7122ZM62.5059 17.8728H62.215V18.1637H62.5059V17.8728ZM62.5059 4.52585V4.23494H62.215V4.52585H62.5059ZM64.3096 4.52585H64.6005V4.23494H64.3096V4.52585ZM64.3096 9.73838H64.0187V10.7103L64.5526 9.89821L64.3096 9.73838ZM69.5041 9.43176L69.2928 9.63173L69.2946 9.63369L69.5041 9.43176ZM70.478 17.8728V18.1637H70.7689V17.8728H70.478ZM68.6744 17.8728H68.3835V18.1637H68.6744V17.8728ZM64.9228 10.7484L64.7171 10.5427L64.7141 10.5457L64.9228 10.7484ZM64.3096 17.8728V18.1637H64.6005V17.8728H64.3096ZM62.7968 17.8728V4.52585H62.215V17.8728H62.7968ZM62.5059 4.81676H64.3096V4.23494H62.5059V4.81676ZM64.0187 4.52585V9.73838H64.6005V4.52585H64.0187ZM64.5526 9.89821C65.0663 9.11699 65.8674 8.71263 67.015 8.71263V8.13081C65.7097 8.13081 64.7071 8.60422 64.0665 9.57855L64.5526 9.89821ZM67.015 8.71263C67.9662 8.71263 68.7164 9.02269 69.2928 9.63173L69.7153 9.23179C69.0172 8.49411 68.108 8.13081 67.015 8.13081V8.71263ZM69.2946 9.63369C69.8873 10.2483 70.1871 11.0155 70.1871 11.9569H70.7689C70.7689 10.8781 70.4195 9.96198 69.7135 9.22983L69.2946 9.63369ZM70.1871 11.9569V17.8728H70.7689V11.9569H70.1871ZM70.478 17.5819H68.6744V18.1637H70.478V17.5819ZM68.9653 17.8728V12.3897H68.3835V17.8728H68.9653ZM68.9653 12.3897C68.9653 11.6322 68.7412 10.999 68.2668 10.5247L67.8554 10.9361C68.1987 11.2794 68.3835 11.7525 68.3835 12.3897H68.9653ZM68.2668 10.5247C67.7976 10.0555 67.1977 9.82623 66.492 9.82623V10.4081C67.0608 10.4081 67.507 10.5877 67.8554 10.9361L68.2668 10.5247ZM66.492 9.82623C65.7939 9.82623 65.1955 10.0643 64.7171 10.5427L65.1285 10.9541C65.4918 10.5908 65.9395 10.4081 66.492 10.4081V9.82623ZM64.7141 10.5457C64.2447 11.0289 64.0187 11.6528 64.0187 12.3897H64.6005C64.6005 11.78 64.7832 11.3096 65.1315 10.9511L64.7141 10.5457ZM64.0187 12.3897V17.8728H64.6005V12.3897H64.0187ZM64.3096 17.5819H62.5059V18.1637H64.3096V17.5819ZM73.8249 16.7365L73.6163 16.9394L73.6192 16.9422L73.8249 16.7365ZM73.8429 9.79249L74.0528 9.99396L74.0541 9.99256L73.8429 9.79249ZM78.8931 8.81852L78.7698 9.082L78.7719 9.08298L78.8931 8.81852ZM80.1737 9.81052L79.9351 9.97686L80.4646 10.7367V9.81052H80.1737ZM80.1737 8.58405V8.29314H79.8828V8.58405H80.1737ZM81.9774 8.58405H82.2683V8.29314H81.9774V8.58405ZM81.9774 17.8728V18.1637H82.2683V17.8728H81.9774ZM80.1737 17.8728H79.8828V18.1637H80.1737V17.8728ZM80.1737 16.7004H80.4646V15.8277L79.941 16.5259L80.1737 16.7004ZM78.8751 17.6564L78.9917 17.9229L78.8751 17.6564ZM75.1596 15.474L74.9393 15.664L74.9434 15.6686L75.1596 15.474ZM79.3982 15.474L79.18 15.2815L79.1798 15.2818L79.3982 15.474ZM79.3982 11.0009L79.1797 11.1931L79.1819 11.1955L79.3982 11.0009ZM75.1596 11.0009L74.9433 10.8063L74.9412 10.8087L75.1596 11.0009ZM77.0895 17.7442C75.85 17.7442 74.8377 17.3379 74.0306 16.5308L73.6192 16.9422C74.5436 17.8666 75.7077 18.326 77.0895 18.326V17.7442ZM74.0334 16.5337C73.2427 15.7207 72.8352 14.6266 72.8352 13.2194H72.2534C72.2534 14.7461 72.6996 15.9968 73.6164 16.9393L74.0334 16.5337ZM72.8352 13.2194C72.8352 11.903 73.2448 10.8356 74.0528 9.99395L73.6331 9.59102C72.7096 10.553 72.2534 11.7702 72.2534 13.2194H72.8352ZM74.0541 9.99256C74.863 9.13874 75.8679 8.71263 77.0895 8.71263V8.13081C75.7138 8.13081 74.5544 8.61854 73.6317 9.59242L74.0541 9.99256ZM77.0895 8.71263C77.6851 8.71263 78.2441 8.83592 78.7698 9.082L79.0165 8.55505C78.4119 8.27205 77.7685 8.13081 77.0895 8.13081V8.71263ZM78.7719 9.08298C79.3163 9.33246 79.6961 9.63399 79.9351 9.97686L80.4124 9.64418C80.0982 9.19345 79.6243 8.83365 79.0143 8.55406L78.7719 9.08298ZM80.4646 9.81052V8.58405H79.8828V9.81052H80.4646ZM80.1737 8.87496H81.9774V8.29314H80.1737V8.87496ZM81.6865 8.58405V17.8728H82.2683V8.58405H81.6865ZM81.9774 17.5819H80.1737V18.1637H81.9774V17.5819ZM80.4646 17.8728V16.7004H79.8828V17.8728H80.4646ZM79.941 16.5259C79.6905 16.8599 79.3035 17.1514 78.7585 17.3898L78.9917 17.9229C79.601 17.6563 80.0798 17.3105 80.4064 16.875L79.941 16.5259ZM78.7585 17.3898C78.2171 17.6267 77.6615 17.7442 77.0895 17.7442V18.326C77.744 18.326 78.3788 18.191 78.9917 17.9229L78.7585 17.3898ZM74.0751 13.2194C74.0751 14.1716 74.3601 14.9926 74.9393 15.664L75.3799 15.2839C74.901 14.7289 74.6569 14.0468 74.6569 13.2194H74.0751ZM74.9434 15.6686C75.5447 16.3367 76.3355 16.6667 77.2879 16.6667V16.0849C76.4847 16.0849 75.8567 15.8136 75.3758 15.2794L74.9434 15.6686ZM77.2879 16.6667C78.2402 16.6667 79.0266 16.3366 79.6165 15.6661L79.1798 15.2818C78.7116 15.8138 78.0911 16.0849 77.2879 16.0849V16.6667ZM79.6163 15.6664C80.2086 14.9952 80.5007 14.1733 80.5007 13.2194H79.9189C79.9189 14.0451 79.6699 14.7262 79.18 15.2815L79.6163 15.6664ZM80.5007 13.2194C80.5007 12.2764 80.2078 11.4657 79.6144 10.8063L79.1819 11.1955C79.6707 11.7386 79.9189 12.4069 79.9189 13.2194H80.5007ZM79.6165 10.8087C79.0266 10.1383 78.2402 9.8082 77.2879 9.8082V10.39C78.0911 10.39 78.7116 10.6611 79.1798 11.1931L79.6165 10.8087ZM77.2879 9.8082C76.3355 9.8082 75.5447 10.1382 74.9434 10.8063L75.3758 11.1955C75.8567 10.6612 76.4847 10.39 77.2879 10.39V9.8082ZM74.9412 10.8087C74.3608 11.4683 74.0751 12.2782 74.0751 13.2194H74.6569C74.6569 12.4051 74.9003 11.736 75.378 11.1931L74.9412 10.8087ZM85.4709 17.8728H85.18V18.1637H85.4709V17.8728ZM85.4709 10.1713H85.7618V9.88034H85.4709V10.1713ZM83.8116 10.1713H83.5207V10.4622H83.8116V10.1713ZM83.8116 8.58405V8.29314H83.5207V8.58405H83.8116ZM85.525 8.58405V8.87496H85.8159V8.58405H85.525ZM85.525 6.1852V5.89429H85.2341V6.1852H85.525ZM87.2746 6.1852H87.5655V5.89429H87.2746V6.1852ZM87.2746 8.58405H86.9837V8.87496H87.2746V8.58405ZM89.6734 8.58405H89.9643V8.29314H89.6734V8.58405ZM89.6734 10.1713V10.4622H89.9643V10.1713H89.6734ZM87.2746 10.1713V9.88034H86.9837V10.1713H87.2746ZM87.2746 16.1774H86.9837V16.4683H87.2746V16.1774ZM89.7095 16.1774H90.0004V15.8865H89.7095V16.1774ZM89.7095 17.8728V18.1637H90.0004V17.8728H89.7095ZM85.7618 17.8728V10.1713H85.18V17.8728H85.7618ZM85.4709 9.88034H83.8116V10.4622H85.4709V9.88034ZM84.1025 10.1713V8.58405H83.5207V10.1713H84.1025ZM83.8116 8.87496H85.525V8.29314H83.8116V8.87496ZM85.8159 8.58405V6.1852H85.2341V8.58405H85.8159ZM85.525 6.47611H87.2746V5.89429H85.525V6.47611ZM86.9837 6.1852V8.58405H87.5655V6.1852H86.9837ZM87.2746 8.87496H89.6734V8.29314H87.2746V8.87496ZM89.3825 8.58405V10.1713H89.9643V8.58405H89.3825ZM89.6734 9.88034H87.2746V10.4622H89.6734V9.88034ZM86.9837 10.1713V16.1774H87.5655V10.1713H86.9837ZM87.2746 16.4683H89.7095V15.8865H87.2746V16.4683ZM89.4186 16.1774V17.8728H90.0004V16.1774H89.4186ZM89.7095 17.5819H85.4709V18.1637H89.7095V17.5819ZM92.0793 17.8728H91.7884V18.1637H92.0793V17.8728ZM92.0793 4.52585V4.23494H91.7884V4.52585H92.0793ZM93.8829 4.52585H94.1739V4.23494H93.8829V4.52585ZM93.8829 11.7404H93.592V12.0313H93.8829V11.7404ZM95.3619 11.7404V12.0313H95.5056L95.5929 11.9173L95.3619 11.7404ZM97.7788 8.58405V8.29314H97.6352L97.5478 8.40719L97.7788 8.58405ZM99.9251 8.58405L100.157 8.75974L100.511 8.29314H99.9251V8.58405ZM96.8229 12.6783L96.591 12.5026L96.4709 12.6612L96.575 12.8306L96.8229 12.6783ZM100.015 17.8728V18.1637H100.536L100.263 17.7205L100.015 17.8728ZM97.9051 17.8728L97.6581 18.0266L97.7435 18.1637H97.9051V17.8728ZM95.1635 13.4719L95.4104 13.3181L95.3251 13.181H95.1635V13.4719ZM93.8829 13.4719V13.181H93.592V13.4719H93.8829ZM93.8829 17.8728V18.1637H94.1739V17.8728H93.8829ZM92.3702 17.8728V4.52585H91.7884V17.8728H92.3702ZM92.0793 4.81676H93.8829V4.23494H92.0793V4.81676ZM93.592 4.52585V11.7404H94.1739V4.52585H93.592ZM93.8829 12.0313H95.3619V11.4495H93.8829V12.0313ZM95.5929 11.9173L98.0098 8.76091L97.5478 8.40719L95.131 11.5636L95.5929 11.9173ZM97.7788 8.87496H99.9251V8.29314H97.7788V8.87496ZM99.6933 8.40836L96.591 12.5026L97.0547 12.854L100.157 8.75974L99.6933 8.40836ZM96.575 12.8306L99.7675 18.0251L100.263 17.7205L97.0707 12.526L96.575 12.8306ZM100.015 17.5819H97.9051V18.1637H100.015V17.5819ZM98.152 17.719L95.4104 13.3181L94.9166 13.6257L97.6581 18.0266L98.152 17.719ZM95.1635 13.181H93.8829V13.7628H95.1635V13.181ZM93.592 13.4719V17.8728H94.1739V13.4719H93.592ZM93.8829 17.5819H92.0793V18.1637H93.8829V17.5819ZM101.813 16.6644L101.602 16.8644L101.813 16.6644ZM101.813 9.79249L102.025 9.99256L101.813 9.79249ZM108.415 9.77445L108.199 9.96986L108.201 9.97129L108.415 9.77445ZM109.641 13.8687V14.1596H109.932V13.8687H109.641ZM102.337 13.8687V13.5778H102.006L102.048 13.9058L102.337 13.8687ZM103.274 15.7806L103.088 16.0037L103.093 16.0082L103.274 15.7806ZM106.972 15.9068L107.139 16.1452L107.14 16.1443L106.972 15.9068ZM107.946 14.6984L108.083 14.4416L107.781 14.2811L107.671 14.6042L107.946 14.6984ZM109.335 15.4379L109.606 15.5433L109.699 15.3025L109.471 15.1811L109.335 15.4379ZM107.91 17.2235L107.731 16.9936L107.91 17.2235ZM102.391 12.3537L102.105 12.2984L102.038 12.6446H102.391V12.3537ZM107.765 12.3537V12.6446H108.062L108.056 12.348L107.765 12.3537ZM107.026 10.7304L106.818 10.9335L106.823 10.9387L107.026 10.7304ZM103.365 10.6222L103.548 10.8483L103.365 10.6222ZM105.222 17.7442C103.885 17.7442 102.829 17.313 102.025 16.4643L101.602 16.8644C102.53 17.8434 103.746 18.326 105.222 18.326V17.7442ZM102.025 16.4643C101.215 15.6095 100.806 14.541 100.806 13.2374H100.224C100.224 14.6754 100.681 15.8915 101.602 16.8644L102.025 16.4643ZM100.806 13.2374C100.806 11.9211 101.215 10.8468 102.025 9.99256L101.602 9.59242C100.68 10.5658 100.224 11.7882 100.224 13.2374H100.806ZM102.025 9.99256C102.829 9.14329 103.88 8.71263 105.204 8.71263V8.13081C103.739 8.13081 102.529 8.614 101.602 9.59242L102.025 9.99256ZM105.204 8.71263C106.453 8.71263 107.442 9.13451 108.199 9.96985L108.63 9.57905C107.752 8.61075 106.601 8.13081 105.204 8.13081V8.71263ZM108.201 9.97129C108.966 10.8043 109.35 11.815 109.35 13.021H109.932C109.932 11.6779 109.499 10.5242 108.629 9.57761L108.201 9.97129ZM109.35 13.021V13.8687H109.932V13.021H109.35ZM109.641 13.5778H102.337V14.1596H109.641V13.5778ZM102.048 13.9058C102.163 14.8006 102.501 15.5125 103.088 16.0036L103.461 15.5575C103.014 15.1829 102.726 14.6203 102.625 13.8316L102.048 13.9058ZM103.093 16.0082C103.681 16.4756 104.397 16.7028 105.222 16.7028V16.1209C104.509 16.1209 103.926 15.9272 103.456 15.5529L103.093 16.0082ZM105.222 16.7028C105.957 16.7028 106.601 16.5215 107.139 16.1452L106.805 15.6685C106.381 15.9655 105.858 16.1209 105.222 16.1209V16.7028ZM107.14 16.1443C107.67 15.7693 108.041 15.3204 108.221 14.7926L107.671 14.6042C107.539 14.9902 107.26 15.347 106.804 15.6693L107.14 16.1443ZM107.809 14.9552L109.198 15.6947L109.471 15.1811L108.083 14.4416L107.809 14.9552ZM109.064 15.3324C108.835 15.9211 108.398 16.4763 107.731 16.9936L108.088 17.4533C108.816 16.8885 109.33 16.2532 109.606 15.5433L109.064 15.3324ZM107.731 16.9936C107.096 17.4864 106.268 17.7442 105.222 17.7442V18.326C106.365 18.326 107.328 18.0427 108.088 17.4533L107.731 16.9936ZM102.391 12.6446H107.765V12.0627H102.391V12.6446ZM108.056 12.348C108.043 11.6506 107.759 11.0388 107.229 10.5221L106.823 10.9387C107.255 11.3598 107.464 11.8302 107.475 12.3594L108.056 12.348ZM107.234 10.5273C106.703 9.98277 106.011 9.71801 105.186 9.71801V10.2998C105.876 10.2998 106.411 10.516 106.818 10.9335L107.234 10.5273ZM105.186 9.71801C104.417 9.71801 103.743 9.94137 103.182 10.3961L103.548 10.8483C103.996 10.4853 104.537 10.2998 105.186 10.2998V9.71801ZM103.182 10.3961C102.615 10.855 102.26 11.4976 102.105 12.2984L102.676 12.4089C102.81 11.7187 103.105 11.2069 103.548 10.8483L103.182 10.3961Z" fill="#4F46E5" mask="url(#path-7-outside-1_2386_7249)"/>
</svg>
