<svg width="114" height="56" viewBox="0 0 114 56" fill="none" xmlns="http://www.w3.org/2000/svg">
<path d="M0.991882 56.003C0.432262 56.003 -0.0194168 55.544 0.000541687 54.985C0.393572 43.9763 3.90402 33.7622 9.67547 25.1992C9.98813 24.7353 10.6234 24.6297 11.076 24.9587L22.6554 33.3751C23.0943 33.694 23.1977 34.3039 22.9005 34.7577C19.0525 40.6355 16.6818 47.5684 16.316 55.0285C16.2895 55.5702 15.8471 56.003 15.3044 56.003H0.991882Z" fill="#F15740"/>
<path d="M25.2925 31.4759C24.952 31.8979 24.3401 31.9873 23.9015 31.6685L12.322 23.2521C11.8692 22.9229 11.774 22.2858 12.1197 21.8456C18.6259 13.5576 27.3765 7.11646 37.4555 3.43849C37.9812 3.24667 38.5574 3.53438 38.7302 4.06642L43.1533 17.6848C43.3208 18.2007 43.0458 18.7548 42.5386 18.9477C35.7277 21.5372 29.7908 25.9015 25.2925 31.4759Z" fill="#F7CA21"/>
<path d="M46.4008 17.6977C45.8774 17.8385 45.3302 17.5514 45.1628 17.0361L40.7396 3.41711C40.5666 2.88466 40.8644 2.31316 41.4031 2.16025C46.3609 0.75312 51.5935 0 57.002 0C62.4415 0 67.7032 0.761783 72.6862 2.18453C73.2241 2.33811 73.521 2.90909 73.3483 3.44096L68.9265 17.0552C68.7589 17.5713 68.2106 17.8583 67.6867 17.7163C64.2837 16.7942 60.7039 16.3022 57.0092 16.3022C53.3396 16.3022 49.7832 16.7875 46.4008 17.6977Z" fill="#CDE42B"/>
<path d="M71.5386 18.9726C71.0324 18.7791 70.7583 18.2255 70.9256 17.7103L75.3475 4.09572C75.5205 3.56311 76.0976 3.27546 76.6236 3.46832C86.68 7.15588 95.4094 13.5957 101.9 21.8756C102.245 22.3159 102.15 22.9526 101.697 23.2816L95.9125 27.4864L90.1275 31.6911C89.6886 32.0101 89.0764 31.9204 88.736 31.498C84.2502 25.931 78.3307 21.5687 71.5386 18.9726Z" fill="#4CC767"/>
<path d="M113.998 54.9844C114.018 55.5434 113.567 56.0025 113.007 56.0025H105.858H98.7089C98.1663 56.0025 97.7239 55.5697 97.6973 55.028C97.3321 47.5782 94.9674 40.6541 91.1287 34.7816C90.8321 34.3277 90.9356 33.7183 91.3743 33.3995L97.1593 29.1947L102.944 24.99C103.397 24.6608 104.033 24.7667 104.345 25.231C110.104 33.7873 113.606 43.9896 113.998 54.9844Z" fill="#11A049"/>
</svg>
