<svg xmlns="http://www.w3.org/2000/svg" fill="#fff" font-size="inherit" viewBox="0 0 20 20">
	<path
		d="M15.78 10.2c.35.1.55.47.45.82l-.08.25a6.5 6.5 0 0 1-5.49 4.36v1.2h1.42l.14.02a.67.67 0 0 1 0 1.3l-.14.02H7.92a.67.67 0 0 1 0-1.34h1.42v-1.2a6.5 6.5 0 0 1-5.49-4.36l-.08-.25-.03-.13A.67.67 0 0 1 5 10.52l.06.12.06.2a5.17 5.17 0 0 0 9.84-.2l.06-.12a.66.66 0 0 1 .77-.32m-3.53-4.78a2.25 2.25 0 1 0-4.5 0v3.75a2.25 2.25 0 0 0 4.5 0zm1.33 3.75a3.58 3.58 0 0 1-7.16 0V5.42a3.58 3.58 0 0 1 7.16 0z" />
</svg>
