<svg width="120" height="20" viewBox="0 0 120 20" fill="none" xmlns="http://www.w3.org/2000/svg">
<path d="M108.961 0.00177822H103.683H3.9774C1.78007 0.00177822 0 0 0 0V7.0014V20H103.683H112.939H113.03L120 10.001L113.03 0.00177822H108.961Z" fill="url(#paint0_linear_4994_10461)"/>
<path d="M16.5463 13.1161C14.5763 13.1161 12.8963 11.4861 12.8963 9.55609C12.8963 7.62609 14.5763 6.00609 16.5463 6.00609C18.5363 6.00609 20.1963 7.62609 20.1963 9.55609C20.1963 11.4861 18.5363 13.1161 16.5463 13.1161ZM16.5463 11.7761C17.7063 11.7761 18.6863 10.7561 18.6863 9.55609C18.6863 8.36609 17.7063 7.34609 16.5463 7.34609C15.3963 7.34609 14.4163 8.36609 14.4163 9.55609C14.4163 10.7561 15.3963 11.7761 16.5463 11.7761ZM22.9716 7.54609V7.82609H24.0916V9.00609H22.9716V12.9961H21.5716V9.00609H20.8616V7.82609H21.5716V7.37609C21.5716 6.44609 22.2116 5.79609 23.1216 5.79609C23.5416 5.79609 24.0116 5.97609 24.3116 6.24609L23.9616 7.13609C23.8616 7.03609 23.6616 6.96609 23.4616 6.96609C23.1916 6.96609 22.9716 7.20609 22.9716 7.54609ZM26.7606 7.54609V7.82609H27.8806V9.00609H26.7606V12.9961H25.3606V9.00609H24.6506V7.82609H25.3606V7.37609C25.3606 6.44609 26.0006 5.79609 26.9106 5.79609C27.3306 5.79609 27.8006 5.97609 28.1006 6.24609L27.7506 7.13609C27.6506 7.03609 27.4506 6.96609 27.2506 6.96609C26.9806 6.96609 26.7606 7.20609 26.7606 7.54609ZM29.5497 7.11609C29.0997 7.11609 28.7497 6.75609 28.7497 6.31609C28.7497 5.90609 29.0997 5.53609 29.5497 5.53609C29.9797 5.53609 30.3297 5.90609 30.3297 6.31609C30.3297 6.75609 29.9797 7.11609 29.5497 7.11609ZM28.8097 12.9961V7.82609H30.2697V12.9961H28.8097ZM34.0743 13.1161C32.5443 13.1161 31.2543 11.8761 31.2543 10.4061C31.2543 8.93609 32.5543 7.70609 34.0843 7.70609C34.9243 7.70609 35.6143 8.04609 36.1143 8.58609L35.1443 9.41609C34.8843 9.12609 34.4743 8.93609 34.0743 8.93609C33.3143 8.93609 32.6743 9.60609 32.6743 10.3961C32.6743 11.2061 33.3143 11.8861 34.0843 11.8861C34.4843 11.8861 34.9043 11.6861 35.1743 11.3861L36.1443 12.2061C35.6343 12.7661 34.9343 13.1161 34.0743 13.1161ZM37.7528 7.11609C37.3028 7.11609 36.9528 6.75609 36.9528 6.31609C36.9528 5.90609 37.3028 5.53609 37.7528 5.53609C38.1828 5.53609 38.5328 5.90609 38.5328 6.31609C38.5328 6.75609 38.1828 7.11609 37.7528 7.11609ZM37.0128 12.9961V7.82609H38.4728V12.9961H37.0128ZM42.0574 7.70609C43.4074 7.70609 44.3274 8.55609 44.3274 9.90609V12.9961H42.9174V12.4761C42.5474 12.8961 41.9574 13.1161 41.3974 13.1161C40.2974 13.1161 39.4474 12.4561 39.4474 11.4661C39.4474 10.4461 40.3974 9.74609 41.5974 9.74609C42.0174 9.74609 42.4774 9.83609 42.9174 10.0061V9.90609C42.9174 9.35609 42.5774 8.87609 41.7274 8.87609C41.2474 8.87609 40.7974 9.03609 40.3874 9.24609L39.8974 8.27609C40.6274 7.90609 41.3374 7.70609 42.0574 7.70609ZM41.7274 12.1061C42.2874 12.1061 42.8174 11.8461 42.9174 11.3661V10.8861C42.5874 10.7661 42.2074 10.6961 41.8074 10.6961C41.2774 10.6961 40.8574 11.0061 40.8574 11.4261C40.8574 11.8461 41.2274 12.1061 41.7274 12.1061ZM45.558 12.9961V6.00609H47.018V12.9961H45.558ZM51.1853 12.9961V6.12609H54.6653C55.8953 6.12609 56.7453 6.84609 56.7453 7.84609C56.7453 8.54609 56.3953 9.05609 55.7853 9.37609C56.5853 9.73609 57.0453 10.3761 57.0453 11.1361C57.0453 12.2361 56.1053 12.9961 54.7953 12.9961H51.1853ZM52.6553 8.89609H54.2953C54.8453 8.89609 55.2353 8.57609 55.2353 8.13609C55.2353 7.70609 54.8453 7.38609 54.2953 7.38609H52.6553V8.89609ZM52.6553 11.7361H54.5253C55.1153 11.7361 55.5353 11.3861 55.5353 10.8961C55.5353 10.4061 55.1153 10.0561 54.5253 10.0561H52.6553V11.7361ZM59.5375 8.78609C59.8775 8.11609 60.5175 7.70609 61.3075 7.70609V8.93609C60.2275 8.93609 59.5375 9.55609 59.5375 10.5261V12.9961H58.0775V7.82609H59.5375V8.78609ZM64.4598 7.70609C65.8098 7.70609 66.7298 8.55609 66.7298 9.90609V12.9961H65.3198V12.4761C64.9498 12.8961 64.3598 13.1161 63.7998 13.1161C62.6998 13.1161 61.8498 12.4561 61.8498 11.4661C61.8498 10.4461 62.7998 9.74609 63.9998 9.74609C64.4198 9.74609 64.8798 9.83609 65.3198 10.0061V9.90609C65.3198 9.35609 64.9798 8.87609 64.1298 8.87609C63.6498 8.87609 63.1998 9.03609 62.7898 9.24609L62.2998 8.27609C63.0298 7.90609 63.7398 7.70609 64.4598 7.70609ZM64.1298 12.1061C64.6898 12.1061 65.2198 11.8461 65.3198 11.3661V10.8861C64.9898 10.7661 64.6098 10.6961 64.2098 10.6961C63.6798 10.6961 63.2598 11.0061 63.2598 11.4261C63.2598 11.8461 63.6298 12.1061 64.1298 12.1061ZM70.9503 7.70609C72.0703 7.70609 72.8703 8.53609 72.8703 9.70609V12.9961H71.4603V10.0161C71.4603 9.37609 71.0603 8.93609 70.4803 8.93609C69.8703 8.93609 69.4003 9.37609 69.4003 9.93609L69.3903 9.90609V12.9961H67.9303V7.82609H69.3903V8.47609C69.7003 8.00609 70.2803 7.70609 70.9503 7.70609ZM77.9629 6.00609H79.4229V12.9961H77.9629V12.2561C77.5529 12.7961 76.9529 13.1161 76.2229 13.1161C74.8429 13.1161 73.8429 11.9961 73.8429 10.4061C73.8429 8.82609 74.8429 7.70609 76.2229 7.70609C76.9529 7.70609 77.5529 8.02609 77.9629 8.56609V6.00609ZM76.6429 11.8861C77.4129 11.8861 77.9629 11.2761 77.9629 10.4061C77.9629 9.54609 77.4129 8.93609 76.6429 8.93609C75.8329 8.93609 75.2629 9.54609 75.2629 10.4061C75.2629 11.2761 75.8329 11.8861 76.6429 11.8861ZM85.4374 13.1161C84.6074 13.1161 83.7274 12.8361 83.1074 12.3361L83.7374 11.3261C84.1974 11.6561 84.7774 11.9061 85.4674 11.9061C85.8574 11.9061 86.1374 11.7461 86.1374 11.5161C86.1374 11.1961 85.7574 11.0961 85.2274 10.9561C84.1674 10.6961 83.3474 10.4061 83.3374 9.38609C83.3274 8.40609 84.1374 7.70609 85.3574 7.70609C86.0974 7.70609 86.8274 7.96609 87.3974 8.34609L86.8074 9.38609C86.3374 9.09609 85.7974 8.92609 85.3574 8.92609C84.9974 8.92609 84.7474 9.05609 84.7474 9.23609C84.7474 9.51609 84.9574 9.59609 85.6574 9.78609C86.5474 10.0161 87.5374 10.3161 87.5374 11.4461C87.5374 12.4661 86.7074 13.1161 85.4374 13.1161ZM89.247 7.11609C88.797 7.11609 88.447 6.75609 88.447 6.31609C88.447 5.90609 88.797 5.53609 89.247 5.53609C89.677 5.53609 90.027 5.90609 90.027 6.31609C90.027 6.75609 89.677 7.11609 89.247 7.11609ZM88.507 12.9961V7.82609H89.967V12.9961H88.507ZM93.9616 11.7161L94.3116 12.6661C94.0116 12.9361 93.5416 13.1161 93.1216 13.1161C92.2116 13.1161 91.5716 12.4661 91.5716 11.5361V9.00609H90.8616V7.82609H91.5716V6.40609L92.9716 6.40609V7.82609H94.0916V9.00609H92.9716V11.3061C92.9716 11.6461 93.1916 11.8861 93.4616 11.8861C93.6616 11.8861 93.8616 11.8161 93.9616 11.7161ZM97.6659 11.8261C98.0759 11.8261 98.5759 11.6361 98.8559 11.3661L99.7859 12.3161C99.3259 12.7961 98.4359 13.1161 97.6759 13.1161C96.1359 13.1161 94.9359 11.9861 94.9359 10.3961C94.9359 8.83609 96.0859 7.70609 97.5959 7.70609C99.2159 7.70609 100.166 8.93609 100.166 10.8861H96.4359C96.6059 11.4461 97.0559 11.8261 97.6659 11.8261ZM97.6559 8.99609C97.1059 8.99609 96.6459 9.31609 96.4559 9.83609H98.7659C98.6259 9.32609 98.2459 8.99609 97.6559 8.99609Z" fill="url(#paint1_linear_4994_10461)"/>
<defs>
<linearGradient id="paint0_linear_4994_10461" x1="4.32545e-05" y1="9.99998" x2="126.102" y2="9.99998" gradientUnits="userSpaceOnUse">
<stop stop-color="#312E81"/>
<stop offset="0.259867" stop-color="#4338CA"/>
<stop offset="0.5" stop-color="#6466F1"/>
<stop offset="0.76876" stop-color="#4338CA"/>
<stop offset="1" stop-color="#312E81"/>
</linearGradient>
<linearGradient id="paint1_linear_4994_10461" x1="12" y1="9.99609" x2="101" y2="9.99609" gradientUnits="userSpaceOnUse">
<stop stop-color="white"/>
<stop offset="0.49" stop-color="#EEF2FF"/>
<stop offset="1" stop-color="white"/>
</linearGradient>
</defs>
</svg>
