<svg width="18" height="16" viewBox="0 0 18 16" fill="none" xmlns="http://www.w3.org/2000/svg">
<path d="M3.21444 1.2267C3.47824 0.907352 3.43321 0.434618 3.11386 0.170817C2.79452 -0.0929842 2.32178 -0.047956 2.05798 0.27139C1.1587 1.36002 0.509924 2.66481 0.201533 4.09691C0.114335 4.50184 0.371908 4.90079 0.776839 4.98799C1.18177 5.07519 1.58072 4.81762 1.66792 4.41268C1.92443 3.22148 2.46427 2.13482 3.21444 1.2267Z" fill="#fff"/>
<path d="M15.9417 0.27139C15.6779 -0.047956 15.2051 -0.0929842 14.8858 0.170817C14.5664 0.434618 14.5214 0.907352 14.7852 1.2267C15.5354 2.13482 16.0752 3.22148 16.3317 4.41268C16.4189 4.81762 16.8179 5.07519 17.2228 4.98799C17.6277 4.90079 17.8853 4.50184 17.7981 4.09691C17.4897 2.66481 16.8409 1.36002 15.9417 0.27139Z" fill="#fff"/>
<path fill-rule="evenodd" clip-rule="evenodd" d="M8.99997 -0.000122075C5.68626 -0.000122075 2.99997 2.68617 2.99997 5.99988C2.99997 7.88651 2.54624 9.66498 1.7426 11.2342C1.63591 11.4425 1.6326 11.6887 1.73365 11.8998C1.83469 12.111 2.02851 12.2628 2.25769 12.3104C3.32537 12.5321 4.41181 12.7021 5.51426 12.8179C5.67494 14.6019 7.17421 15.9999 9 15.9999C10.8258 15.9999 12.3251 14.6019 12.4857 12.8179C13.5882 12.7021 14.6746 12.5321 15.7422 12.3104C15.9714 12.2628 16.1652 12.111 16.2663 11.8998C16.3673 11.6887 16.364 11.4425 16.2573 11.2342C15.4537 9.66498 15 7.88651 15 5.99988C15 2.68617 12.3137 -0.000122075 8.99997 -0.000122075ZM9 14.4999C8.04777 14.4999 7.25097 13.8344 7.0493 12.9432C7.69477 12.9808 8.34517 12.9999 8.99997 12.9999C9.65478 12.9999 10.3052 12.9808 10.9507 12.9432C10.749 13.8344 9.95223 14.4999 9 14.4999Z" fill="#fff"/>
</svg>
