<svg width="13" height="12" viewBox="0 0 13 12" fill="none" xmlns="http://www.w3.org/2000/svg">
<path d="M6.5 0C7.39379 0 8.14995 0.586522 8.40625 1.39551C9.15962 1.00413 10.1099 1.12469 10.7422 1.75684C11.3744 2.38908 11.4949 3.33936 11.1035 4.09277C11.9131 4.34872 12.5 5.10578 12.5 6C12.5 6.89412 11.913 7.65022 11.1035 7.90625C11.4951 8.65968 11.3754 9.6098 10.7432 10.2422C10.1107 10.8746 9.15978 10.9953 8.40625 10.6035C8.15022 11.413 7.39412 12 6.5 12C5.60578 12 4.84872 11.4131 4.59277 10.6035C3.83943 10.9946 2.88994 10.8743 2.25781 10.2422C1.62568 9.60992 1.50416 8.65961 1.89551 7.90625C1.08652 7.64995 0.5 6.89379 0.5 6C0.5 5.1061 1.08638 4.34899 1.89551 4.09277C1.50468 3.33949 1.62579 2.38983 2.25781 1.75781C2.88986 1.12589 3.83953 1.00464 4.59277 1.39551C4.84899 0.586377 5.6061 0 6.5 0ZM8.5 7C7.94772 7 7.5 7.44772 7.5 8C7.5 8.55229 7.94772 9 8.5 9C9.05229 9 9.5 8.55229 9.5 8C9.5 7.44772 9.05229 7 8.5 7ZM9.03027 3.46973C8.73738 3.17683 8.26262 3.17683 7.96973 3.46973L3.96973 7.46973C3.67683 7.76262 3.67683 8.23738 3.96973 8.53027C4.26262 8.82317 4.73738 8.82317 5.03027 8.53027L9.03027 4.53027C9.32317 4.23738 9.32317 3.76262 9.03027 3.46973ZM4.5 3C3.94772 3 3.5 3.44772 3.5 4C3.5 4.55228 3.94772 5 4.5 5C5.05228 5 5.5 4.55228 5.5 4C5.5 3.44772 5.05228 3 4.5 3Z" fill="#EAB308"/>
</svg>
