<svg width="20" height="20" viewBox="0 0 20 20" fill="none" xmlns="http://www.w3.org/2000/svg">
<path d="M15 2.5C14.3096 2.5 13.75 3.05964 13.75 3.75V16.25C13.75 16.9404 14.3096 17.5 15 17.5H16.25C16.9404 17.5 17.5 16.9404 17.5 16.25V3.75C17.5 3.05964 16.9404 2.5 16.25 2.5H15Z" fill="#10B981"/>
<path d="M8.125 7.5C8.125 6.80964 8.68464 6.25 9.375 6.25H10.625C11.3154 6.25 11.875 6.80964 11.875 7.5V16.25C11.875 16.9404 11.3154 17.5 10.625 17.5H9.375C8.68464 17.5 8.125 16.9404 8.125 16.25V7.5Z" fill="#10B981"/>
<path d="M2.5 11.25C2.5 10.5596 3.05964 10 3.75 10H5C5.69036 10 6.25 10.5596 6.25 11.25V16.25C6.25 16.9404 5.69036 17.5 5 17.5H3.75C3.05964 17.5 2.5 16.9404 2.5 16.25V11.25Z" fill="#10B981"/>
<path fill-rule="evenodd" clip-rule="evenodd" d="M5.13344 6.43074C5.09781 6.56176 5.01162 6.67327 4.89382 6.74076C4.77602 6.80825 4.63624 6.8262 4.50522 6.79066L2.37745 6.21082C2.24708 6.1753 2.13604 6.08968 2.0685 5.97263C2.00097 5.85558 1.98242 5.71658 2.0169 5.58591L2.57889 3.45438C2.6163 3.32622 2.70225 3.21774 2.81845 3.15204C2.93465 3.08633 3.0719 3.0686 3.20097 3.10261C3.33005 3.13662 3.44075 3.21969 3.5095 3.33412C3.57824 3.44856 3.5996 3.58532 3.56903 3.71527L3.3389 4.59015C4.2285 3.97914 5.05416 3.27988 5.80332 2.50301C5.85053 2.45403 5.90703 2.41495 5.9695 2.38805C6.03198 2.36115 6.09919 2.34697 6.16721 2.34634C6.23523 2.3457 6.30269 2.35862 6.36566 2.38435C6.42863 2.41008 6.48585 2.44809 6.53397 2.49618L7.73374 3.69683L10.274 1.1562C10.3212 1.1073 10.3777 1.0683 10.4402 1.04149C10.5027 1.01467 10.5699 1.00057 10.638 1.00002C10.706 0.999457 10.7734 1.01245 10.8363 1.03823C10.8992 1.06402 10.9564 1.10208 11.0045 1.1502C11.0525 1.19831 11.0905 1.25552 11.1163 1.31848C11.142 1.38145 11.1549 1.4489 11.1543 1.51691C11.1537 1.58492 11.1395 1.65213 11.1126 1.71461C11.0858 1.77709 11.0467 1.8336 10.9978 1.88082L8.09565 4.78343C7.99963 4.87935 7.86946 4.93323 7.73374 4.93323C7.59802 4.93323 7.46786 4.87935 7.37183 4.78343L6.17274 3.58482C5.43462 4.30461 4.63287 4.95608 3.7773 5.53127L4.77426 5.80309C4.90513 5.83888 5.01646 5.92514 5.0838 6.04295C5.15114 6.16075 5.169 6.29978 5.13344 6.43074Z" fill="#10B981"/>
</svg>
