<svg xmlns="http://www.w3.org/2000/svg" fill="none" viewBox="0 0 24 15"><path fill="color(display-p3 .898 .368 .2745)" d="M17.64.9c-.58 0-1.05.47-1.05 1.05v.57c0 .54.44.98.98.98.85 0 1.3 1 .75 1.63L14.9 9.05c-.4.46-1.12.48-1.55.04L9.6 5.25a1.05 1.05 0 0 0-1.49-.02l-7.08 7.04c-.4.41-.4 1.08 0 1.49l.35.35c.41.42 1.08.42 1.49 0l5.22-5.18c.41-.4 1.08-.4 1.49.01l3.9 4c.42.43 1.13.41 1.54-.05l5.06-5.82a.7.7 0 0 1 1.23.45c0 .39.3.7.7.7h.85c.58 0 1.05-.47 1.05-1.05V1.95c0-.58-.47-1.05-1.05-1.05h-5.22Z"/></svg>