<svg width="16" height="16" viewBox="0 0 16 16" fill="none" xmlns="http://www.w3.org/2000/svg">
<path d="M13 0.5C12.3096 0.5 11.75 1.05964 11.75 1.75V14.25C11.75 14.9404 12.3096 15.5 13 15.5H14.25C14.9404 15.5 15.5 14.9404 15.5 14.25V1.75C15.5 1.05964 14.9404 0.5 14.25 0.5H13Z" fill="#F97316"/>
<path d="M6.125 5.5C6.125 4.80964 6.68464 4.25 7.375 4.25H8.625C9.31536 4.25 9.875 4.80964 9.875 5.5V14.25C9.875 14.9404 9.31536 15.5 8.625 15.5H7.375C6.68464 15.5 6.125 14.9404 6.125 14.25V5.5Z" fill="#F97316"/>
<path d="M0.5 9.25C0.5 8.55964 1.05964 8 1.75 8H3C3.69036 8 4.25 8.55964 4.25 9.25V14.25C4.25 14.9404 3.69036 15.5 3 15.5H1.75C1.05964 15.5 0.5 14.9404 0.5 14.25V9.25Z" fill="#F97316"/>
</svg>
