<svg width="12" height="12" viewBox="0 0 12 12" fill="none" xmlns="http://www.w3.org/2000/svg">
<path d="M12 6C12 9.31371 9.31371 12 6 12C2.68629 12 0 9.31371 0 6C0 2.68629 2.68629 0 6 0C9.31371 0 12 2.68629 12 6Z" fill="#EF4444"/>
<path fill-rule="evenodd" clip-rule="evenodd" d="M6 9.375C5.767 9.375 5.57812 9.18612 5.57812 8.95312V4.06537L3.76706 5.87644C3.60231 6.04119 3.33519 6.04119 3.17044 5.87644C3.00569 5.71168 3.00569 5.44457 3.17044 5.27981L5.70169 2.74856C5.86644 2.58381 6.13356 2.58381 6.29831 2.74856L8.82956 5.27981C8.99431 5.44457 8.99431 5.71168 8.82956 5.87644C8.66481 6.04119 8.39769 6.04119 8.23294 5.87644L6.42188 4.06537V8.95312C6.42188 9.18612 6.233 9.375 6 9.375Z" fill="white"/>
</svg>
