<svg width="12" height="12" viewBox="0 0 12 12" fill="none" xmlns="http://www.w3.org/2000/svg">
<path d="M0 6C0 2.68629 2.68629 0 6 0C9.31371 0 12 2.68629 12 6C12 9.31371 9.31371 12 6 12C2.68629 12 0 9.31371 0 6Z" fill="#10B981"/>
<path fill-rule="evenodd" clip-rule="evenodd" d="M6 2.625C6.233 2.625 6.42188 2.81388 6.42188 3.04688V7.93463L8.23294 6.12356C8.39769 5.95881 8.66481 5.95881 8.82956 6.12356C8.99431 6.28832 8.99431 6.55543 8.82956 6.72019L6.29831 9.25144C6.13356 9.41619 5.86644 9.41619 5.70169 9.25144L3.17044 6.72019C3.00569 6.55543 3.00569 6.28832 3.17044 6.12356C3.33519 5.95881 3.60231 5.95881 3.76706 6.12356L5.57812 7.93463V3.04688C5.57812 2.81388 5.767 2.625 6 2.625Z" fill="white"/>
</svg>
