<svg xmlns="http://www.w3.org/2000/svg" fill="none" viewBox="0 0 23 23">
	<path fill="#4f46e5"
		d="M7.39 12.14c.6 0 1.08.48 1.08 1.07v4.27c0 .59-.48 1.06-1.08 1.06H6.3c-.6 0-1.09-.47-1.09-1.06V13.2c0-.6.49-1.07 1.09-1.07zm4.87-3.2c.6 0 1.08.48 1.08 1.07v7.47c0 .59-.49 1.06-1.08 1.06h-1.08c-.6 0-1.09-.47-1.09-1.06V10c0-.6.49-1.07 1.09-1.07zm4.87-3.2c.6 0 1.08.47 1.08 1.06v10.68c0 .59-.49 1.06-1.08 1.06h-1.09c-.6 0-1.08-.47-1.08-1.06V6.8c0-.59.49-1.06 1.08-1.06zm-6.59-1.27 1.85.5q.16.05.26.2t.05.33l-.49 1.82a.44.44 0 0 1-.54.3.43.43 0 0 1-.32-.52l.2-.75q-1.16.79-2.13 1.78a.44.44 0 0 1-.63 0L7.75 7.12l-2.2 2.17a.4.4 0 0 1-.49.1.5.5 0 0 1-.24-.24.4.4 0 0 1 .1-.48L7.44 6.2a.45.45 0 0 1 .62 0l1.04 1q.96-.93 2.07-1.66l-.86-.24a.4.4 0 0 1-.27-.2.43.43 0 0 1 .17-.6q.16-.08.33-.04" />
</svg>
