<svg width="20" height="20" viewBox="0 0 20 20" fill="none" xmlns="http://www.w3.org/2000/svg">
<path d="M15 2.5C14.3096 2.5 13.75 3.05964 13.75 3.75V16.25C13.75 16.9404 14.3096 17.5 15 17.5H16.25C16.9404 17.5 17.5 16.9404 17.5 16.25V3.75C17.5 3.05964 16.9404 2.5 16.25 2.5H15Z" fill="#EF4444"/>
<path d="M8.125 7.5C8.125 6.80964 8.68464 6.25 9.375 6.25H10.625C11.3154 6.25 11.875 6.80964 11.875 7.5V16.25C11.875 16.9404 11.3154 17.5 10.625 17.5H9.375C8.68464 17.5 8.125 16.9404 8.125 16.25V7.5Z" fill="#EF4444"/>
<path d="M2.5 11.25C2.5 10.5596 3.05964 10 3.75 10H5C5.69036 10 6.25 10.5596 6.25 11.25V16.25C6.25 16.9404 5.69036 17.5 5 17.5H3.75C3.05964 17.5 2.5 16.9404 2.5 16.25V11.25Z" fill="#EF4444"/>
<path fill-rule="evenodd" clip-rule="evenodd" d="M8.02086 1.37778C8.05649 1.24676 8.14268 1.13525 8.26048 1.06776C8.37828 1.00027 8.51805 0.982319 8.64908 1.01786L10.7768 1.59769C10.9072 1.63322 11.0183 1.71884 11.0858 1.83589C11.1533 1.95294 11.1719 2.09194 11.1374 2.22261L10.5754 4.35414C10.538 4.48229 10.452 4.59077 10.3358 4.65648C10.2197 4.72218 10.0824 4.73992 9.95332 4.70591C9.82425 4.6719 9.71355 4.58883 9.6448 4.47439C9.57605 4.35996 9.5547 4.2232 9.58527 4.09325L9.81539 3.21837C8.9258 3.82938 8.10014 4.52863 7.35098 5.30551C7.30377 5.35449 7.24727 5.39357 7.18479 5.42046C7.12231 5.44736 7.0551 5.46154 6.98709 5.46218C6.91907 5.46282 6.8516 5.44989 6.78863 5.42417C6.72566 5.39844 6.66845 5.36043 6.62033 5.31234L5.42056 4.11169L2.88034 6.65232C2.83308 6.70122 2.77655 6.74021 2.71405 6.76703C2.65156 6.79384 2.58435 6.80794 2.51635 6.8085C2.44834 6.80906 2.38091 6.79607 2.31799 6.77028C2.25506 6.7445 2.19789 6.70644 2.14983 6.65832C2.10177 6.6102 2.06377 6.553 2.03805 6.49003C2.01233 6.42707 1.9994 6.35962 2.00002 6.2916C2.00064 6.22359 2.0148 6.15638 2.04167 6.0939C2.06854 6.03142 2.10759 5.97492 2.15652 5.92769L5.05864 3.02509C5.15467 2.92917 5.28484 2.87529 5.42056 2.87529C5.55627 2.87529 5.68644 2.92917 5.78247 3.02509L6.98156 4.2237C7.71968 3.50391 8.52143 2.85244 9.377 2.27724L8.38004 2.00542C8.24916 1.96964 8.13784 1.88337 8.0705 1.76557C8.00315 1.64777 7.9853 1.50874 8.02086 1.37778Z" fill="#EF4444"/>
</svg>
