<svg width="20" height="20" viewBox="0 0 20 20" fill="none" xmlns="http://www.w3.org/2000/svg">
<path d="M6.99792 18.2686C8.21553 19.2113 9.96148 19.2002 11.1307 18.1533C13.6859 15.8654 16.0265 13.4744 18.2841 10.8477C18.5865 10.4958 18.7796 10.0582 18.8231 9.58496C18.8928 8.82648 19.0005 7.34259 18.9403 5.89063C18.9102 5.16592 18.8382 4.42843 18.6903 3.78418C18.547 3.16033 18.3126 2.52759 17.8925 2.10742C17.4724 1.68739 16.8403 1.45384 16.2167 1.31055C15.5723 1.16254 14.8342 1.08965 14.1093 1.05957C12.6572 0.999332 11.1734 1.10707 10.4149 1.17676C9.94164 1.22025 9.50406 1.41343 9.15222 1.71582C6.52532 3.97356 4.13459 6.31473 1.84656 8.87012C0.799693 10.0394 0.788622 11.7844 1.73132 13.002C3.2861 15.01 4.98987 16.7138 6.99792 18.2686ZM14.5829 6.66699C13.8928 6.66675 13.3331 6.10705 13.3329 5.41699C13.3329 4.72679 13.8927 4.16723 14.5829 4.16699C15.2732 4.16699 15.8329 4.72664 15.8329 5.41699C15.8327 6.1072 15.2731 6.66699 14.5829 6.66699Z" fill="white" style="fill:white;fill-opacity:1;"/>
</svg>
