<svg xmlns="http://www.w3.org/2000/svg" fill="none" viewBox="0 0 20 20"><path fill="#4F46E5" d="M7.25 1.67c.26.04.45.19.56.28.12.1.4.38.41.39.49.48 1.13.72 1.78.72.65 0 1.3-.24 1.78-.72l.41-.4c.1-.08.3-.23.56-.27.23-.03.44.04.57.1l.4.21 1.88 1.08c.12.08.28.22.38.44.1.24.07.49.04.63-.02.15-.08.36-.13.56a2.49 2.49 0 0 0 1.78 2.97l.03.01.52.15c.14.05.36.15.52.35.15.2.19.4.2.55.02.13.02.3.02.46v1.64c0 .16 0 .33-.02.46a.98.98 0 0 1-.2.55c-.16.2-.38.3-.52.35l-.55.16a2.49 2.49 0 0 0-1.78 2.97l.13.56c.03.14.06.39-.04.63-.1.22-.26.36-.38.44l-1.87 1.08-.4.2a.94.94 0 0 1-.58.1 1.11 1.11 0 0 1-.56-.27l-.4-.39a2.52 2.52 0 0 0-1.79-.72c-.65 0-1.3.24-1.78.72l-.41.4c-.11.08-.3.23-.56.27-.24.03-.44-.04-.57-.1l-.4-.21-1.88-1.08a1.06 1.06 0 0 1-.38-.44 1.1 1.1 0 0 1-.04-.63c.02-.15.13-.55.13-.56a2.49 2.49 0 0 0-1.78-2.97l-.55-.16a1.11 1.11 0 0 1-.52-.35 1 1 0 0 1-.2-.55c-.02-.13-.02-.3-.02-.46V9.18c0-.16 0-.33.02-.46a.98.98 0 0 1 .2-.55c.16-.2.38-.3.52-.35l.52-.15h.03A2.49 2.49 0 0 0 4.1 4.68l-.13-.56a1.1 1.1 0 0 1 .04-.63c.1-.22.26-.36.38-.44l1.88-1.08c.13-.07.27-.15.4-.2a.89.89 0 0 1 .57-.1ZM10 7.08a2.92 2.92 0 1 0 0 5.84 2.92 2.92 0 0 0 0-5.84Z"/></svg>