<svg xmlns="http://www.w3.org/2000/svg" fill="none" viewBox="0 0 32 32">
	<path stroke="#475569" stroke-linecap="round" stroke-linejoin="round" stroke-width="2"
		d="M12.8 5.25A1.5 1.5 0 0 1 14.26 4h3.46c.73 0 1.36.53 1.48 1.25l.28 1.71c.09.5.42.92.86 1.16l.3.17c.43.26.96.34 1.43.17l1.62-.61a1.5 1.5 0 0 1 1.83.65l1.73 3a1.5 1.5 0 0 1-.35 1.9l-1.34 1.1c-.39.33-.58.82-.57 1.33a8.74 8.74 0 0 1 0 .34c-.01.5.18 1 .57 1.32l1.34 1.1c.57.47.71 1.28.35 1.91l-1.73 3a1.5 1.5 0 0 1-1.83.65l-1.62-.6c-.47-.18-1-.1-1.43.16l-.3.17c-.44.24-.77.66-.86 1.16l-.28 1.7A1.5 1.5 0 0 1 17.73 28h-3.46a1.5 1.5 0 0 1-1.48-1.25l-.28-1.71c-.09-.5-.42-.92-.86-1.16l-.3-.17a1.66 1.66 0 0 0-1.43-.17l-1.62.61a1.5 1.5 0 0 1-1.83-.65l-1.73-3a1.5 1.5 0 0 1 .35-1.9l1.34-1.1c.39-.33.58-.82.57-1.33a9.16 9.16 0 0 1 0-.34c.01-.5-.18-1-.57-1.32l-1.34-1.1a1.5 1.5 0 0 1-.35-1.91l1.73-3a1.5 1.5 0 0 1 1.83-.65l1.62.6c.47.18 1 .1 1.43-.16a9 9 0 0 1 .3-.17c.44-.24.77-.66.86-1.16l.28-1.7Z" />
	<path stroke="#475569" stroke-linecap="round" stroke-linejoin="round" stroke-width="2"
		d="M20 16a4 4 0 1 1-8 0 4 4 0 0 1 8 0Z" />
</svg>
