<svg xmlns="http://www.w3.org/2000/svg" fill="none" viewBox="0 0 108 120"><path fill="color(display-p3 .3922 .4549 .5451)" d="M53.75 26.89c1.06 0 2.15.33 3.26.74 1.11.42 2.51 1.04 4.25 1.82a74.27 74.27 0 0 0 9.57 3.47c2.65.75 4.78 1.36 6.4 1.99 1.63.63 3.1 1.41 4.1 2.73a8.46 8.46 0 0 1 1.5 4.37c.17 1.55.17 3.5.17 5.85v8.83c0 9.17-4.14 16.44-9.14 21.85-4.99 5.4-10.93 9.08-14.84 11.15l-.2.1c-1.66.88-3.02 1.6-5.07 1.6-2.05 0-3.41-.72-5.08-1.6l-.19-.1c-3.91-2.07-9.85-5.74-14.84-11.15-5-5.41-9.14-12.68-9.14-21.85v-8.83c0-2.36 0-4.3.16-5.85.17-1.6.54-3.1 1.5-4.37 1-1.32 2.48-2.1 4.1-2.73a79.66 79.66 0 0 1 6.41-1.99c3.63-1.03 7-2.34 9.57-3.47 1.74-.78 3.14-1.4 4.25-1.82a9.6 9.6 0 0 1 3.26-.74Z"/><path fill="color(display-p3 .9725 .9804 .9882)" d="M54.5 40.76c4.56 0 8.25 3.7 8.25 8.25v2.67a6.44 6.44 0 0 1 4.46 5.3c.23 1.64.42 3.38.42 5.16 0 1.78-.2 3.52-.42 5.17a6.4 6.4 0 0 1-6 5.55 144.28 144.28 0 0 1-13.42 0 6.4 6.4 0 0 1-6-5.55 38.64 38.64 0 0 1-.41-5.17c0-1.78.18-3.52.4-5.17a6.44 6.44 0 0 1 4.47-5.29v-2.67c0-4.55 3.7-8.25 8.25-8.25Zm0 18.38c-.83 0-1.5.67-1.5 1.5v3a1.5 1.5 0 0 0 3 0v-3c0-.83-.67-1.5-1.5-1.5Zm0-15.38a5.25 5.25 0 0 0-5.25 5.25v2.34a146.91 146.91 0 0 1 10.5 0v-2.34c0-2.9-2.35-5.25-5.25-5.25Z"/><path stroke="color(display-p3 .7961 .8353 .8824)" stroke-linecap="round" stroke-width="1.5" d="M94 56.26v-12.9c0-7.3 0-10.94-1.8-13.31-1.8-2.38-5.85-3.54-13.97-5.85A109.24 109.24 0 0 1 63.88 19c-5.33-2.37-8-3.56-9.88-3.56-1.88 0-4.55 1.19-9.88 3.55-3.9 1.74-8.8 3.64-14.35 5.21-8.12 2.31-12.18 3.47-13.97 5.85-1.8 2.37-1.8 6.02-1.8 13.3v12.9c0 25.01 22.5 40.01 33.75 45.95 2.7 1.42 4.05 2.13 6.25 2.13s3.55-.7 6.25-2.13C71.5 96.26 94 81.26 94 56.26Z"/><path stroke="color(display-p3 .8863 .9098 .9412)" stroke-linecap="round" stroke-width="1.5" d="M107 55.08v-17.1c0-9.65 0-14.48-2.38-17.63-2.38-3.15-7.76-4.68-18.52-7.74a144.73 144.73 0 0 1-19.01-6.9C60.03 2.56 56.49 1 54 1c-2.5 0-6.03 1.57-13.09 4.7a144.73 144.73 0 0 1-19 6.9c-10.77 3.07-16.15 4.6-18.53 7.75C1 23.5 1 28.33 1 37.98v17.1c0 33.13 29.81 53 44.72 60.87 3.58 1.88 5.36 2.83 8.28 2.83 2.92 0 4.7-.95 8.28-2.83C77.18 108.08 107 88.2 107 55.08Z"/></svg>