<svg width="305" height="67" viewBox="0 0 305 67" fill="none" xmlns="http://www.w3.org/2000/svg">
<mask id="path-1-inside-1_5269_90024" fill="white">
<path d="M297 0C301.418 0 305 3.58172 305 8C305 10.9606 303.391 13.5433 301 14.9268V18.0723C303.391 19.4556 305 22.0392 305 25C305 27.9606 303.391 30.5433 301 31.9268V35.0723C303.391 36.4556 305 39.0392 305 42C305 44.9606 303.391 47.5433 301 48.9268V52.0723C303.391 53.4556 305 56.0392 305 59C305 63.4183 301.418 67 297 67C294.039 67 291.457 65.3905 290.073 63H286.927C285.543 65.3905 282.961 67 280 67C277.039 67 274.457 65.3905 273.073 63H269.927C268.543 65.3905 265.961 67 263 67C260.039 67 257.457 65.3905 256.073 63H252.927C251.543 65.3905 248.961 67 246 67C243.039 67 240.457 65.3905 239.073 63H235.927C234.543 65.3905 231.961 67 229 67C226.039 67 223.457 65.3905 222.073 63H218.927C217.543 65.3905 214.961 67 212 67C209.039 67 206.457 65.3905 205.073 63H201.927C200.543 65.3905 197.961 67 195 67C192.039 67 189.457 65.3905 188.073 63H184.927C183.543 65.3905 180.961 67 178 67C175.039 67 172.457 65.3905 171.073 63H167.927C166.543 65.3905 163.961 67 161 67C158.039 67 155.457 65.3905 154.073 63H150.927C149.543 65.3905 146.961 67 144 67C141.039 67 138.457 65.3905 137.073 63H133.927C132.543 65.3905 129.961 67 127 67C124.039 67 121.457 65.3905 120.073 63H116.927C115.543 65.3905 112.961 67 110 67C107.039 67 104.457 65.3905 103.073 63H99.9268C98.5433 65.3905 95.9606 67 93 67C90.0394 67 87.4567 65.3905 86.0732 63H82.9268C81.5433 65.3905 78.9606 67 76 67C73.0394 67 70.4567 65.3905 69.0732 63H65.9268C64.5433 65.3905 61.9606 67 59 67C56.0394 67 53.4567 65.3905 52.0732 63H48.9268C47.5433 65.3905 44.9606 67 42 67C39.0394 67 36.4567 65.3905 35.0732 63H31.9268C30.5433 65.3905 27.9606 67 25 67C22.0394 67 19.4567 65.3905 18.0732 63H14.9268C13.5433 65.3905 10.9606 67 8 67C3.58172 67 0 63.4183 0 59C0 56.0392 1.60927 53.4556 4 52.0723V48.9268C1.60951 47.5433 0 44.9606 0 42C0 39.0392 1.60927 36.4556 4 35.0723V31.9268C1.60951 30.5433 0 27.9606 0 25C0 22.0392 1.60927 19.4556 4 18.0723V14.9268C1.60951 13.5433 0 10.9606 0 8C0 3.58172 3.58172 0 8 0C10.9606 0 13.5433 1.60951 14.9268 4H18.0732C19.4567 1.60951 22.0394 0 25 0C27.9606 0 30.5433 1.60951 31.9268 4H35.0732C36.4567 1.60951 39.0394 0 42 0C44.9606 0 47.5433 1.60951 48.9268 4H52.0732C53.4567 1.60951 56.0394 0 59 0C61.9606 0 64.5433 1.60951 65.9268 4H69.0732C70.4567 1.60951 73.0394 0 76 0C78.9606 0 81.5433 1.60951 82.9268 4H86.0732C87.4567 1.60951 90.0394 0 93 0C95.9606 0 98.5433 1.60951 99.9268 4H103.073C104.457 1.60951 107.039 0 110 0C112.961 0 115.543 1.60951 116.927 4H120.073C121.457 1.60951 124.039 0 127 0C129.961 0 132.543 1.60951 133.927 4H137.073C138.457 1.60951 141.039 0 144 0C146.961 0 149.543 1.60951 150.927 4H154.073C155.457 1.60951 158.039 0 161 0C163.961 0 166.543 1.60951 167.927 4H171.073C172.457 1.60951 175.039 0 178 0C180.961 0 183.543 1.60951 184.927 4H188.073C189.457 1.60951 192.039 0 195 0C197.961 0 200.543 1.60951 201.927 4H205.073C206.457 1.60951 209.039 0 212 0C214.961 0 217.543 1.60951 218.927 4H222.073C223.457 1.60951 226.039 0 229 0C231.961 0 234.543 1.60951 235.927 4H239.073C240.457 1.60951 243.039 0 246 0C248.961 0 251.543 1.60951 252.927 4H256.073C257.457 1.60951 260.039 0 263 0C265.961 0 268.543 1.60951 269.927 4H273.073C274.457 1.60951 277.039 0 280 0C282.961 0 285.543 1.60951 286.927 4H290.073C291.457 1.60951 294.039 0 297 0Z"/>
</mask>
<path d="M297 0C301.418 0 305 3.58172 305 8C305 10.9606 303.391 13.5433 301 14.9268V18.0723C303.391 19.4556 305 22.0392 305 25C305 27.9606 303.391 30.5433 301 31.9268V35.0723C303.391 36.4556 305 39.0392 305 42C305 44.9606 303.391 47.5433 301 48.9268V52.0723C303.391 53.4556 305 56.0392 305 59C305 63.4183 301.418 67 297 67C294.039 67 291.457 65.3905 290.073 63H286.927C285.543 65.3905 282.961 67 280 67C277.039 67 274.457 65.3905 273.073 63H269.927C268.543 65.3905 265.961 67 263 67C260.039 67 257.457 65.3905 256.073 63H252.927C251.543 65.3905 248.961 67 246 67C243.039 67 240.457 65.3905 239.073 63H235.927C234.543 65.3905 231.961 67 229 67C226.039 67 223.457 65.3905 222.073 63H218.927C217.543 65.3905 214.961 67 212 67C209.039 67 206.457 65.3905 205.073 63H201.927C200.543 65.3905 197.961 67 195 67C192.039 67 189.457 65.3905 188.073 63H184.927C183.543 65.3905 180.961 67 178 67C175.039 67 172.457 65.3905 171.073 63H167.927C166.543 65.3905 163.961 67 161 67C158.039 67 155.457 65.3905 154.073 63H150.927C149.543 65.3905 146.961 67 144 67C141.039 67 138.457 65.3905 137.073 63H133.927C132.543 65.3905 129.961 67 127 67C124.039 67 121.457 65.3905 120.073 63H116.927C115.543 65.3905 112.961 67 110 67C107.039 67 104.457 65.3905 103.073 63H99.9268C98.5433 65.3905 95.9606 67 93 67C90.0394 67 87.4567 65.3905 86.0732 63H82.9268C81.5433 65.3905 78.9606 67 76 67C73.0394 67 70.4567 65.3905 69.0732 63H65.9268C64.5433 65.3905 61.9606 67 59 67C56.0394 67 53.4567 65.3905 52.0732 63H48.9268C47.5433 65.3905 44.9606 67 42 67C39.0394 67 36.4567 65.3905 35.0732 63H31.9268C30.5433 65.3905 27.9606 67 25 67C22.0394 67 19.4567 65.3905 18.0732 63H14.9268C13.5433 65.3905 10.9606 67 8 67C3.58172 67 0 63.4183 0 59C0 56.0392 1.60927 53.4556 4 52.0723V48.9268C1.60951 47.5433 0 44.9606 0 42C0 39.0392 1.60927 36.4556 4 35.0723V31.9268C1.60951 30.5433 0 27.9606 0 25C0 22.0392 1.60927 19.4556 4 18.0723V14.9268C1.60951 13.5433 0 10.9606 0 8C0 3.58172 3.58172 0 8 0C10.9606 0 13.5433 1.60951 14.9268 4H18.0732C19.4567 1.60951 22.0394 0 25 0C27.9606 0 30.5433 1.60951 31.9268 4H35.0732C36.4567 1.60951 39.0394 0 42 0C44.9606 0 47.5433 1.60951 48.9268 4H52.0732C53.4567 1.60951 56.0394 0 59 0C61.9606 0 64.5433 1.60951 65.9268 4H69.0732C70.4567 1.60951 73.0394 0 76 0C78.9606 0 81.5433 1.60951 82.9268 4H86.0732C87.4567 1.60951 90.0394 0 93 0C95.9606 0 98.5433 1.60951 99.9268 4H103.073C104.457 1.60951 107.039 0 110 0C112.961 0 115.543 1.60951 116.927 4H120.073C121.457 1.60951 124.039 0 127 0C129.961 0 132.543 1.60951 133.927 4H137.073C138.457 1.60951 141.039 0 144 0C146.961 0 149.543 1.60951 150.927 4H154.073C155.457 1.60951 158.039 0 161 0C163.961 0 166.543 1.60951 167.927 4H171.073C172.457 1.60951 175.039 0 178 0C180.961 0 183.543 1.60951 184.927 4H188.073C189.457 1.60951 192.039 0 195 0C197.961 0 200.543 1.60951 201.927 4H205.073C206.457 1.60951 209.039 0 212 0C214.961 0 217.543 1.60951 218.927 4H222.073C223.457 1.60951 226.039 0 229 0C231.961 0 234.543 1.60951 235.927 4H239.073C240.457 1.60951 243.039 0 246 0C248.961 0 251.543 1.60951 252.927 4H256.073C257.457 1.60951 260.039 0 263 0C265.961 0 268.543 1.60951 269.927 4H273.073C274.457 1.60951 277.039 0 280 0C282.961 0 285.543 1.60951 286.927 4H290.073C291.457 1.60951 294.039 0 297 0Z" fill="#F8FAFC"/>
<path d="M301 14.9268L300.499 14.0612L300 14.3501V14.9268H301ZM301 18.0723H300V18.649L300.499 18.9378L301 18.0723ZM301 31.9268L300.499 31.0612L300 31.3501V31.9268H301ZM301 35.0723H300V35.649L300.499 35.9378L301 35.0723ZM301 48.9268L300.499 48.0612L300 48.3501V48.9268H301ZM301 52.0723H300V52.649L300.499 52.9378L301 52.0723ZM290.073 63L290.939 62.4991L290.65 62H290.073V63ZM286.927 63V62H286.35L286.061 62.4991L286.927 63ZM273.073 63L273.939 62.4991L273.65 62H273.073V63ZM269.927 63V62H269.35L269.061 62.4991L269.927 63ZM256.073 63L256.939 62.4991L256.65 62H256.073V63ZM252.927 63V62H252.35L252.061 62.4991L252.927 63ZM239.073 63L239.939 62.4991L239.65 62H239.073V63ZM235.927 63V62H235.35L235.061 62.4991L235.927 63ZM222.073 63L222.939 62.4991L222.65 62H222.073V63ZM218.927 63V62H218.35L218.061 62.4991L218.927 63ZM205.073 63L205.939 62.4991L205.65 62H205.073V63ZM201.927 63V62H201.35L201.061 62.4991L201.927 63ZM188.073 63L188.939 62.4991L188.65 62H188.073V63ZM184.927 63V62H184.35L184.061 62.4991L184.927 63ZM171.073 63L171.939 62.4991L171.65 62H171.073V63ZM167.927 63V62H167.35L167.061 62.4991L167.927 63ZM154.073 63L154.939 62.4991L154.65 62H154.073V63ZM150.927 63V62H150.35L150.061 62.4991L150.927 63ZM137.073 63L137.939 62.4991L137.65 62H137.073V63ZM133.927 63V62H133.35L133.061 62.4991L133.927 63ZM120.073 63L120.939 62.4991L120.65 62H120.073V63ZM116.927 63V62H116.35L116.061 62.4991L116.927 63ZM103.073 63L103.939 62.4991L103.65 62H103.073V63ZM99.9268 63V62H99.3501L99.0612 62.4991L99.9268 63ZM86.0732 63L86.9388 62.4991L86.6499 62H86.0732V63ZM82.9268 63V62H82.3501L82.0612 62.4991L82.9268 63ZM69.0732 63L69.9388 62.4991L69.6499 62H69.0732V63ZM65.9268 63V62H65.3501L65.0612 62.4991L65.9268 63ZM52.0732 63L52.9388 62.4991L52.6499 62H52.0732V63ZM48.9268 63V62H48.3501L48.0612 62.4991L48.9268 63ZM35.0732 63L35.9388 62.4991L35.6499 62H35.0732V63ZM31.9268 63V62H31.3501L31.0612 62.4991L31.9268 63ZM18.0732 63L18.9388 62.4991L18.6499 62H18.0732V63ZM14.9268 63V62H14.3501L14.0612 62.4991L14.9268 63ZM4 52.0723L4.50083 52.9378L5 52.649V52.0723H4ZM4 48.9268H5V48.3501L4.50089 48.0612L4 48.9268ZM4 35.0723L4.50083 35.9378L5 35.649V35.0723H4ZM4 31.9268H5V31.3501L4.50089 31.0612L4 31.9268ZM4 18.0723L4.50083 18.9378L5 18.649V18.0723H4ZM4 14.9268H5V14.3501L4.50089 14.0612L4 14.9268ZM14.9268 4L14.0612 4.50089L14.3501 5H14.9268V4ZM18.0732 4V5H18.6499L18.9388 4.50089L18.0732 4ZM31.9268 4L31.0612 4.50089L31.3501 5H31.9268V4ZM35.0732 4V5H35.6499L35.9388 4.50089L35.0732 4ZM48.9268 4L48.0612 4.50089L48.3501 5H48.9268V4ZM52.0732 4V5H52.6499L52.9388 4.50089L52.0732 4ZM65.9268 4L65.0612 4.50089L65.3501 5H65.9268V4ZM69.0732 4V5H69.6499L69.9388 4.50089L69.0732 4ZM82.9268 4L82.0612 4.50089L82.3501 5H82.9268V4ZM86.0732 4V5H86.6499L86.9388 4.50089L86.0732 4ZM99.9268 4L99.0612 4.50089L99.3501 5H99.9268V4ZM103.073 4V5H103.65L103.939 4.50089L103.073 4ZM116.927 4L116.061 4.50089L116.35 5H116.927V4ZM120.073 4V5H120.65L120.939 4.50089L120.073 4ZM133.927 4L133.061 4.50089L133.35 5H133.927V4ZM137.073 4V5H137.65L137.939 4.50089L137.073 4ZM150.927 4L150.061 4.50089L150.35 5H150.927V4ZM154.073 4V5H154.65L154.939 4.50089L154.073 4ZM167.927 4L167.061 4.50089L167.35 5H167.927V4ZM171.073 4V5H171.65L171.939 4.50089L171.073 4ZM184.927 4L184.061 4.50089L184.35 5H184.927V4ZM188.073 4V5H188.65L188.939 4.50089L188.073 4ZM201.927 4L201.061 4.50089L201.35 5H201.927V4ZM205.073 4V5H205.65L205.939 4.50089L205.073 4ZM218.927 4L218.061 4.50089L218.35 5H218.927V4ZM222.073 4V5H222.65L222.939 4.50089L222.073 4ZM235.927 4L235.061 4.50089L235.35 5H235.927V4ZM239.073 4V5H239.65L239.939 4.50089L239.073 4ZM252.927 4L252.061 4.50089L252.35 5H252.927V4ZM256.073 4V5H256.65L256.939 4.50089L256.073 4ZM269.927 4L269.061 4.50089L269.35 5H269.927V4ZM273.073 4V5H273.65L273.939 4.50089L273.073 4ZM286.927 4L286.061 4.50089L286.35 5H286.927V4ZM290.073 4V5H290.65L290.939 4.50089L290.073 4ZM297 0V1C300.866 1 304 4.13401 304 8H305H306C306 3.02944 301.971 -1 297 -1V0ZM305 8H304C304 10.5886 302.594 12.8489 300.499 14.0612L301 14.9268L301.501 15.7923C304.187 14.2378 306 11.3325 306 8H305ZM301 14.9268H300V18.0723H301H302V14.9268H301ZM301 18.0723L300.499 18.9378C302.594 20.15 304 22.411 304 25H305H306C306 21.6675 304.187 18.7613 301.501 17.2067L301 18.0723ZM305 25H304C304 27.5886 302.594 29.8489 300.499 31.0612L301 31.9268L301.501 32.7923C304.187 31.2378 306 28.3325 306 25H305ZM301 31.9268H300V35.0723H301H302V31.9268H301ZM301 35.0723L300.499 35.9378C302.594 37.15 304 39.411 304 42H305H306C306 38.6675 304.187 35.7613 301.501 34.2067L301 35.0723ZM305 42H304C304 44.5886 302.594 46.8489 300.499 48.0612L301 48.9268L301.501 49.7923C304.187 48.2378 306 45.3325 306 42H305ZM301 48.9268H300V52.0723H301H302V48.9268H301ZM301 52.0723L300.499 52.9378C302.594 54.15 304 56.411 304 59H305H306C306 55.6675 304.187 52.7613 301.501 51.2067L301 52.0723ZM305 59H304C304 62.866 300.866 66 297 66V67V68C301.971 68 306 63.9706 306 59H305ZM297 67V66C294.411 66 292.151 64.594 290.939 62.4991L290.073 63L289.208 63.5009C290.762 66.187 293.667 68 297 68V67ZM290.073 63V62H286.927V63V64H290.073V63ZM286.927 63L286.061 62.4991C284.849 64.594 282.589 66 280 66V67V68C283.333 68 286.238 66.187 287.792 63.5009L286.927 63ZM280 67V66C277.411 66 275.151 64.594 273.939 62.4991L273.073 63L272.208 63.5009C273.762 66.187 276.667 68 280 68V67ZM273.073 63V62H269.927V63V64H273.073V63ZM269.927 63L269.061 62.4991C267.849 64.594 265.589 66 263 66V67V68C266.333 68 269.238 66.187 270.792 63.5009L269.927 63ZM263 67V66C260.411 66 258.151 64.594 256.939 62.4991L256.073 63L255.208 63.5009C256.762 66.187 259.667 68 263 68V67ZM256.073 63V62H252.927V63V64H256.073V63ZM252.927 63L252.061 62.4991C250.849 64.594 248.589 66 246 66V67V68C249.333 68 252.238 66.187 253.792 63.5009L252.927 63ZM246 67V66C243.411 66 241.151 64.594 239.939 62.4991L239.073 63L238.208 63.5009C239.762 66.187 242.667 68 246 68V67ZM239.073 63V62H235.927V63V64H239.073V63ZM235.927 63L235.061 62.4991C233.849 64.594 231.589 66 229 66V67V68C232.333 68 235.238 66.187 236.792 63.5009L235.927 63ZM229 67V66C226.411 66 224.151 64.594 222.939 62.4991L222.073 63L221.208 63.5009C222.762 66.187 225.667 68 229 68V67ZM222.073 63V62H218.927V63V64H222.073V63ZM218.927 63L218.061 62.4991C216.849 64.594 214.589 66 212 66V67V68C215.333 68 218.238 66.187 219.792 63.5009L218.927 63ZM212 67V66C209.411 66 207.151 64.594 205.939 62.4991L205.073 63L204.208 63.5009C205.762 66.187 208.667 68 212 68V67ZM205.073 63V62H201.927V63V64H205.073V63ZM201.927 63L201.061 62.4991C199.849 64.594 197.589 66 195 66V67V68C198.333 68 201.238 66.187 202.792 63.5009L201.927 63ZM195 67V66C192.411 66 190.151 64.594 188.939 62.4991L188.073 63L187.208 63.5009C188.762 66.187 191.667 68 195 68V67ZM188.073 63V62H184.927V63V64H188.073V63ZM184.927 63L184.061 62.4991C182.849 64.594 180.589 66 178 66V67V68C181.333 68 184.238 66.187 185.792 63.5009L184.927 63ZM178 67V66C175.411 66 173.151 64.594 171.939 62.4991L171.073 63L170.208 63.5009C171.762 66.187 174.667 68 178 68V67ZM171.073 63V62H167.927V63V64H171.073V63ZM167.927 63L167.061 62.4991C165.849 64.594 163.589 66 161 66V67V68C164.333 68 167.238 66.187 168.792 63.5009L167.927 63ZM161 67V66C158.411 66 156.151 64.594 154.939 62.4991L154.073 63L153.208 63.5009C154.762 66.187 157.667 68 161 68V67ZM154.073 63V62H150.927V63V64H154.073V63ZM150.927 63L150.061 62.4991C148.849 64.594 146.589 66 144 66V67V68C147.333 68 150.238 66.187 151.792 63.5009L150.927 63ZM144 67V66C141.411 66 139.151 64.594 137.939 62.4991L137.073 63L136.208 63.5009C137.762 66.187 140.667 68 144 68V67ZM137.073 63V62H133.927V63V64H137.073V63ZM133.927 63L133.061 62.4991C131.849 64.594 129.589 66 127 66V67V68C130.333 68 133.238 66.187 134.792 63.5009L133.927 63ZM127 67V66C124.411 66 122.151 64.594 120.939 62.4991L120.073 63L119.208 63.5009C120.762 66.187 123.667 68 127 68V67ZM120.073 63V62H116.927V63V64H120.073V63ZM116.927 63L116.061 62.4991C114.849 64.594 112.589 66 110 66V67V68C113.333 68 116.238 66.187 117.792 63.5009L116.927 63ZM110 67V66C107.411 66 105.151 64.594 103.939 62.4991L103.073 63L102.208 63.5009C103.762 66.187 106.667 68 110 68V67ZM103.073 63V62H99.9268V63V64H103.073V63ZM99.9268 63L99.0612 62.4991C97.8489 64.594 95.5886 66 93 66V67V68C96.3325 68 99.2377 66.187 100.792 63.5009L99.9268 63ZM93 67V66C90.4114 66 88.1511 64.594 86.9388 62.4991L86.0732 63L85.2077 63.5009C86.7623 66.187 89.6675 68 93 68V67ZM86.0732 63V62H82.9268V63V64H86.0732V63ZM82.9268 63L82.0612 62.4991C80.8489 64.594 78.5886 66 76 66V67V68C79.3325 68 82.2377 66.187 83.7923 63.5009L82.9268 63ZM76 67V66C73.4114 66 71.1511 64.594 69.9388 62.4991L69.0732 63L68.2077 63.5009C69.7623 66.187 72.6675 68 76 68V67ZM69.0732 63V62H65.9268V63V64H69.0732V63ZM65.9268 63L65.0612 62.4991C63.8489 64.594 61.5886 66 59 66V67V68C62.3325 68 65.2377 66.187 66.7923 63.5009L65.9268 63ZM59 67V66C56.4114 66 54.1511 64.594 52.9388 62.4991L52.0732 63L51.2077 63.5009C52.7622 66.187 55.6675 68 59 68V67ZM52.0732 63V62H48.9268V63V64H52.0732V63ZM48.9268 63L48.0612 62.4991C46.8489 64.594 44.5886 66 42 66V67V68C45.3325 68 48.2378 66.187 49.7923 63.5009L48.9268 63ZM42 67V66C39.4114 66 37.1511 64.594 35.9388 62.4991L35.0732 63L34.2077 63.5009C35.7622 66.187 38.6675 68 42 68V67ZM35.0732 63V62H31.9268V63V64H35.0732V63ZM31.9268 63L31.0612 62.4991C29.8489 64.594 27.5886 66 25 66V67V68C28.3325 68 31.2378 66.187 32.7923 63.5009L31.9268 63ZM25 67V66C22.4114 66 20.1511 64.594 18.9388 62.4991L18.0732 63L17.2077 63.5009C18.7622 66.187 21.6675 68 25 68V67ZM18.0732 63V62H14.9268V63V64H18.0732V63ZM14.9268 63L14.0612 62.4991C12.8489 64.594 10.5886 66 8 66V67V68C11.3325 68 14.2378 66.187 15.7923 63.5009L14.9268 63ZM8 67V66C4.13401 66 1 62.866 1 59H0H-1C-1 63.9706 3.02944 68 8 68V67ZM0 59H1C1 56.411 2.40597 54.15 4.50083 52.9378L4 52.0723L3.49917 51.2067C0.81258 52.7613 -1 55.6675 -1 59H0ZM4 52.0723H5V48.9268H4H3V52.0723H4ZM4 48.9268L4.50089 48.0612C2.40605 46.8489 1 44.5886 1 42H0H-1C-1 45.3325 0.81297 48.2378 3.49911 49.7923L4 48.9268ZM0 42H1C1 39.411 2.40597 37.15 4.50083 35.9378L4 35.0723L3.49917 34.2067C0.81258 35.7613 -1 38.6675 -1 42H0ZM4 35.0723H5V31.9268H4H3V35.0723H4ZM4 31.9268L4.50089 31.0612C2.40605 29.8489 1 27.5886 1 25H0H-1C-1 28.3325 0.81297 31.2378 3.49911 32.7923L4 31.9268ZM0 25H1C1 22.411 2.40597 20.15 4.50083 18.9378L4 18.0723L3.49917 17.2067C0.81258 18.7613 -1 21.6675 -1 25H0ZM4 18.0723H5V14.9268H4H3V18.0723H4ZM4 14.9268L4.50089 14.0612C2.40605 12.8489 1 10.5886 1 8H0H-1C-1 11.3325 0.81297 14.2378 3.49911 15.7923L4 14.9268ZM0 8H1C1 4.13401 4.13401 1 8 1V0V-1C3.02944 -1 -1 3.02944 -1 8H0ZM8 0V1C10.5886 1 12.8489 2.40605 14.0612 4.50089L14.9268 4L15.7923 3.49911C14.2378 0.81297 11.3325 -1 8 -1V0ZM14.9268 4V5H18.0732V4V3H14.9268V4ZM18.0732 4L18.9388 4.50089C20.1511 2.40605 22.4114 1 25 1V0V-1C21.6675 -1 18.7622 0.81297 17.2077 3.49911L18.0732 4ZM25 0V1C27.5886 1 29.8489 2.40605 31.0612 4.50089L31.9268 4L32.7923 3.49911C31.2378 0.81297 28.3325 -1 25 -1V0ZM31.9268 4V5H35.0732V4V3H31.9268V4ZM35.0732 4L35.9388 4.50089C37.1511 2.40605 39.4114 1 42 1V0V-1C38.6675 -1 35.7622 0.81297 34.2077 3.49911L35.0732 4ZM42 0V1C44.5886 1 46.8489 2.40605 48.0612 4.50089L48.9268 4L49.7923 3.49911C48.2378 0.81297 45.3325 -1 42 -1V0ZM48.9268 4V5H52.0732V4V3H48.9268V4ZM52.0732 4L52.9388 4.50089C54.1511 2.40605 56.4114 1 59 1V0V-1C55.6675 -1 52.7622 0.81297 51.2077 3.49911L52.0732 4ZM59 0V1C61.5886 1 63.8489 2.40605 65.0612 4.50089L65.9268 4L66.7923 3.49911C65.2377 0.81297 62.3325 -1 59 -1V0ZM65.9268 4V5H69.0732V4V3H65.9268V4ZM69.0732 4L69.9388 4.50089C71.1511 2.40605 73.4114 1 76 1V0V-1C72.6675 -1 69.7623 0.81297 68.2077 3.49911L69.0732 4ZM76 0V1C78.5886 1 80.8489 2.40605 82.0612 4.50089L82.9268 4L83.7923 3.49911C82.2377 0.81297 79.3325 -1 76 -1V0ZM82.9268 4V5H86.0732V4V3H82.9268V4ZM86.0732 4L86.9388 4.50089C88.1511 2.40605 90.4114 1 93 1V0V-1C89.6675 -1 86.7623 0.81297 85.2077 3.49911L86.0732 4ZM93 0V1C95.5886 1 97.8489 2.40605 99.0612 4.50089L99.9268 4L100.792 3.49911C99.2377 0.81297 96.3325 -1 93 -1V0ZM99.9268 4V5H103.073V4V3H99.9268V4ZM103.073 4L103.939 4.50089C105.151 2.40605 107.411 1 110 1V0V-1C106.667 -1 103.762 0.81297 102.208 3.49911L103.073 4ZM110 0V1C112.589 1 114.849 2.40605 116.061 4.50089L116.927 4L117.792 3.49911C116.238 0.81297 113.333 -1 110 -1V0ZM116.927 4V5H120.073V4V3H116.927V4ZM120.073 4L120.939 4.50089C122.151 2.40605 124.411 1 127 1V0V-1C123.667 -1 120.762 0.81297 119.208 3.49911L120.073 4ZM127 0V1C129.589 1 131.849 2.40605 133.061 4.50089L133.927 4L134.792 3.49911C133.238 0.81297 130.333 -1 127 -1V0ZM133.927 4V5H137.073V4V3H133.927V4ZM137.073 4L137.939 4.50089C139.151 2.40605 141.411 1 144 1V0V-1C140.667 -1 137.762 0.81297 136.208 3.49911L137.073 4ZM144 0V1C146.589 1 148.849 2.40605 150.061 4.50089L150.927 4L151.792 3.49911C150.238 0.81297 147.333 -1 144 -1V0ZM150.927 4V5H154.073V4V3H150.927V4ZM154.073 4L154.939 4.50089C156.151 2.40605 158.411 1 161 1V0V-1C157.667 -1 154.762 0.81297 153.208 3.49911L154.073 4ZM161 0V1C163.589 1 165.849 2.40605 167.061 4.50089L167.927 4L168.792 3.49911C167.238 0.81297 164.333 -1 161 -1V0ZM167.927 4V5H171.073V4V3H167.927V4ZM171.073 4L171.939 4.50089C173.151 2.40605 175.411 1 178 1V0V-1C174.667 -1 171.762 0.81297 170.208 3.49911L171.073 4ZM178 0V1C180.589 1 182.849 2.40605 184.061 4.50089L184.927 4L185.792 3.49911C184.238 0.81297 181.333 -1 178 -1V0ZM184.927 4V5H188.073V4V3H184.927V4ZM188.073 4L188.939 4.50089C190.151 2.40605 192.411 1 195 1V0V-1C191.667 -1 188.762 0.81297 187.208 3.49911L188.073 4ZM195 0V1C197.589 1 199.849 2.40605 201.061 4.50089L201.927 4L202.792 3.49911C201.238 0.81297 198.333 -1 195 -1V0ZM201.927 4V5H205.073V4V3H201.927V4ZM205.073 4L205.939 4.50089C207.151 2.40605 209.411 1 212 1V0V-1C208.667 -1 205.762 0.81297 204.208 3.49911L205.073 4ZM212 0V1C214.589 1 216.849 2.40605 218.061 4.50089L218.927 4L219.792 3.49911C218.238 0.81297 215.333 -1 212 -1V0ZM218.927 4V5H222.073V4V3H218.927V4ZM222.073 4L222.939 4.50089C224.151 2.40605 226.411 1 229 1V0V-1C225.667 -1 222.762 0.81297 221.208 3.49911L222.073 4ZM229 0V1C231.589 1 233.849 2.40605 235.061 4.50089L235.927 4L236.792 3.49911C235.238 0.81297 232.333 -1 229 -1V0ZM235.927 4V5H239.073V4V3H235.927V4ZM239.073 4L239.939 4.50089C241.151 2.40605 243.411 1 246 1V0V-1C242.667 -1 239.762 0.81297 238.208 3.49911L239.073 4ZM246 0V1C248.589 1 250.849 2.40605 252.061 4.50089L252.927 4L253.792 3.49911C252.238 0.81297 249.333 -1 246 -1V0ZM252.927 4V5H256.073V4V3H252.927V4ZM256.073 4L256.939 4.50089C258.151 2.40605 260.411 1 263 1V0V-1C259.667 -1 256.762 0.81297 255.208 3.49911L256.073 4ZM263 0V1C265.589 1 267.849 2.40605 269.061 4.50089L269.927 4L270.792 3.49911C269.238 0.81297 266.333 -1 263 -1V0ZM269.927 4V5H273.073V4V3H269.927V4ZM273.073 4L273.939 4.50089C275.151 2.40605 277.411 1 280 1V0V-1C276.667 -1 273.762 0.81297 272.208 3.49911L273.073 4ZM280 0V1C282.589 1 284.849 2.40605 286.061 4.50089L286.927 4L287.792 3.49911C286.238 0.81297 283.333 -1 280 -1V0ZM286.927 4V5H290.073V4V3H286.927V4ZM290.073 4L290.939 4.50089C292.151 2.40605 294.411 1 297 1V0V-1C293.667 -1 290.762 0.81297 289.208 3.49911L290.073 4Z" fill="#CBD5E1" mask="url(#path-1-inside-1_5269_90024)"/>
</svg>
