<svg width="66" height="34" viewBox="0 0 66 34" fill="none" xmlns="http://www.w3.org/2000/svg">
<g clip-path="url(#clip0_10466_6873)">
<path d="M1 3C1 1.89543 1.89543 1 3 1H63C64.1046 1 65 1.89543 65 3V31C65 32.1046 64.1046 33 63 33H3C1.89543 33 1 32.1046 1 31V3Z" fill="#F8FAFC"/>
<g filter="url(#filter0_d_10466_6873)">
<g clip-path="url(#clip1_10466_6873)">
<rect width="28" height="5" transform="translate(32 3)" fill="#EEF2FF"/>
<path fill-rule="evenodd" clip-rule="evenodd" d="M36 4.6647V6.3353C36 6.70216 35.7022 7 35.3353 7H33.6647C33.2978 7 33 6.70216 33 6.3353V4.6647C33 4.29784 33.2978 4 33.6647 4H35.3353C35.7022 4 36 4.29784 36 4.6647Z" fill="#4F46E5"/>
<path fill-rule="evenodd" clip-rule="evenodd" d="M36 4.6647V6.3353C36 6.70216 35.7022 7 35.3353 7H33.6647C33.2978 7 33 6.70216 33 6.3353V4.6647C33 4.29784 33.2978 4 33.6647 4H35.3353C35.7022 4 36 4.29784 36 4.6647Z" fill="#4F46E5"/>
<mask id="mask0_10466_6873" style="mask-type:alpha" maskUnits="userSpaceOnUse" x="33" y="4" width="3" height="3">
<path fill-rule="evenodd" clip-rule="evenodd" d="M36 4.6647V6.3353C36 6.70216 35.7022 7 35.3353 7H33.6647C33.2978 7 33 6.70216 33 6.3353V4.6647C33 4.29784 33.2978 4 33.6647 4H35.3353C35.7022 4 36 4.29784 36 4.6647Z" fill="#4F46E5"/>
</mask>
<g mask="url(#mask0_10466_6873)">
<path d="M34.2598 6.19971C34.5055 5.98329 34.8358 5.92111 35.0938 6.06982C35.4324 6.26539 35.518 6.75123 35.2852 7.15479C35.0521 7.55819 34.5887 7.7263 34.25 7.53076C34.1718 7.48552 34.107 7.42462 34.0566 7.35303L34.0195 7.56592H33.5938L33.9766 5.396H34.4023L34.2598 6.19971ZM34.8818 6.48486C34.7388 6.34187 34.4849 6.36439 34.3145 6.53467C34.144 6.70509 34.1216 6.95901 34.2646 7.10205C34.4077 7.24498 34.6617 7.22262 34.832 7.05225C35.0023 6.88187 35.0247 6.62788 34.8818 6.48486Z" fill="white"/>
</g>
<path fill-rule="evenodd" clip-rule="evenodd" d="M33.2012 4.4134C33.2566 4.24649 33.4141 4.12598 33.5995 4.12598H35.383C35.5684 4.12598 35.7259 4.24649 35.7814 4.4134H33.2012Z" fill="#3730A3"/>
<path d="M35.0051 4.52734C35.0496 4.52734 35.0862 4.56353 35.08 4.60753C35.0627 4.73027 35.006 4.84494 34.9173 4.93362C34.8095 5.04136 34.6634 5.10189 34.511 5.10189C34.3586 5.10189 34.2125 5.04136 34.1047 4.93362C34.0161 4.84494 33.9594 4.73027 33.9421 4.60753C33.9359 4.56353 33.9725 4.52734 34.0169 4.52734C34.0613 4.52734 34.0966 4.56369 34.1051 4.60727C34.1209 4.68723 34.16 4.7614 34.2185 4.81985C34.2961 4.89744 34.4013 4.94102 34.511 4.94102C34.6207 4.94102 34.7259 4.89744 34.8035 4.81985C34.862 4.7614 34.9012 4.68723 34.9169 4.60727C34.9255 4.56369 34.9607 4.52734 35.0051 4.52734Z" fill="#FACC15"/>
<rect width="28" height="26" transform="translate(32 8)" fill="white"/>
<rect x="33" y="9" width="26" height="2" rx="1" fill="#F1F5F9"/>
<path d="M35.1667 20.5506L33 13V25H59V17.2135L54.6667 15.1404L52.5985 16.4551H50.3333L48.1667 18.1236L46 14.9382L43.8333 18.1236H41.7159L39.5492 20.5506H35.1667Z" fill="url(#paint0_linear_10466_6873)"/>
<path d="M33 13L35.1667 20.5506H39.5492L41.7159 18.1236H43.8333L46 14.9382L48.1667 18.1236L50.3333 16.4551H52.5985L54.6667 15.1404L59 17.2135" stroke="#10B981" stroke-width="0.167785"/>
<rect x="33" y="27" width="26" height="2" rx="1" fill="#F1F5F9"/>
<rect x="33" y="30" width="26" height="1" rx="0.5" fill="#F1F5F9"/>
<rect x="33" y="32" width="26" height="1" rx="0.5" fill="#F1F5F9"/>
</g>
<rect width="6" height="31" transform="translate(60 3)" fill="#312E81"/>
<rect x="61" y="4" width="4" height="4" rx="1" fill="#1E1B4B"/>
</g>
</g>
<path d="M63 0.75C64.2426 0.75 65.25 1.75736 65.25 3V31C65.25 32.2426 64.2426 33.25 63 33.25H3C1.75736 33.25 0.75 32.2426 0.75 31V3C0.75 1.75736 1.75736 0.75 3 0.75H63Z" stroke="#E2E8F0" stroke-width="0.5"/>
<defs>
<filter id="filter0_d_10466_6873" x="29" y="3" width="37" height="34" filterUnits="userSpaceOnUse" color-interpolation-filters="sRGB">
<feFlood flood-opacity="0" result="BackgroundImageFix"/>
<feColorMatrix in="SourceAlpha" type="matrix" values="0 0 0 0 0 0 0 0 0 0 0 0 0 0 0 0 0 0 127 0" result="hardAlpha"/>
<feMorphology radius="5" operator="erode" in="SourceAlpha" result="effect1_dropShadow_10466_6873"/>
<feOffset dx="-2" dy="2"/>
<feGaussianBlur stdDeviation="3"/>
<feColorMatrix type="matrix" values="0 0 0 0 0.00784314 0 0 0 0 0.0235294 0 0 0 0 0.0901961 0 0 0 0.1 0"/>
<feBlend mode="normal" in2="BackgroundImageFix" result="effect1_dropShadow_10466_6873"/>
<feBlend mode="normal" in="SourceGraphic" in2="effect1_dropShadow_10466_6873" result="shape"/>
</filter>
<linearGradient id="paint0_linear_10466_6873" x1="33.3719" y1="10.8427" x2="33.3719" y2="25" gradientUnits="userSpaceOnUse">
<stop stop-color="#10B981" stop-opacity="0.2"/>
<stop offset="1" stop-color="#10B981" stop-opacity="0"/>
</linearGradient>
<clipPath id="clip0_10466_6873">
<path d="M1 3C1 1.89543 1.89543 1 3 1H63C64.1046 1 65 1.89543 65 3V31C65 32.1046 64.1046 33 63 33H3C1.89543 33 1 32.1046 1 31V3Z" fill="white"/>
</clipPath>
<clipPath id="clip1_10466_6873">
<path d="M32 4C32 3.44772 32.4477 3 33 3H60V34H33C32.4477 34 32 33.5523 32 33V4Z" fill="white"/>
</clipPath>
</defs>
</svg>
