<svg width="14" height="18" viewBox="0 0 14 18" fill="none" xmlns="http://www.w3.org/2000/svg">
<path fill-rule="evenodd" clip-rule="evenodd" d="M7 0.00195312C5.28365 0.00195312 3.5916 0.107458 1.93005 0.31241C0.805787 0.451087 0 1.41569 0 2.51856V15.752C0 16.9946 1.00736 18.002 2.25 18.002H11.75C12.9926 18.002 14 16.9946 14 15.752V2.51856C14 1.41569 13.1942 0.451087 12.07 0.31241C10.4084 0.107458 8.71635 0.00195312 7 0.00195312ZM2.99023 7.75195C2.99023 7.33774 3.32602 7.00195 3.74023 7.00195H3.75023C4.16445 7.00195 4.50023 7.33774 4.50023 7.75195V7.76195C4.50023 8.17617 4.16445 8.51195 3.75023 8.51195H3.74023C3.32602 8.51195 2.99023 8.17617 2.99023 7.76195V7.75195ZM3.74023 9.16858C3.32602 9.16858 2.99023 9.50437 2.99023 9.91858V9.92858C2.99023 10.3428 3.32602 10.6786 3.74023 10.6786H3.75023C4.16445 10.6786 4.50023 10.3428 4.50023 9.92858V9.91858C4.50023 9.50437 4.16445 9.16858 3.75023 9.16858H3.74023ZM2.99023 12.0852C2.99023 11.671 3.32602 11.3352 3.74023 11.3352H3.75023C4.16445 11.3352 4.50023 11.671 4.50023 12.0852V12.0952C4.50023 12.5094 4.16445 12.8452 3.75023 12.8452H3.74023C3.32602 12.8452 2.99023 12.5094 2.99023 12.0952V12.0852ZM3.74023 13.5018C3.32602 13.5018 2.99023 13.8376 2.99023 14.2518V14.2618C2.99023 14.676 3.32602 15.0118 3.74023 15.0118H3.75023C4.16445 15.0118 4.50023 14.676 4.50023 14.2618V14.2518C4.50023 13.8376 4.16445 13.5018 3.75023 13.5018H3.74023ZM5.15691 7.75195C5.15691 7.33774 5.49269 7.00195 5.90691 7.00195H5.91691C6.33112 7.00195 6.66691 7.33774 6.66691 7.75195V7.76195C6.66691 8.17617 6.33112 8.51195 5.91691 8.51195H5.90691C5.49269 8.51195 5.15691 8.17617 5.15691 7.76195V7.75195ZM5.90691 9.16858C5.49269 9.16858 5.15691 9.50437 5.15691 9.91858V9.92858C5.15691 10.3428 5.49269 10.6786 5.90691 10.6786H5.91691C6.33112 10.6786 6.66691 10.3428 6.66691 9.92858V9.91858C6.66691 9.50437 6.33112 9.16858 5.91691 9.16858H5.90691ZM5.15691 12.0852C5.15691 11.671 5.49269 11.3352 5.90691 11.3352H5.91691C6.33112 11.3352 6.66691 11.671 6.66691 12.0852V12.0952C6.66691 12.5094 6.33112 12.8452 5.91691 12.8452H5.90691C5.49269 12.8452 5.15691 12.5094 5.15691 12.0952V12.0852ZM5.90691 13.5018C5.49269 13.5018 5.15691 13.8376 5.15691 14.2518V14.2618C5.15691 14.676 5.49269 15.0118 5.90691 15.0118H5.91691C6.33112 15.0118 6.66691 14.676 6.66691 14.2618V14.2518C6.66691 13.8376 6.33112 13.5018 5.91691 13.5018H5.90691ZM7.3269 7.75195C7.3269 7.33774 7.66269 7.00195 8.0769 7.00195H8.0869C8.50112 7.00195 8.8369 7.33774 8.8369 7.75195V7.76195C8.8369 8.17617 8.50112 8.51195 8.0869 8.51195H8.0769C7.66269 8.51195 7.3269 8.17617 7.3269 7.76195V7.75195ZM8.0769 9.16858C7.66269 9.16858 7.3269 9.50437 7.3269 9.91858V9.92858C7.3269 10.3428 7.66269 10.6786 8.0769 10.6786H8.0869C8.50112 10.6786 8.8369 10.3428 8.8369 9.92858V9.91858C8.8369 9.50437 8.50112 9.16858 8.0869 9.16858H8.0769ZM7.3269 12.0852C7.3269 11.671 7.66269 11.3352 8.0769 11.3352H8.0869C8.50112 11.3352 8.8369 11.671 8.8369 12.0852V12.0952C8.8369 12.5094 8.50112 12.8452 8.0869 12.8452H8.0769C7.66269 12.8452 7.3269 12.5094 7.3269 12.0952V12.0852ZM8.0769 13.5018C7.66269 13.5018 7.3269 13.8376 7.3269 14.2518V14.2618C7.3269 14.676 7.66269 15.0118 8.0769 15.0118H8.0869C8.50112 15.0118 8.8369 14.676 8.8369 14.2618V14.2518C8.8369 13.8376 8.50112 13.5018 8.0869 13.5018H8.0769ZM9.50024 7.75195C9.50024 7.33774 9.83602 7.00195 10.2502 7.00195H10.2602C10.6744 7.00195 11.0102 7.33774 11.0102 7.75195V7.76195C11.0102 8.17617 10.6744 8.51195 10.2602 8.51195H10.2502C9.83602 8.51195 9.50024 8.17617 9.50024 7.76195V7.75195ZM10.2502 9.16858C9.83602 9.16858 9.50024 9.50437 9.50024 9.91858V9.92858C9.50024 10.3428 9.83602 10.6786 10.2502 10.6786H10.2602C10.6744 10.6786 11.0102 10.3428 11.0102 9.92858V9.91858C11.0102 9.50437 10.6744 9.16858 10.2602 9.16858H10.2502ZM10.2502 11.3353C10.6644 11.3353 11.0002 11.6711 11.0002 12.0853V14.252C11.0002 14.6662 10.6644 15.002 10.2502 15.002C9.83602 15.002 9.50024 14.6662 9.50024 14.252V12.0853C9.50024 11.6711 9.83602 11.3353 10.2502 11.3353ZM3.75 3.00195C3.33579 3.00195 3 3.33774 3 3.75195V4.25195C3 4.66617 3.33579 5.00195 3.75 5.00195H10.25C10.6642 5.00195 11 4.66617 11 4.25195V3.75195C11 3.33774 10.6642 3.00195 10.25 3.00195H3.75Z" fill="#4F46E5"/>
</svg>
