<svg xmlns="http://www.w3.org/2000/svg" fill="none" viewBox="0 0 25 25"><path fill="color(display-p3 .9059 .298 .2353)" d="m16.39 17.1-.27-.87c-.21-.7-.32-1.06-.24-1.33a.99.99 0 0 1 .42-.55c.25-.16.63-.16 1.39-.16h.4c2.57 0 3.86 0 4.47-.76.07-.09.13-.18.18-.28.47-.84-.06-1.99-1.12-4.27-.98-2.1-1.47-3.15-2.37-3.77a4.2 4.2 0 0 0-.27-.17c-.95-.54-2.13-.54-4.5-.54h-.5c-2.86 0-4.3 0-5.18.86-.89.86-.89 2.24-.89 5.01v.98c0 1.45 0 2.18.26 2.85.26.66.75 1.21 1.74 2.3l4.1 4.54c.1.11.15.17.2.2.42.37 1.07.33 1.44-.08l.17-.24.26-.39c.52-.87.68-1.9.44-2.89l-.13-.45Z" opacity=".4"/><path fill="color(display-p3 .9059 .298 .2353)" fill-rule="evenodd" d="m19.36 4.3.32.2c1.06.73 1.61 1.91 2.6 4.04l.02.04c1.17 2.5 1.75 3.77 1.1 4.95a3.2 3.2 0 0 1-.26.38c-.83 1.04-2.24 1.04-5.05 1.04h-.7c-.33 0-.62 0-.7.04a.25.25 0 0 0-.1.1c0 .1.09.4.19.72l.06.2.27.86.04.16.1.33c.29 1.18.1 2.4-.53 3.45l-.23.34-.07.1-.21.3a1.78 1.78 0 0 1-2.66 0l-.1-.11-4.1-4.53-.03-.05c-1.03-1.13-1.55-1.7-1.85-2.5a4.68 4.68 0 0 1-.06-.16c-.67.6-1.54.96-2.5.96a2.75 2.75 0 0 1-2.75-2.75v-6A2.75 2.75 0 0 1 4.9 3.66c1.22 0 2.31.59 3 1.5.1-.16.23-.3.37-.43 1.03-1 2.42-1.07 5.06-1.07h1.8c2.06 0 3.19.05 4.22.65Zm-4.26.86h-1.73c-2.25 0-3.43.05-4.04.65-.63.62-.66 1.75-.66 4.48v.97c0 1.36 0 2.05.2 2.58.22.54.68 1.05 1.6 2.08l4.13 4.56.07.07c0 .02.02.03.03.04.05.05.1.07.18.07v.02c.08 0 .16-.03.2-.1.03-.02.05-.05.09-.11l.04-.05a8.8 8.8 0 0 1 .24-.36c.43-.7.55-1.53.36-2.32l-.06-.2a7.07 7.07 0 0 1-.06-.21l-.27-.87-.01-.03c-.25-.8-.38-1.25-.23-1.74.12-.4.39-.74.74-.96.39-.25.83-.27 1.57-.27h.62c2.18 0 3.5 0 3.88-.48a1 1 0 0 0 .1-.17c.28-.52-.24-1.63-1.1-3.5l-.04-.1-.07-.14c-.88-1.88-1.32-2.84-2.04-3.32l-.22-.14c-.71-.41-1.7-.45-3.52-.45Zm-10.2 0c-.68 0-1.24.56-1.24 1.25v6c0 .69.56 1.25 1.25 1.25a2.25 2.25 0 0 0 2.25-2.25v-4A2.25 2.25 0 0 0 4.9 5.16Z" clip-rule="evenodd"/></svg>