<svg xmlns="http://www.w3.org/2000/svg" fill="none" viewBox="0 0 24 24"><path fill="color(display-p3 .0863 .6275 .5216)" d="m15.48 7.8-.27.86c-.22.7-.33 1.06-.24 1.34.07.22.22.42.42.54.25.16.63.16 1.39.16h.4c2.57 0 3.86 0 4.46.76.07.09.14.18.19.28.47.85-.06 2-1.13 4.28-.97 2.1-1.46 3.14-2.36 3.76l-.27.17c-.95.55-2.13.55-4.5.55h-.5c-2.86 0-4.3 0-5.18-.86C7 18.77 7 17.39 7 14.62v-.97c0-1.46 0-2.19.26-2.85.26-.67.75-1.22 1.74-2.31l4.1-4.53c.1-.12.15-.17.2-.21a1.03 1.03 0 0 1 1.43.09 8.54 8.54 0 0 1 .43.63 3.81 3.81 0 0 1 .32 3.33Z" opacity=".4"/><path fill="color(display-p3 .0863 .6275 .5216)" fill-rule="evenodd" d="M12.8 3.2a1.78 1.78 0 0 1 2.7.44l.08.1.22.35a4.54 4.54 0 0 1 .44 3.78l-.05.16-.27.86-.05.2c-.1.32-.2.62-.19.71.01.03.05.08.1.11.1.04.55.04 1 .04h1c2.41 0 3.68.08 4.44 1.04.1.12.18.25.26.38.65 1.18.07 2.44-1.1 4.95l-.01.03c-1 2.13-1.54 3.31-2.6 4.04l-.33.2c-1.13.65-2.38.65-4.87.65h-.83c-2.84 0-4.3-.04-5.38-1.07a2.96 2.96 0 0 1-.37-.43 3.74 3.74 0 0 1-3 1.5 2.75 2.75 0 0 1-2.75-2.75v-6A2.75 2.75 0 0 1 4 9.74c.96 0 1.84.36 2.5.96l.06-.17c.31-.79.83-1.37 1.86-2.5L8.44 8l4.1-4.53.1-.11.15-.16ZM4 11.23c-.7 0-1.26.56-1.26 1.25v6c0 .7.56 1.25 1.25 1.25a2.25 2.25 0 0 0 2.25-2.25v-4A2.25 2.25 0 0 0 4 11.24Zm9.97-7.02v.02a.24.24 0 0 0-.21.1l-.08.08-4.12 4.56c-.93 1.03-1.39 1.54-1.6 2.08-.2.53-.2 1.22-.2 2.58v.97c0 2.73.02 3.86.65 4.48.62.6 1.8.65 4.05.65h1.43c2.02 0 3.07-.02 3.81-.45l.22-.14c.73-.49 1.17-1.44 2.05-3.32l.06-.14.05-.1c.86-1.87 1.38-2.99 1.1-3.5a1 1 0 0 0-.1-.17c-.35-.44-1.47-.48-3.31-.48h-1.19c-.75 0-1.18-.02-1.58-.27a1.77 1.77 0 0 1-.74-.96c-.14-.5 0-.94.24-1.75v-.02l.27-.87.07-.22.05-.19a3.05 3.05 0 0 0-.6-2.68c0-.02-.02-.04-.03-.05-.04-.06-.06-.1-.09-.12a.27.27 0 0 0-.2-.09Z" clip-rule="evenodd"/></svg>