<svg xmlns="http://www.w3.org/2000/svg" fill="none" viewBox="0 0 20 20">
	<path fill="currentColor" fill-rule="evenodd"
		d="M10.24 2.95a1.43 1.43 0 0 1 2.16.36l.06.08A3.63 3.63 0 0 1 13 6.7l-.03.13-.22.7-.05.15c-.08.26-.15.5-.14.57 0 .02.04.06.08.09.08.03.44.03.79.03h.8c1.93 0 2.95.06 3.56.83.08.1.14.2.2.3.53.95.06 1.96-.87 3.97l-.01.02c-.8 1.7-1.24 2.65-2.09 3.23l-.25.16c-.9.52-1.9.52-3.9.52h-.67c-2.27 0-3.44-.03-4.3-.85-.11-.11-.2-.23-.3-.35a3 3 0 0 1-2.4 1.2A2.2 2.2 0 0 1 1 15.2v-4.8c0-1.21.99-2.2 2.2-2.2a3 3 0 0 1 2 .77l.05-.14c.25-.63.67-1.09 1.49-2l.03-.03 3.27-3.62.08-.1.13-.12ZM3.2 9.4a1 1 0 0 0-1 1v4.8a1 1 0 0 0 1 1c.99 0 1.8-.8 1.8-1.8v-3.2c0-.99-.81-1.8-1.8-1.8Zm7.98-5.61v.01a.2.2 0 0 0-.17.08l-.06.07-3.3 3.64a6.42 6.42 0 0 0-1.28 1.67c-.17.42-.17.97-.17 2.06v.78c0 2.18.03 3.09.53 3.58.5.48 1.44.52 3.24.52h1.15c1.6 0 2.45-.02 3.04-.36l.18-.11c.58-.4.94-1.16 1.64-2.66l.05-.1.04-.1c.69-1.49 1.1-2.38.88-2.79a.8.8 0 0 0-.09-.13c-.28-.35-1.17-.38-2.65-.39h-.94c-.6 0-.95-.02-1.27-.21a1.4 1.4 0 0 1-.59-.77c-.12-.4 0-.76.19-1.4v-.02l.22-.7.05-.17.05-.15a2.44 2.44 0 0 0-.48-2.15l-.03-.04-.07-.1a.21.21 0 0 0-.16-.06Z"
		clip-rule="evenodd" />
</svg>
