<svg xmlns="http://www.w3.org/2000/svg" fill="none" viewBox="0 0 24 24">
	<path fill="currentColor"
		d="M13.57 2.76c2.5 0 3.74 0 4.87.65l.33.2c1.07.73 1.61 1.92 2.61 4.07 1.17 2.5 1.75 3.77 1.1 4.95l-.25.38c-.83 1.04-2.25 1.04-5.06 1.04h-.4c-.44 0-.89 0-.99.04a.25.25 0 0 0-.1.1c0 .12.12.52.24.92l.27.86.14.49c.3 1.18.1 2.4-.53 3.45l-.3.45-.2.29c-.66.73-1.78.8-2.5.16-.06-.04-.12-.11-.27-.27L8.44 16c-1.05-1.16-1.58-1.74-1.89-2.54l-.05-.17c-.67.6-1.54.96-2.5.96a2.75 2.75 0 0 1-2.76-2.75v-6A2.75 2.75 0 0 1 4 2.76c1.23 0 2.32.59 3 1.5.11-.16.23-.3.37-.43 1.11-1.07 2.64-1.07 5.7-1.07h.51Zm-.5 1.5c-2.66 0-3.99 0-4.66.65-.63.62-.66 1.75-.66 4.48v.97c0 1.36 0 2.05.21 2.58.21.54.67 1.05 1.6 2.08l4.13 4.56c.04.05.07.09.1.1.04.06.1.08.17.08l.02.02c.06 0 .14-.03.2-.1l.11-.16c.12-.18.2-.27.24-.36.43-.7.56-1.53.37-2.32l-.13-.41-.27-.87c-.25-.82-.38-1.27-.23-1.77.12-.4.38-.74.73-.96.43-.27.91-.27 1.8-.27h.4c2.17 0 3.5 0 3.87-.48a1 1 0 0 0 .12-.17c.28-.52-.27-1.67-1.16-3.6-.92-1.97-1.37-2.96-2.1-3.46l-.23-.14c-.78-.45-1.9-.45-4.12-.45h-.5ZM4 4.26c-.69 0-1.25.56-1.25 1.25v6c0 .69.56 1.25 1.25 1.25a2.25 2.25 0 0 0 2.25-2.25v-4A2.25 2.25 0 0 0 4 4.26Z" />
</svg>
