<svg width="14" height="14" viewBox="0 0 14 14" fill="none" xmlns="http://www.w3.org/2000/svg">
<path d="M3.42171 6.83105C3.95928 6.83105 4.44432 6.53383 4.77607 6.11083C5.29151 5.45361 5.94113 4.90665 6.68369 4.5112C7.16511 4.25481 7.58286 3.87391 7.78543 3.36748C7.92717 3.01312 8 2.63497 8 2.25331V1.83105C8 1.55491 8.22386 1.33105 8.5 1.33105C9.32843 1.33105 10 2.00263 10 2.83105C10 3.59881 9.82696 4.32614 9.51775 4.97619C9.3407 5.34842 9.58908 5.83105 10.0013 5.83105M10.0013 5.83105H12.0852C12.7696 5.83105 13.3822 6.29372 13.4547 6.9743C13.4846 7.25578 13.5 7.54162 13.5 7.83105C13.5 9.72947 12.8387 11.4734 11.734 12.8452C11.4756 13.1661 11.0761 13.3311 10.6642 13.3311H7.98683C7.66439 13.3311 7.34405 13.2791 7.03815 13.1771L4.96185 12.485C4.65595 12.383 4.33561 12.3311 4.01317 12.3311H2.93614M10.0013 5.83105H8.5M2.93614 12.3311C2.99135 12.4674 3.05142 12.6013 3.11615 12.7325C3.24758 12.9989 3.06413 13.3311 2.76712 13.3311H2.16192C1.56945 13.3311 1.01994 12.9857 0.847038 12.419C0.621389 11.6795 0.5 10.8944 0.5 10.0811C0.5 9.04608 0.696537 8.05701 1.05433 7.14913C1.2577 6.63308 1.77822 6.33105 2.3329 6.33105H3.03474C3.34936 6.33105 3.53154 6.70166 3.3682 6.97056C2.81726 7.87758 2.5 8.94227 2.5 10.0811C2.5 10.8767 2.65488 11.6362 2.93614 12.3311Z" stroke="#10B981" stroke-linecap="round" stroke-linejoin="round"/>
</svg>
