<svg xmlns="http://www.w3.org/2000/svg" fill="none" viewBox="0 0 20 20"><path fill="#fff" d="M8.96 1.83a1.46 1.46 0 0 1 2.08 0l1.2 1.23a.2.2 0 0 0 .2.06l1.73-.32c.82-.15 1.6.42 1.71 1.25l.21 1.58q.02.12.12.17l1.53.68c.8.35 1.1 1.31.67 2.06l-.8 1.36a.2.2 0 0 0 0 .2l.8 1.36c.43.75.12 1.71-.67 2.06l-1.53.68a.2.2 0 0 0-.12.17l-.2 1.58c-.11.83-.9 1.4-1.72 1.25l-1.74-.32a.2.2 0 0 0-.18.06l-1.2 1.22c-.58.59-1.52.59-2.09 0l-1.2-1.22a.2.2 0 0 0-.2-.06l-1.73.32c-.82.15-1.6-.42-1.71-1.25l-.2-1.58a.2.2 0 0 0-.13-.17l-1.53-.68a1.46 1.46 0 0 1-.67-2.06l.8-1.36a.2.2 0 0 0 0-.2l-.8-1.36a1.46 1.46 0 0 1 .67-2.06L3.8 5.8a.2.2 0 0 0 .12-.17l.2-1.58c.12-.83.9-1.4 1.72-1.25l1.74.32a.2.2 0 0 0 .18-.06zm4.09 6.3a.83.83 0 0 0-1.18.07l-2.33 2.66-1.03-1.03A.83.83 0 0 0 7.33 11l1.66 1.67a.83.83 0 0 0 1.22-.04l2.92-3.33a.83.83 0 0 0-.08-1.18"/></svg>