<svg width="66" height="34" viewBox="0 0 66 34" fill="none" xmlns="http://www.w3.org/2000/svg">
<g clip-path="url(#clip0_10466_6949)">
<path d="M1 3C1 1.89543 1.89543 1 3 1H63C64.1046 1 65 1.89543 65 3V31C65 32.1046 64.1046 33 63 33H3C1.89543 33 1 32.1046 1 31V3Z" fill="#F8FAFC"/>
<g filter="url(#filter0_d_10466_6949)">
<g clip-path="url(#clip1_10466_6949)">
<rect width="50" height="5" transform="translate(9 3)" fill="#EEF2FF"/>
<path fill-rule="evenodd" clip-rule="evenodd" d="M13 4.6647V6.3353C13 6.70216 12.7022 7 12.3353 7H10.6647C10.2978 7 10 6.70216 10 6.3353V4.6647C10 4.29784 10.2978 4 10.6647 4H12.3353C12.7022 4 13 4.29784 13 4.6647Z" fill="#4F46E5"/>
<path fill-rule="evenodd" clip-rule="evenodd" d="M13 4.6647V6.3353C13 6.70216 12.7022 7 12.3353 7H10.6647C10.2978 7 10 6.70216 10 6.3353V4.6647C10 4.29784 10.2978 4 10.6647 4H12.3353C12.7022 4 13 4.29784 13 4.6647Z" fill="#4F46E5"/>
<mask id="mask0_10466_6949" style="mask-type:alpha" maskUnits="userSpaceOnUse" x="10" y="4" width="3" height="3">
<path fill-rule="evenodd" clip-rule="evenodd" d="M13 4.6647V6.3353C13 6.70216 12.7022 7 12.3353 7H10.6647C10.2978 7 10 6.70216 10 6.3353V4.6647C10 4.29784 10.2978 4 10.6647 4H12.3353C12.7022 4 13 4.29784 13 4.6647Z" fill="#4F46E5"/>
</mask>
<g mask="url(#mask0_10466_6949)">
<path d="M11.2598 6.19971C11.5055 5.98329 11.8358 5.92111 12.0938 6.06982C12.4324 6.26539 12.518 6.75123 12.2852 7.15479C12.0521 7.55819 11.5887 7.7263 11.25 7.53076C11.1718 7.48552 11.107 7.42462 11.0566 7.35303L11.0195 7.56592H10.5938L10.9766 5.396H11.4023L11.2598 6.19971ZM11.8818 6.48486C11.7388 6.34187 11.4849 6.36439 11.3145 6.53467C11.144 6.70509 11.1216 6.95901 11.2646 7.10205C11.4077 7.24498 11.6617 7.22262 11.832 7.05225C12.0023 6.88187 12.0247 6.62788 11.8818 6.48486Z" fill="white"/>
</g>
<path fill-rule="evenodd" clip-rule="evenodd" d="M10.2012 4.4134C10.2566 4.24649 10.4141 4.12598 10.5995 4.12598H12.383C12.5684 4.12598 12.7259 4.24649 12.7814 4.4134H10.2012Z" fill="#3730A3"/>
<path d="M12.0051 4.52734C12.0496 4.52734 12.0862 4.56353 12.08 4.60753C12.0627 4.73027 12.006 4.84494 11.9173 4.93362C11.8095 5.04136 11.6634 5.10189 11.511 5.10189C11.3586 5.10189 11.2125 5.04136 11.1047 4.93362C11.0161 4.84494 10.9594 4.73027 10.9421 4.60753C10.9359 4.56353 10.9725 4.52734 11.0169 4.52734C11.0613 4.52734 11.0966 4.56369 11.1051 4.60727C11.1209 4.68723 11.16 4.7614 11.2185 4.81985C11.2961 4.89744 11.4013 4.94102 11.511 4.94102C11.6207 4.94102 11.7259 4.89744 11.8035 4.81985C11.862 4.7614 11.9012 4.68723 11.9169 4.60727C11.9255 4.56369 11.9607 4.52734 12.0051 4.52734Z" fill="#FACC15"/>
<rect width="50" height="26" transform="translate(9 8)" fill="white"/>
<rect x="10" y="9" width="48" height="2" rx="1" fill="#F1F5F9"/>
<path d="M14 20.5506L10 13V25H58V17.2135L50 15.1404L46.1818 16.4551H42L38 18.1236L34 14.9382L30 18.1236H26.0909L22.0909 20.5506H14Z" fill="url(#paint0_linear_10466_6949)"/>
<path d="M10 13L14 20.5506H22.0909L26.0909 18.1236H30L34 14.9382L38 18.1236L42 16.4551H46.1818L50 15.1404L58 17.2135" stroke="#10B981" stroke-width="0.167785"/>
<rect x="10" y="27" width="48" height="2" rx="1" fill="#F1F5F9"/>
<rect x="10" y="30" width="48" height="1" rx="0.5" fill="#F1F5F9"/>
<rect x="10" y="32" width="48" height="1" rx="0.5" fill="#F1F5F9"/>
</g>
<rect width="6" height="31" transform="translate(59 3)" fill="#312E81"/>
<rect x="60" y="4" width="4" height="4" rx="1" fill="#1E1B4B"/>
</g>
</g>
<path d="M63 0.75C64.2426 0.75 65.25 1.75736 65.25 3V31C65.25 32.2426 64.2426 33.25 63 33.25H3C1.75736 33.25 0.75 32.2426 0.75 31V3C0.75 1.75736 1.75736 0.75 3 0.75H63Z" stroke="#E2E8F0" stroke-width="0.5"/>
<defs>
<filter id="filter0_d_10466_6949" x="6" y="3" width="59" height="34" filterUnits="userSpaceOnUse" color-interpolation-filters="sRGB">
<feFlood flood-opacity="0" result="BackgroundImageFix"/>
<feColorMatrix in="SourceAlpha" type="matrix" values="0 0 0 0 0 0 0 0 0 0 0 0 0 0 0 0 0 0 127 0" result="hardAlpha"/>
<feMorphology radius="5" operator="erode" in="SourceAlpha" result="effect1_dropShadow_10466_6949"/>
<feOffset dx="-2" dy="2"/>
<feGaussianBlur stdDeviation="3"/>
<feColorMatrix type="matrix" values="0 0 0 0 0.00784314 0 0 0 0 0.0235294 0 0 0 0 0.0901961 0 0 0 0.1 0"/>
<feBlend mode="normal" in2="BackgroundImageFix" result="effect1_dropShadow_10466_6949"/>
<feBlend mode="normal" in="SourceGraphic" in2="effect1_dropShadow_10466_6949" result="shape"/>
</filter>
<linearGradient id="paint0_linear_10466_6949" x1="10.6865" y1="10.8427" x2="10.6865" y2="25" gradientUnits="userSpaceOnUse">
<stop stop-color="#10B981" stop-opacity="0.2"/>
<stop offset="1" stop-color="#10B981" stop-opacity="0"/>
</linearGradient>
<clipPath id="clip0_10466_6949">
<path d="M1 3C1 1.89543 1.89543 1 3 1H63C64.1046 1 65 1.89543 65 3V31C65 32.1046 64.1046 33 63 33H3C1.89543 33 1 32.1046 1 31V3Z" fill="white"/>
</clipPath>
<clipPath id="clip1_10466_6949">
<path d="M9 4C9 3.44772 9.44772 3 10 3H59V34H10C9.44771 34 9 33.5523 9 33V4Z" fill="white"/>
</clipPath>
</defs>
</svg>
